#N canvas 27 89 1338 654 10;
#X obj 680 40 comport 0 9600;
#X obj 749 -126 vsl 15 128 0 127 0 0 empty empty empty 0 -9 0 10 -262144
-1 -1 11700 1;
#X msg 604 -111 open 0;
#X msg 681 -67 close;
#X connect 1 0 0 0;
#X connect 2 0 0 0;
#X connect 3 0 0 0;
