#N canvas 523 135 1338 654 10;
#X floatatom 231 -229 5 0 0 0 - - -;
#X obj 181 -127 send peter;
#X obj 548 -196 receive peter;
#X floatatom 536 -156 5 0 0 0 - - -;
#X obj 266 -132 send willy;
#X obj 214 -157 spigot;
#X obj 271 -155 spigot;
#X obj 381 -213 tgl 15 0 empty empty empty 17 7 0 10 -262144 -1 -1
0 76;
#X obj 382 -174 == 0;
#X obj 499 -44 receive willy;
#X floatatom 500 -7 5 0 0 0 - - -;
#X obj 367 -121 print estado;
#X connect 0 0 5 0;
#X connect 0 0 6 0;
#X connect 2 0 3 0;
#X connect 5 0 1 0;
#X connect 6 0 4 0;
#X connect 7 0 5 1;
#X connect 7 0 8 0;
#X connect 8 0 6 1;
#X connect 8 0 11 0;
#X connect 9 0 10 0;
