#N canvas 663 165 446 550 10;
#X obj 108 73 soundfiler;
#X msg 108 41 read -resize \$1 bajoL bajoR;
#X floatatom 143 104 12 0 0 0 - - -;
#X obj 143 130 s sampleSize;
#X obj 108 153 expr 44100 / $f1;
#X floatatom 137 185 12 0 0 0 - - -;
#X obj 108 224 phasor~;
#X obj 107 280 *~;
#X obj 168 248 r sampleSize;
#X obj 258 286 tgl 15 0 empty empty empty 17 7 0 10 -262144 -1 -1 0
1;
#X obj 258 322 metro 50;
#X obj 258 350 snapshot~;
#X floatatom 258 382 12 0 0 0 - - -;
#X obj 258 414 /;
#X obj 345 396 r sampleSize;
#X floatatom 258 447 5 0 0 0 - - -;
#X obj 313 230 hsl 128 15 0 127 0 0 empty empty empty -2 -8 0 10 -262144
-1 -1 0 1;
#X obj 89 342 tabread4~ bajoL;
#X obj 127 373 tabread4~ bajoR;
#X obj 93 451 *~;
#X obj 155 457 *~;
#X msg 272 154;
#X obj 277 185 hsl 128 15 0 127 0 0 empty empty empty -2 -8 0 10 -262144
-1 -1 0 1;
#X floatatom 272 209 5 0 0 0 - - -;
#X connect 0 0 2 0;
#X connect 0 0 4 0;
#X connect 1 0 0 0;
#X connect 2 0 3 0;
#X connect 4 0 5 0;
#X connect 4 0 6 0;
#X connect 6 0 7 0;
#X connect 7 0 17 0;
#X connect 7 0 18 0;
#X connect 8 0 7 1;
#X connect 9 0 10 0;
#X connect 10 0 11 0;
#X connect 11 0 12 0;
#X connect 12 0 13 0;
#X connect 13 0 15 0;
#X connect 14 0 13 1;
#X connect 15 0 16 0;
#X connect 17 0 19 0;
#X connect 18 0 20 0;
#X connect 21 0 22 0;
#X connect 22 0 23 0;
#X connect 23 0 6 0;
