#N canvas 1045 99 1253 700 10;
#X obj -8 207 vradio 15 1 0 8 empty empty empty 0 -8 0 10 -262144 -1
-1 0;
#X floatatom -12 336 5 0 0 0 - - -;
#X obj -10 379 readsf~ 2;
#X obj -8 463 dac~;
#X obj 13 416 *~ 1;
#X obj -33 419 *~ 1;
#X obj 151 229 vradio 15 1 0 8 empty empty empty 0 -8 0 10 -262144
-1 -1 0;
#X floatatom 211 383 5 0 0 0 - - -;
#X obj 158 438 readsf~ 2;
#X obj 193 519 dac~;
#X text 38 182 BAJOS;
#X text 159 178 DRUMS;
#X obj 327 224 vradio 15 1 0 8 empty empty empty 0 -8 0 10 -262144
-1 -1 0;
#X floatatom 357 394 5 0 0 0 - - -;
#X obj 334 433 readsf~ 2;
#X obj 369 514 dac~;
#X obj 390 467 *~ 1;
#X obj 344 470 *~ 1;
#X text 319 187 Funky Guitars;
#N canvas 633 22 450 300 bajos 0;
#X obj 143 42 sel 1;
#X obj 141 81 sel 2;
#X obj 119 125 sel 3;
#X obj 125 192 sel 4;
#X msg 176 90 open /Users/Carlos/Desktop/PureData/SimonGouldingLiveFunkyBassGuitar/110_C_Finger_SP02.wav
\, start;
#X msg 175 144 open /Users/Carlos/Desktop/PureData/SimonGouldingLiveFunkyBassGuitar/115_G_Slap_SP01.wav
\, start;
#X msg 174 190 open /Users/Carlos/Desktop/PureData/SimonGouldingLiveFunkyBassGuitar/120_C_Fretless_SP01.wav
\, start;
#X obj 34 -21 inlet;
#X obj 30 210 outlet;
#X msg 187 40 open /Users/Carlos/Desktop/PureData/Bajos/8seg/120/Dm/120BPM_Analog_Bass_02_Dmin.wav
\, start;
#X connect 0 0 9 0;
#X connect 1 0 4 0;
#X connect 2 0 5 0;
#X connect 3 0 6 0;
#X connect 4 0 8 0;
#X connect 5 0 8 0;
#X connect 6 0 8 0;
#X connect 7 0 0 0;
#X connect 7 0 1 0;
#X connect 7 0 2 0;
#X connect 7 0 3 0;
#X connect 9 0 8 0;
#X restore 34 247 pd bajos;
#N canvas 819 108 450 300 drums 0;
#X obj 151 359 sel 1;
#X obj 149 398 sel 2;
#X obj 132 455 sel 3;
#X obj 115 507 sel 4;
#X obj 112 562 sel 5;
#X text 361 677 DRUMS2;
#X obj 123 609 sel 6;
#X obj 120 664 sel 7;
#X msg 187 610 /Users/Carlos/Desktop/PureData/Drums/8seg/120/120BPM_Accent_Perc_04.wav
\, start;
#X msg 179 508 open /Users/Carlos/Desktop/PureData/Drums/8seg/120/120BPM_Accent_Perc_04.wav
\, start;
#X msg 175 552 open /Users/Carlos/Desktop/PureData/Drums/8seg/120/120BPM_Accent_Perc_04.wav
\, start;
#X msg 191 389 open /Users/Carlos/Desktop/PureData/Drums/8seg/120/120BPM_Cool_Conga_03.wav
\, start;
#X msg 182 440 open /Users/Carlos/Desktop/PureData/Drums/8seg/120/120BPM_Full_Beat_04.wav
\, start;
#X msg 187 343 open /Users/Carlos/Desktop/PureData/Drums/2seg/120/120_BongoFill_05_Close.wav
\, start;
#X obj 86 382 inlet;
#X obj 43 748 outlet;
#X msg 183 654 open /Users/Carlos/Desktop/PureData/Drums/8seg/120BPM_Top_Perc_02.wav
\, start;
#X connect 0 0 13 0;
#X connect 1 0 11 0;
#X connect 2 0 12 0;
#X connect 3 0 9 0;
#X connect 4 0 10 0;
#X connect 6 0 8 0;
#X connect 7 0 16 0;
#X connect 8 0 15 0;
#X connect 9 0 15 0;
#X connect 10 0 15 0;
#X connect 11 0 15 0;
#X connect 12 0 15 0;
#X connect 13 0 15 0;
#X connect 14 0 0 0;
#X connect 14 0 1 0;
#X connect 14 0 2 0;
#X connect 14 0 3 0;
#X connect 14 0 4 0;
#X connect 14 0 6 0;
#X connect 14 0 7 0;
#X connect 16 0 15 0;
#X restore 178 319 pd drums;
#X text 880 -46 comment;
#N canvas 798 244 450 300 guitar 0;
#X obj 584 -11 sel 1;
#X obj 582 28 sel 2;
#X obj 565 85 sel 3;
#X obj 548 137 sel 4;
#X obj 545 192 sel 5;
#X text 794 307 DRUMS2;
#X obj 556 239 sel 6;
#X obj 553 294 sel 7;
#X msg 615 70 open /Users/Carlos/Desktop/PureData/FunkandSoulGuitar/110_Crunch_A_SP_05.wav
\, start;
#X msg 612 138 open /Users/Carlos/Desktop/PureData/FunkandSoulGuitar/115_Rhythm_E_SP_03.wav
\, start;
#X msg 608 182 open /Users/Carlos/Desktop/PureData/FunkandSoulGuitar/120_Wah_D_SP_01.wav
\, start;
#X msg 620 240 open /Users/Carlos/Desktop/PureData/FunkandSoulGuitar/125_Rhythm_G_SP_01.wavv
\, start;
#X msg 616 284 open /Users/Carlos/Desktop/PureData/FunkandSoulGuitar/130_Rhythm_C_SP_01.wav
\, start;
#X obj 427 69 inlet;
#X obj 424 150 outlet;
#X msg 620 -27 open /Users/Carlos/Desktop/PureData/Guitar/8seg/120/D/120_Wah_D_SP_01.wav
\, start;
#X msg 624 19 open /Users/Carlos/Desktop/PureData/Guitar/16seg/120/Dm/120_Dm_StTropez_SP_03.wav
\, start;
#X connect 0 0 15 0;
#X connect 1 0 16 0;
#X connect 2 0 8 0;
#X connect 3 0 9 0;
#X connect 4 0 10 0;
#X connect 6 0 11 0;
#X connect 7 0 12 0;
#X connect 8 0 14 0;
#X connect 9 0 14 0;
#X connect 10 0 14 0;
#X connect 11 0 14 0;
#X connect 12 0 14 0;
#X connect 13 0 0 0;
#X connect 13 0 1 0;
#X connect 13 0 2 0;
#X connect 13 0 3 0;
#X connect 13 0 4 0;
#X connect 13 0 6 0;
#X connect 13 0 7 0;
#X connect 15 0 14 0;
#X connect 16 0 14 0;
#X restore 363 327 pd guitar;
#X msg 48 -148 devices;
#X msg 97 -108 ports;
#X obj 205 -127 hradio 15 1 0 8 empty empty empty 0 -8 0 10 -262144
-1 -1 0;
#X floatatom 208 -85 5 0 0 0 - - -;
#X msg 206 -46 open \$1;
#X obj 209 -8 bng 15 250 50 0 empty empty empty 17 7 0 10 -262144 -1
-1;
#X msg 209 19 close;
#X obj -9 46 comport \$1 9600;
#X obj 145 72 print;
#X floatatom 92 186 5 0 0 0 - - -;
#X obj 168 475 *~;
#X obj 214 472 *~;
#X obj -4 86 / 256;
#X obj 17 117 f;
#X connect 0 0 1 0;
#X connect 1 0 19 0;
#X connect 2 0 4 0;
#X connect 2 1 5 0;
#X connect 2 2 1 0;
#X connect 4 0 3 0;
#X connect 4 0 3 1;
#X connect 5 0 3 1;
#X connect 6 0 7 0;
#X connect 7 0 20 0;
#X connect 8 0 34 0;
#X connect 8 1 33 0;
#X connect 8 2 7 0;
#X connect 12 0 13 0;
#X connect 13 0 22 0;
#X connect 14 0 16 0;
#X connect 14 1 17 0;
#X connect 14 2 13 0;
#X connect 16 0 15 0;
#X connect 16 0 15 1;
#X connect 17 0 15 1;
#X connect 19 0 2 0;
#X connect 20 0 8 0;
#X connect 22 0 14 0;
#X connect 23 0 30 0;
#X connect 24 0 30 0;
#X connect 25 0 26 0;
#X connect 26 0 27 0;
#X connect 27 0 30 0;
#X connect 28 0 29 0;
#X connect 29 0 30 0;
#X connect 30 0 35 0;
#X connect 30 1 31 0;
#X connect 32 0 33 1;
#X connect 32 0 34 1;
#X connect 33 0 9 1;
#X connect 34 0 9 0;
#X connect 34 0 9 1;
#X connect 35 0 36 0;
#X connect 36 0 32 0;
