#N canvas 0 22 1280 654 10;
#X obj 30 91 comport 6 9600;
#X msg 30 57 close;
#X obj 188 323 repack;
#X obj 69 210 f;
#X obj 99 210 + 1;
#X msg 84 188 0;
#X obj 69 235 pack;
#X obj 155 297 unpack;
#X text 199 298 after that index is not necessary;
#X obj 242 472 * 128;
#X obj 215 498 +;
#X msg 269 521 symbol num\$1;
#X obj 215 538 s;
#X obj 356 59 r num0;
#X floatatom 356 121 5 0 0 0 - - -;
#X obj 201 424 list;
#X obj 188 400 t b l;
#X obj 30 113 sel 192;
#X obj 69 280 route 0 1;
#X obj 94 346 f;
#X obj 94 301 * 128;
#X obj 94 323 t b f;
#X obj 94 370 +;
#X obj 69 167 t b f;
#X text 123 210 give indices to incoming values;
#X text 307 449 reassemble split bytes;
#X text 295 500 and difuse them appropriately;
#X obj 215 450 unpack f f f f;
#X obj 188 378 list split 4;
#X obj 296 472 * 128;
#X obj 269 498 +;
#X obj 188 347 spigot;
#X msg 234 322 1;
#X msg 265 324 0;
#X obj 30 136 t b b b b;
#X text 90 136 reset counter and clear [repack];
#X obj 356 81 t f b;
#X obj 383 102 bng 15 250 50 0 empty empty empty 17 7 0 10 -262144
-1 -1;
#X floatatom 463 122 5 0 0 0 - - -;
#X obj 463 82 t f b;
#X obj 490 103 bng 15 250 50 0 empty empty empty 17 7 0 10 -262144
-1 -1;
#X floatatom 573 122 5 0 0 0 - - -;
#X obj 571 83 t f b;
#X obj 598 104 bng 15 250 50 0 empty empty empty 17 7 0 10 -262144
-1 -1;
#X floatatom 652 121 5 0 0 0 - - -;
#X obj 652 84 t f b;
#X obj 679 106 bng 15 250 50 0 empty empty empty 17 7 0 10 -262144
-1 -1;
#X floatatom 787 117 5 0 0 0 - - -;
#X obj 787 78 t f b;
#X obj 814 99 bng 15 250 50 0 empty empty empty 17 7 0 10 -262144 -1
-1;
#X floatatom 347 241 5 0 0 0 - - -;
#X obj 347 201 t f b;
#X obj 374 222 bng 15 250 50 0 empty empty empty 17 7 0 10 -262144
-1 -1;
#X floatatom 456 243 5 0 0 0 - - -;
#X obj 458 202 t f b;
#X obj 485 223 bng 15 250 50 0 empty empty empty 17 7 0 10 -262144
-1 -1;
#X floatatom 574 243 5 0 0 0 - - -;
#X obj 574 203 t f b;
#X obj 601 224 bng 15 250 50 0 empty empty empty 17 7 0 10 -262144
-1 -1;
#X floatatom 650 243 5 0 0 0 - - -;
#X obj 650 203 t f b;
#X obj 677 224 bng 15 250 50 0 empty empty empty 17 7 0 10 -262144
-1 -1;
#X floatatom 744 245 5 0 0 0 - - -;
#X obj 744 205 t f b;
#X obj 771 226 bng 15 250 50 0 empty empty empty 17 7 0 10 -262144
-1 -1;
#X obj 463 60 r num1;
#X obj 571 61 r num2;
#X obj 652 62 r num3;
#X obj 787 56 r num4;
#X obj 347 179 r num5;
#X obj 458 180 r num6;
#X obj 574 181 r num7;
#X obj 650 181 r num8;
#X obj 744 183 r num9;
#X floatatom 74 37 5 0 0 0 - - -;
#X obj 30 15 loadbang;
#X msg 128 57 devices;
#X text 77 113 0xc0 initializes transfer data array;
#X text 339 17 bangs are these to easier visualize which values changed
and which don't;
#X msg 74 57 open \$1;
#X text 74 262 first value (split in two) is number of data;
#X floatatom 949 235 5 0 0 0 - - -;
#X text 268 349 then split list in pairs of four \, which are two bytes
\, each split in two (first byte is actual value and second byte is
the value's index);
#X obj 1470 478 vradio 15 1 0 8 empty empty empty 0 -8 0 10 -262144
-1 -1 0;
#X floatatom 1466 607 5 0 0 0 - - -;
#X obj 1613 414 readsf~ 2;
#N canvas 631 89 450 300 bajos 0;
#X obj 143 42 sel 1;
#X obj 141 81 sel 2;
#X obj 119 125 sel 3;
#X obj 125 192 sel 4;
#X msg 176 90 open /Users/Carlos/Desktop/PureData/SimonGouldingLiveFunkyBassGuitar/110_C_Finger_SP02.wav
\, start;
#X msg 175 144 open /Users/Carlos/Desktop/PureData/SimonGouldingLiveFunkyBassGuitar/115_G_Slap_SP01.wav
\, start;
#X msg 174 190 open /Users/Carlos/Desktop/PureData/SimonGouldingLiveFunkyBassGuitar/120_C_Fretless_SP01.wav
\, start;
#X obj 34 -21 inlet;
#X obj 30 210 outlet;
#X msg 187 40 open /Users/Carlos/Desktop/PureData/Bajos/8seg/120/Dm/120BPM_Analog_Bass_02_Dmin.wav
\, start;
#X connect 0 0 9 0;
#X connect 1 0 4 0;
#X connect 2 0 5 0;
#X connect 3 0 6 0;
#X connect 4 0 8 0;
#X connect 5 0 8 0;
#X connect 6 0 8 0;
#X connect 7 0 0 0;
#X connect 7 0 1 0;
#X connect 7 0 2 0;
#X connect 7 0 3 0;
#X connect 9 0 8 0;
#X restore 1465 629 pd bajos;
#X obj 1639 598 *~;
#X obj 1685 595 *~;
#N canvas 202 98 473 569 VolumenTotal 0;
#X obj -191 285 +;
#X obj -245 282 \$1;
#X floatatom -194 311 5 0 0 0 - - -;
#X floatatom -247 339 5 0 0 0 - - -;
#X obj -196 332 moses 0;
#X floatatom -205 356 5 0 0 0 - - -;
#X floatatom -195 401 5 0 0 0 - - -;
#X obj -200 379 moses 255;
#X obj -199 433 / 254;
#X obj -243 467 outlet;
#X obj -242 75 inlet;
#X obj -142 82 inlet;
#X obj -216 164 spigot;
#X obj -142 104 == 0;
#X obj -179 120 f;
#X obj -192 95 bng 15 250 50 0 empty empty empty 17 7 0 10 -262144
-1 -1;
#X obj -153 152 print;
#X connect 0 0 1 0;
#X connect 0 0 2 0;
#X connect 1 0 0 1;
#X connect 2 0 4 0;
#X connect 4 0 3 0;
#X connect 4 1 5 0;
#X connect 5 0 7 0;
#X connect 6 0 8 0;
#X connect 7 0 6 0;
#X connect 8 0 9 0;
#X connect 10 0 15 0;
#X connect 10 0 12 0;
#X connect 11 0 13 0;
#X connect 12 0 0 0;
#X connect 13 0 14 1;
#X connect 14 0 12 1;
#X connect 14 0 16 0;
#X connect 15 0 14 0;
#X restore 949 212 pd VolumenTotal;
#X floatatom 1141 384 5 0 0 0 - - -;
#N canvas 687 22 475 515 VolumenBucle1 0;
#X obj -390 214 +;
#X obj -443 199 \$1;
#X floatatom -393 240 5 0 0 0 - - -;
#X obj -520 230 print ValorAnterior;
#X floatatom -446 268 5 0 0 0 - - -;
#X obj -395 261 moses 0;
#X floatatom -404 285 5 0 0 0 - - -;
#X floatatom -394 330 5 0 0 0 - - -;
#X obj -399 308 moses 255;
#X obj -398 362 / 254;
#X obj -442 396 outlet;
#X obj -675 63 inlet;
#X obj -575 70 inlet;
#X obj -649 152 spigot;
#X obj -575 92 == 0;
#X obj -612 108 f;
#X obj -625 83 bng 15 250 50 0 empty empty empty 17 7 0 10 -262144
-1 -1;
#X obj -586 140 print;
#X connect 0 0 1 0;
#X connect 0 0 2 0;
#X connect 1 0 0 1;
#X connect 1 0 3 0;
#X connect 2 0 5 0;
#X connect 5 0 4 0;
#X connect 5 1 6 0;
#X connect 6 0 8 0;
#X connect 7 0 9 0;
#X connect 8 0 7 0;
#X connect 9 0 10 0;
#X connect 11 0 16 0;
#X connect 11 0 13 0;
#X connect 12 0 14 0;
#X connect 13 0 0 0;
#X connect 14 0 15 1;
#X connect 15 0 13 1;
#X connect 15 0 17 0;
#X connect 16 0 15 0;
#X restore 1141 347 pd VolumenBucle1;
#X obj 1149 434 *;
#X floatatom 1149 454 5 0 0 0 - - -;
#X obj 1191 375 bng 15 250 50 0 empty empty empty 17 7 0 10 -262144
-1 -1;
#X floatatom 480 703 5 0 0 0 - - -;
#X obj 478 727 bng 15 250 50 0 empty empty empty 17 7 0 10 -262144
-1 -1;
#X floatatom 443 1038 5 0 0 0 - - -;
#X obj 493 1029 bng 15 250 50 0 empty empty empty 17 7 0 10 -262144
-1 -1;
#N canvas 663 161 466 504 VolumenBucle2 1;
#X obj -400 159 +;
#X obj -334 229 \$1;
#X obj -293 148 print ValorAnterior;
#X floatatom -394 330 5 0 0 0 - - -;
#X obj -399 308 moses 255;
#X obj -398 362 / 254;
#X obj -442 396 outlet;
#X obj -665 73 inlet;
#X obj -565 63 inlet;
#X obj -639 162 spigot;
#X obj -602 118 f;
#X obj -615 93 bng 15 250 50 0 empty empty empty 17 7 0 10 -262144
-1 -1;
#X obj -565 102 == 0;
#X floatatom -402 207 5 -1 0 0 - - -;
#X floatatom -521 244 5 0 0 0 - - -;
#X obj -470 237 moses 0;
#X floatatom -479 261 5 0 0 0 - - -;
#X connect 0 0 1 0;
#X connect 0 0 13 0;
#X connect 1 0 0 1;
#X connect 1 0 2 0;
#X connect 3 0 5 0;
#X connect 4 0 3 0;
#X connect 5 0 6 0;
#X connect 7 0 11 0;
#X connect 7 0 9 0;
#X connect 8 0 12 0;
#X connect 9 0 0 0;
#X connect 10 0 9 1;
#X connect 11 0 10 0;
#X connect 12 0 10 1;
#X connect 13 0 15 0;
#X connect 15 0 14 0;
#X connect 15 1 16 0;
#X connect 16 0 4 0;
#X restore 479 680 pd VolumenBucle2;
#N canvas 902 154 367 448 VolumenBucle3 1;
#X obj -390 214 +;
#X obj -443 199 \$1;
#X floatatom -393 240 5 0 0 0 - - -;
#X obj -520 230 print ValorAnterior;
#X floatatom -446 268 5 0 0 0 - - -;
#X obj -395 261 moses 0;
#X floatatom -404 285 5 0 0 0 - - -;
#X floatatom -394 330 5 0 0 0 - - -;
#X obj -399 308 moses 255;
#X obj -398 362 / 254;
#X obj -442 396 outlet;
#X text -737 -30 Este bucle controla si estamos con el primer inte-
putor (rnum2) en 1 (activado).;
#X obj -655 83 inlet;
#X obj -555 73 inlet;
#X obj -629 172 spigot;
#X obj -592 128 f;
#X obj -605 103 bng 15 250 50 0 empty empty empty 17 7 0 10 -262144
-1 -1;
#X obj -555 112 == 0;
#X connect 0 0 1 0;
#X connect 0 0 2 0;
#X connect 1 0 0 1;
#X connect 1 0 3 0;
#X connect 2 0 5 0;
#X connect 5 0 4 0;
#X connect 5 1 6 0;
#X connect 6 0 8 0;
#X connect 7 0 9 0;
#X connect 8 0 7 0;
#X connect 9 0 10 0;
#X connect 12 0 16 0;
#X connect 12 0 14 0;
#X connect 13 0 17 0;
#X connect 14 0 0 0;
#X connect 15 0 14 1;
#X connect 16 0 15 0;
#X connect 17 0 15 1;
#X restore 442 1008 pd VolumenBucle3;
#X obj 563 745 *;
#X floatatom 575 778 5 0 0 0 - - -;
#X obj 430 1089 *;
#X floatatom 429 1121 5 0 0 0 - - -;
#X floatatom 1094 134 5 0 0 0 - - -;
#X obj 1469 412 / 254;
#X floatatom 1469 457 5 0 0 0 - - -;
#X obj 1469 436 * 7;
#X obj 900 871 freeverb~;
#X msg 1096 668 roomsize \$1;
#X msg 1088 858 wet \$1;
#X msg 1148 883 dry \$1;
#X obj 1656 649 dac~;
#X obj 1220 821 hsl 128 15 0 1 0 0 empty empty empty -2 -8 0 10 -4032
-1 -1 0 1;
#X floatatom 1217 840 5 0 0 0 - - -;
#X obj 1148 862 expr 1-$f1;
#X obj 1221 647 hsl 128 15 0 1 0 0 empty empty empty -2 -8 0 10 -4034
-1 -1 0 1;
#X floatatom 1218 672 5 0 0 0 - - -;
#X text 1267 848 Wet signal to dry signal ratio;
#X text 1267 864 (0 : all dry \, 1 : all wet);
#X text 1270 670 Roomize;
#X text 1112 950 Pierre Massat \, GuitarExtended \, 2012;
#X obj 390 122 s bangE1;
#X obj 498 123 s bangE2;
#X obj 545 144 s Interruptor1;
#X obj 1170 243 r bangE1;
#X obj 1232 243 r Interruptor1;
#X obj 501 866 r bangE1;
#X obj 549 534 r bangE1;
#X obj 1027 110 r bangE1;
#X obj 1005 80 r Interruptor1;
#X obj 347 263 s Pot1;
#X obj 1469 392 r Pot1;
#X obj 638 145 s Interruptor2;
#X obj 613 535 r Interruptor2;
#X obj 1088 57 r Interruptor2;
#X obj 747 145 s Interruptor3;
#X obj 560 866 r Interruptor3;
#X obj 1171 80 r Interruptor3;
#X obj 949 255 s VolTot;
#X obj 549 719 r VolTot;
#X obj 385 1065 r VolTot;
#X obj 1085 415 r VolTot;
#N canvas 840 396 450 300 SumaLogica 0;
#X obj -5089 94 +;
#X obj -5059 34 t b f;
#X obj -4995 10 t b f;
#X obj -4997 56 +;
#X obj -5118 -37 inlet;
#X obj -5072 -33 inlet;
#X obj -5007 -26 inlet;
#X obj -4982 158 outlet;
#X connect 0 0 3 0;
#X connect 1 0 0 0;
#X connect 1 1 0 1;
#X connect 2 0 3 0;
#X connect 2 1 3 1;
#X connect 3 0 7 0;
#X connect 4 0 0 0;
#X connect 5 0 1 0;
#X connect 6 0 2 0;
#X coords 0 300 1 299 85 60 0;
#X restore 1090 103 pd SumaLogica;
#X obj 1563 537 r Vol1a;
#X obj 900 898 s~ Effect;
#X obj 1698 618 r~ Effect;
#X obj 1568 435 s~ readsf;
#X obj 804 850 r~ readsf;
#X obj 1677 567 r~ readsf;
#X obj 1149 476 s Vol1;
#X obj 1627 434 s~ readsf2;
#X obj 1619 531 r~ readsf2;
#X obj 1613 390 r bajos;
#X obj 1467 653 s bajos;
#X obj 1678 412 s readsf3;
#X obj 1396 581 r readsf3;
#X text 1118 224 Côntrolle de volume du loop 1;
#X text 1154 549 Côntrolle de l'effet du loop 1;
#N canvas 4 65 536 409 Increm.Vol.Effect 1;
#X floatatom -243 181 5 0 0 0 - - -;
#X obj -185 176 bng 15 250 50 0 empty empty empty 17 7 0 10 -262144
-1 -1;
#X obj -187 236 f;
#X obj -260 213 spigot;
#X floatatom -269 247 5 0 0 0 - - -;
#X obj -149 204 != 255;
#X obj -226 248 bng 15 250 50 0 empty empty empty 17 7 0 10 -262144
-1 -1;
#X obj -205 268 != -255;
#X obj -242 280 f;
#X obj -294 287 spigot;
#X floatatom -287 310 5 0 0 0 - - -;
#X obj -431 -2 inlet;
#X obj -328 48 f;
#X floatatom -360 84 5 0 0 0 - - -;
#X obj -401 111 -;
#X obj -283 132 == 0;
#X obj -313 105 bng 15 250 50 0 empty empty empty 17 7 0 10 -262144
-1 -1;
#X obj -362 177 spigot;
#X obj -311 154 f;
#X obj -354 6 inlet;
#X obj -285 12 inlet;
#X obj -287 332 outlet;
#X obj -303 202 print p;
#X connect 0 0 5 0;
#X connect 0 0 1 0;
#X connect 0 0 3 0;
#X connect 1 0 2 0;
#X connect 2 0 3 1;
#X connect 3 0 4 0;
#X connect 4 0 7 0;
#X connect 4 0 6 0;
#X connect 4 0 9 0;
#X connect 5 0 2 1;
#X connect 6 0 8 0;
#X connect 7 0 8 1;
#X connect 8 0 9 1;
#X connect 9 0 10 0;
#X connect 10 0 21 0;
#X connect 11 0 12 1;
#X connect 11 0 14 0;
#X connect 12 0 13 0;
#X connect 13 0 14 1;
#X connect 14 0 16 0;
#X connect 14 0 17 0;
#X connect 15 0 18 1;
#X connect 16 0 18 0;
#X connect 17 0 0 0;
#X connect 18 0 17 1;
#X connect 18 0 22 0;
#X connect 19 0 12 0;
#X connect 20 0 15 0;
#X restore 949 136 pd Increm.Vol.Effect;
#X obj 455 265 s Interruptor4;
#X obj 320 141 s Encoder1;
#X obj 436 143 s Encoder2;
#X obj 479 533 r Encoder1;
#X obj 421 866 r Encoder1;
#X obj 919 110 r Encoder1;
#X obj 1097 245 r Encoder1;
#X obj 1036 188 r Interruptor4;
#X obj 1234 324 r Interruptor4;
#X obj 572 659 r Interruptor4;
#X obj 535 983 r Interruptor4;
#N canvas 227 62 549 576 Effet1 0;
#X obj -380 224 +;
#X obj -433 209 \$1;
#X floatatom -383 250 5 0 0 0 - - -;
#X obj -510 240 print ValorAnterior;
#X floatatom -436 278 5 0 0 0 - - -;
#X obj -385 271 moses 0;
#X floatatom -394 295 5 0 0 0 - - -;
#X floatatom -384 340 5 0 0 0 - - -;
#X obj -389 318 moses 255;
#X obj -388 372 / 254;
#X obj -432 406 outlet;
#X obj -565 80 inlet;
#X obj -639 162 spigot;
#X obj -602 118 f;
#X obj -615 93 bng 15 250 50 0 empty empty empty 17 7 0 10 -262144
-1 -1;
#X obj -576 150 print;
#X obj -565 102 == 1;
#X obj -665 73 inlet;
#X connect 0 0 1 0;
#X connect 0 0 2 0;
#X connect 1 0 0 1;
#X connect 1 0 3 0;
#X connect 2 0 5 0;
#X connect 5 0 4 0;
#X connect 5 1 6 0;
#X connect 6 0 8 0;
#X connect 7 0 9 0;
#X connect 8 0 7 0;
#X connect 9 0 10 0;
#X connect 11 0 16 0;
#X connect 12 0 0 0;
#X connect 13 0 12 1;
#X connect 13 0 15 0;
#X connect 14 0 13 0;
#X connect 16 0 13 1;
#X connect 17 0 14 0;
#X connect 17 0 12 0;
#X restore 1217 593 pd Effet1;
#X floatatom 1217 614 5 0 0 0 - - -;
#X obj 1272 571 r Interruptor4;
#N canvas 70 95 536 409 Increm.Vol.Effect1 1;
#X floatatom -243 181 5 0 0 0 - - -;
#X obj -185 176 bng 15 250 50 0 empty empty empty 17 7 0 10 -262144
-1 -1;
#X obj -187 236 f;
#X obj -260 213 spigot;
#X floatatom -269 247 5 0 0 0 - - -;
#X obj -149 204 != 255;
#X obj -226 248 bng 15 250 50 0 empty empty empty 17 7 0 10 -262144
-1 -1;
#X obj -205 268 != -255;
#X obj -242 280 f;
#X obj -294 287 spigot;
#X floatatom -287 310 5 0 0 0 - - -;
#X obj -431 -2 inlet;
#X obj -328 48 f;
#X floatatom -360 84 5 0 0 0 - - -;
#X obj -398 108 -;
#X obj -313 105 bng 15 250 50 0 empty empty empty 17 7 0 10 -262144
-1 -1;
#X obj -362 177 spigot;
#X obj -311 154 f;
#X obj -354 6 inlet;
#X obj -285 12 inlet;
#X obj -287 332 outlet;
#X obj -283 132 == 1;
#X connect 0 0 5 0;
#X connect 0 0 1 0;
#X connect 0 0 3 0;
#X connect 1 0 2 0;
#X connect 2 0 3 1;
#X connect 3 0 4 0;
#X connect 4 0 7 0;
#X connect 4 0 6 0;
#X connect 4 0 9 0;
#X connect 5 0 2 1;
#X connect 6 0 8 0;
#X connect 7 0 8 1;
#X connect 8 0 9 1;
#X connect 9 0 10 0;
#X connect 10 0 20 0;
#X connect 11 0 12 1;
#X connect 11 0 14 0;
#X connect 12 0 13 0;
#X connect 13 0 14 1;
#X connect 14 0 15 0;
#X connect 14 0 16 0;
#X connect 15 0 17 0;
#X connect 16 0 0 0;
#X connect 17 0 16 1;
#X connect 18 0 12 0;
#X connect 19 0 21 0;
#X connect 21 0 17 1;
#X restore 1109 266 pd Increm.Vol.Effect1;
#X obj 1827 237 soundfiler;
#X floatatom 1862 268 12 0 0 0 - - -;
#X obj 1862 294 s sampleSize;
#X obj 1827 317 expr 44100 / $f1;
#X floatatom 1856 349 12 0 0 0 - - -;
#X obj 1827 388 phasor~;
#X obj 1826 444 *~;
#X obj 1887 412 r sampleSize;
#X obj 1977 450 tgl 15 0 empty empty empty 17 7 0 10 -262144 -1 -1
0 1;
#X obj 1977 486 metro 50;
#X obj 1977 514 snapshot~;
#X floatatom 1977 546 12 0 0 0 - - -;
#X obj 1977 578 /;
#X obj 2064 560 r sampleSize;
#X floatatom 1977 611 5 0 0 0 - - -;
#X obj 2254 522 hsl 200 15 0 1 0 0 empty empty empty -2 -8 0 10 -262144
-1 -1 0 1;
#X obj 1808 506 tabread4~ bajoL;
#X obj 1846 537 tabread4~ bajoR;
#X obj 1812 615 *~;
#X obj 1874 621 *~;
#X floatatom 2000 377 5 0 0 0 - - -;
#X obj 2179 539 vsl 15 128 0 127 0 0 empty empty empty 0 -9 0 10 -262144
-1 -1 0 1;
#N canvas 0 22 450 300 (subpatch) 0;
#X array bajoL 352801 float 2;
#X coords 0 1 352801 -1 200 140 1;
#X restore 2254 212 graph;
#N canvas 0 22 450 300 (subpatch) 0;
#X array bajoR 352801 float 2;
#X coords 0 1 352801 -1 200 140 1;
#X restore 2252 373 graph;
#X obj 1824 703 dac~ 1 2;
#X obj 2167 212 openpanel;
#X obj 2167 192 bng 15 250 50 0 empty empty empty 17 7 0 10 -262144
-1 -1;
#X msg 2123 437 0.15;
#X msg 1827 205 read \$1 bajoL bajoR;
#X msg 1828 136 open /media/jorge/Datos1/DJSarumanSesion2014ClosToreau/Bajos/8seg/120/Dm/120BPM_Analog_Bass_02_Dmin.wav
\, start;
#X floatatom 2001 281 12 0 0 0 - - -;
#X obj 2009 335 +;
#X obj 2085 305 bng 15 250 50 0 empty empty empty 17 7 0 10 -262144
-1 -1;
#X obj 1999 245 / 1000;
#N canvas 347 318 536 409 Increm.Vol.Effect2 0;
#X floatatom -243 181 5 0 0 0 - - -;
#X obj -185 176 bng 15 250 50 0 empty empty empty 17 7 0 10 -262144
-1 -1;
#X obj -187 236 f;
#X obj -260 213 spigot;
#X floatatom -269 247 5 0 0 0 - - -;
#X obj -149 204 != 255;
#X obj -226 248 bng 15 250 50 0 empty empty empty 17 7 0 10 -262144
-1 -1;
#X obj -205 268 != -255;
#X obj -242 280 f;
#X obj -294 287 spigot;
#X floatatom -287 310 5 0 0 0 - - -;
#X obj -431 -2 inlet;
#X obj -328 48 f;
#X floatatom -360 84 5 0 0 0 - - -;
#X obj -398 108 -;
#X obj -313 105 bng 15 250 50 0 empty empty empty 17 7 0 10 -262144
-1 -1;
#X obj -362 177 spigot;
#X obj -311 154 f;
#X obj -354 6 inlet;
#X obj -285 12 inlet;
#X obj -287 332 outlet;
#X obj -283 132 == 1;
#X connect 0 0 5 0;
#X connect 0 0 1 0;
#X connect 0 0 3 0;
#X connect 1 0 2 0;
#X connect 2 0 3 1;
#X connect 3 0 4 0;
#X connect 4 0 7 0;
#X connect 4 0 6 0;
#X connect 4 0 9 0;
#X connect 5 0 2 1;
#X connect 6 0 8 0;
#X connect 7 0 8 1;
#X connect 8 0 9 1;
#X connect 9 0 10 0;
#X connect 10 0 20 0;
#X connect 11 0 12 1;
#X connect 11 0 14 0;
#X connect 12 0 13 0;
#X connect 13 0 14 1;
#X connect 14 0 15 0;
#X connect 14 0 16 0;
#X connect 15 0 17 0;
#X connect 16 0 0 0;
#X connect 17 0 16 1;
#X connect 18 0 12 0;
#X connect 19 0 21 0;
#X connect 21 0 17 1;
#X restore 479 580 pd Increm.Vol.Effect2;
#N canvas 345 327 536 409 Increm.Vol.Effect3 0;
#X floatatom -243 181 5 0 0 0 - - -;
#X obj -185 176 bng 15 250 50 0 empty empty empty 17 7 0 10 -262144
-1 -1;
#X obj -187 236 f;
#X obj -260 213 spigot;
#X floatatom -269 247 5 0 0 0 - - -;
#X obj -149 204 != 255;
#X obj -226 248 bng 15 250 50 0 empty empty empty 17 7 0 10 -262144
-1 -1;
#X obj -205 268 != -255;
#X obj -242 280 f;
#X obj -294 287 spigot;
#X floatatom -287 310 5 0 0 0 - - -;
#X obj -431 -2 inlet;
#X obj -328 48 f;
#X floatatom -360 84 5 0 0 0 - - -;
#X obj -398 108 -;
#X obj -313 105 bng 15 250 50 0 empty empty empty 17 7 0 10 -262144
-1 -1;
#X obj -362 177 spigot;
#X obj -311 154 f;
#X obj -354 6 inlet;
#X obj -285 12 inlet;
#X obj -287 332 outlet;
#X obj -283 132 == 1;
#X connect 0 0 5 0;
#X connect 0 0 1 0;
#X connect 0 0 3 0;
#X connect 1 0 2 0;
#X connect 2 0 3 1;
#X connect 3 0 4 0;
#X connect 4 0 7 0;
#X connect 4 0 6 0;
#X connect 4 0 9 0;
#X connect 5 0 2 1;
#X connect 6 0 8 0;
#X connect 7 0 8 1;
#X connect 8 0 9 1;
#X connect 9 0 10 0;
#X connect 10 0 20 0;
#X connect 11 0 12 1;
#X connect 11 0 14 0;
#X connect 12 0 13 0;
#X connect 13 0 14 1;
#X connect 14 0 15 0;
#X connect 14 0 16 0;
#X connect 15 0 17 0;
#X connect 16 0 0 0;
#X connect 17 0 16 1;
#X connect 18 0 12 0;
#X connect 19 0 21 0;
#X connect 21 0 17 1;
#X restore 442 896 pd Increm.Vol.Effect3;
#X obj 1096 693 s roomsize;
#X obj 871 850 r roomsize;
#X obj 1088 880 s wet;
#X obj 938 850 r wet;
#X obj 1148 906 s dry;
#X obj 976 850 r dry;
#X text 1917 32 Comunicacion con ARDUINO: Encoder1 va al Pin 2 y 6
(extremos) Ground el del medio Encoder2 va al Pin 3 y 7 (extremos)
Ground el del medio. Interruptor4 (Un extremo a 5 volteos \, el otro
va a pin 13 y al ground con una resistencia;
#X text 924 37 Increment totale Encoder1;
#X floatatom 1551 130 5 0 0 0 - - -;
#X obj 1462 76 r Interruptor1;
#X obj 1545 53 r Interruptor2;
#X obj 1628 76 r Interruptor3;
#N canvas 840 396 450 300 SumaLogica 0;
#X obj -5089 94 +;
#X obj -5059 34 t b f;
#X obj -4995 10 t b f;
#X obj -4997 56 +;
#X obj -5118 -37 inlet;
#X obj -5072 -33 inlet;
#X obj -5007 -26 inlet;
#X obj -4982 158 outlet;
#X connect 0 0 3 0;
#X connect 1 0 0 0;
#X connect 1 1 0 1;
#X connect 2 0 3 0;
#X connect 2 1 3 1;
#X connect 3 0 7 0;
#X connect 4 0 0 0;
#X connect 5 0 1 0;
#X connect 6 0 2 0;
#X coords 0 300 1 299 85 60 0;
#X restore 1547 99 pd SumaLogica;
#X obj 1376 106 r Encoder2;
#X obj 1484 106 r bangE2;
#X text 1430 20 Increment totale Encoder2;
#N canvas 4 65 536 409 Increm.Vol.Effectb 0;
#X floatatom -243 181 5 0 0 0 - - -;
#X obj -185 176 bng 15 250 50 0 empty empty empty 17 7 0 10 -262144
-1 -1;
#X obj -187 236 f;
#X obj -260 213 spigot;
#X floatatom -269 247 5 0 0 0 - - -;
#X obj -149 204 != 255;
#X obj -226 248 bng 15 250 50 0 empty empty empty 17 7 0 10 -262144
-1 -1;
#X obj -205 268 != -255;
#X obj -242 280 f;
#X obj -294 287 spigot;
#X floatatom -287 310 5 0 0 0 - - -;
#X obj -431 -2 inlet;
#X obj -328 48 f;
#X floatatom -360 84 5 0 0 0 - - -;
#X obj -401 111 -;
#X obj -283 132 == 0;
#X obj -313 105 bng 15 250 50 0 empty empty empty 17 7 0 10 -262144
-1 -1;
#X obj -362 177 spigot;
#X obj -311 154 f;
#X obj -354 6 inlet;
#X obj -285 12 inlet;
#X obj -287 332 outlet;
#X obj -303 202 print p;
#X connect 0 0 5 0;
#X connect 0 0 1 0;
#X connect 0 0 3 0;
#X connect 1 0 2 0;
#X connect 2 0 3 1;
#X connect 3 0 4 0;
#X connect 4 0 7 0;
#X connect 4 0 6 0;
#X connect 4 0 9 0;
#X connect 5 0 2 1;
#X connect 6 0 8 0;
#X connect 7 0 8 1;
#X connect 8 0 9 1;
#X connect 9 0 10 0;
#X connect 10 0 21 0;
#X connect 11 0 12 1;
#X connect 11 0 14 0;
#X connect 12 0 13 0;
#X connect 13 0 14 1;
#X connect 14 0 16 0;
#X connect 14 0 17 0;
#X connect 15 0 18 1;
#X connect 16 0 18 0;
#X connect 17 0 0 0;
#X connect 18 0 17 1;
#X connect 18 0 22 0;
#X connect 19 0 12 0;
#X connect 20 0 15 0;
#X restore 1406 132 pd Increm.Vol.Effectb;
#X floatatom 1405 236 5 0 0 0 - - -;
#X obj 1492 189 r Interruptor4;
#N canvas 202 98 473 569 TempoTotal 0;
#X obj -191 285 +;
#X obj -245 282 \$1;
#X floatatom -194 311 5 0 0 0 - - -;
#X floatatom -247 339 5 0 0 0 - - -;
#X obj -196 332 moses 0;
#X floatatom -205 356 5 0 0 0 - - -;
#X floatatom -195 401 5 0 0 0 - - -;
#X obj -200 379 moses 255;
#X obj -199 433 / 254;
#X obj -243 467 outlet;
#X obj -242 75 inlet;
#X obj -142 82 inlet;
#X obj -216 164 spigot;
#X obj -141 104 == 0;
#X obj -179 120 f;
#X obj -192 95 bng 15 250 50 0 empty empty empty 17 7 0 10 -262144
-1 -1;
#X obj -153 152 print;
#X connect 0 0 1 0;
#X connect 0 0 2 0;
#X connect 1 0 0 1;
#X connect 2 0 4 0;
#X connect 4 0 3 0;
#X connect 4 1 5 0;
#X connect 5 0 7 0;
#X connect 6 0 8 0;
#X connect 7 0 6 0;
#X connect 8 0 9 0;
#X connect 10 0 15 0;
#X connect 10 0 12 0;
#X connect 11 0 13 0;
#X connect 12 0 0 0;
#X connect 13 0 14 1;
#X connect 14 0 12 1;
#X connect 14 0 16 0;
#X connect 15 0 14 0;
#X restore 1405 213 pd TempoTotal;
#X obj 1405 256 s TemTot;
#X obj 1405 193 r Increm2;
#X obj 1406 156 s Increm2;
#X obj 1109 291 s Increm1a;
#X obj 1141 326 r Increm1a;
#X obj 479 603 s Increm1b;
#X obj 479 657 r Increm1b;
#X obj 442 919 s Increm1c;
#X obj 442 985 r Increm1c;
#X obj 949 160 s Increm1;
#X obj 949 193 r Increm1;
#X obj 1208 571 r Increm1;
#X floatatom 1217 795 5 0 0 0 - - -;
#X obj 1279 752 r Interruptor4;
#X obj 1217 752 r Increm2;
#N canvas 202 98 473 569 Effet2 0;
#X obj -191 285 +;
#X obj -245 282 \$1;
#X floatatom -194 311 5 0 0 0 - - -;
#X floatatom -247 339 5 0 0 0 - - -;
#X obj -196 332 moses 0;
#X floatatom -205 356 5 0 0 0 - - -;
#X floatatom -195 401 5 0 0 0 - - -;
#X obj -200 379 moses 255;
#X obj -199 433 / 254;
#X obj -243 467 outlet;
#X obj -242 75 inlet;
#X obj -142 48 inlet;
#X obj -216 164 spigot;
#X obj -179 120 f;
#X obj -192 95 bng 15 250 50 0 empty empty empty 17 7 0 10 -262144
-1 -1;
#X obj -153 152 print;
#X obj -141 104 == 1;
#X connect 0 0 1 0;
#X connect 0 0 2 0;
#X connect 1 0 0 1;
#X connect 2 0 4 0;
#X connect 4 0 3 0;
#X connect 4 1 5 0;
#X connect 5 0 7 0;
#X connect 6 0 8 0;
#X connect 7 0 6 0;
#X connect 8 0 9 0;
#X connect 10 0 14 0;
#X connect 10 0 12 0;
#X connect 11 0 16 0;
#X connect 12 0 0 0;
#X connect 13 0 12 1;
#X connect 13 0 15 0;
#X connect 14 0 13 0;
#X connect 16 0 13 1;
#X restore 1218 775 pd Effet2;
#X connect 0 0 17 0;
#X connect 1 0 0 0;
#X connect 2 0 31 0;
#X connect 3 0 4 0;
#X connect 3 0 6 0;
#X connect 4 0 3 1;
#X connect 5 0 3 1;
#X connect 6 0 18 0;
#X connect 7 1 2 0;
#X connect 9 0 10 1;
#X connect 10 0 12 0;
#X connect 11 0 12 1;
#X connect 13 0 36 0;
#X connect 14 0 162 0;
#X connect 15 0 28 0;
#X connect 16 0 15 0;
#X connect 16 1 27 0;
#X connect 17 0 34 0;
#X connect 17 1 23 0;
#X connect 18 0 19 1;
#X connect 18 1 20 0;
#X connect 18 2 7 0;
#X connect 19 0 22 0;
#X connect 20 0 21 0;
#X connect 21 0 19 0;
#X connect 21 1 22 1;
#X connect 22 0 2 1;
#X connect 23 0 3 0;
#X connect 23 1 6 1;
#X connect 27 0 10 0;
#X connect 27 1 9 0;
#X connect 27 2 30 0;
#X connect 27 3 29 0;
#X connect 28 0 16 0;
#X connect 28 1 15 1;
#X connect 29 0 30 1;
#X connect 30 0 11 0;
#X connect 31 0 28 0;
#X connect 32 0 31 1;
#X connect 33 0 31 1;
#X connect 34 0 32 0;
#X connect 34 1 2 0;
#X connect 34 2 33 0;
#X connect 34 3 5 0;
#X connect 36 0 14 0;
#X connect 36 1 37 0;
#X connect 37 0 123 0;
#X connect 38 0 163 0;
#X connect 39 0 38 0;
#X connect 39 1 40 0;
#X connect 40 0 124 0;
#X connect 41 0 125 0;
#X connect 42 0 41 0;
#X connect 42 1 43 0;
#X connect 44 0 134 0;
#X connect 45 0 44 0;
#X connect 45 1 46 0;
#X connect 47 0 137 0;
#X connect 48 0 47 0;
#X connect 48 1 49 0;
#X connect 50 0 132 0;
#X connect 51 0 50 0;
#X connect 51 1 52 0;
#X connect 53 0 161 0;
#X connect 54 0 53 0;
#X connect 54 1 55 0;
#X connect 57 0 56 0;
#X connect 57 1 58 0;
#X connect 60 0 59 0;
#X connect 60 1 61 0;
#X connect 63 0 62 0;
#X connect 63 1 64 0;
#X connect 65 0 39 0;
#X connect 66 0 42 0;
#X connect 67 0 45 0;
#X connect 68 0 48 0;
#X connect 69 0 51 0;
#X connect 70 0 54 0;
#X connect 71 0 57 0;
#X connect 72 0 60 0;
#X connect 73 0 63 0;
#X connect 74 0 79 0;
#X connect 75 0 1 0;
#X connect 76 0 0 0;
#X connect 79 0 0 0;
#X connect 81 0 140 0;
#X connect 83 0 84 0;
#X connect 84 0 86 0;
#X connect 85 0 148 0;
#X connect 85 1 152 0;
#X connect 85 2 156 0;
#X connect 86 0 155 0;
#X connect 87 0 113 0;
#X connect 88 0 113 1;
#X connect 89 0 81 0;
#X connect 90 0 92 1;
#X connect 90 0 94 0;
#X connect 91 0 90 0;
#X connect 92 0 93 0;
#X connect 93 0 151 0;
#X connect 94 0 92 0;
#X connect 95 0 96 0;
#X connect 95 0 101 1;
#X connect 96 0 101 0;
#X connect 97 0 98 0;
#X connect 97 0 103 1;
#X connect 98 0 103 0;
#X connect 99 0 95 0;
#X connect 100 0 97 0;
#X connect 101 0 102 0;
#X connect 103 0 104 0;
#X connect 105 0 160 2;
#X connect 106 0 108 0;
#X connect 107 0 83 0;
#X connect 108 0 107 0;
#X connect 109 0 146 0;
#X connect 110 0 212 0;
#X connect 111 0 214 0;
#X connect 112 0 216 0;
#X connect 114 0 115 0;
#X connect 114 0 111 0;
#X connect 114 0 116 0;
#X connect 116 0 112 0;
#X connect 117 0 110 0;
#X connect 117 0 118 0;
#X connect 126 0 175 1;
#X connect 127 0 175 2;
#X connect 128 0 211 1;
#X connect 129 0 210 1;
#X connect 130 0 160 1;
#X connect 131 0 144 0;
#X connect 133 0 106 0;
#X connect 135 0 210 2;
#X connect 136 0 144 1;
#X connect 138 0 211 2;
#X connect 139 0 144 2;
#X connect 141 0 101 0;
#X connect 142 0 103 0;
#X connect 143 0 92 0;
#X connect 144 0 105 0;
#X connect 145 0 87 1;
#X connect 145 0 88 1;
#X connect 147 0 113 0;
#X connect 147 0 113 1;
#X connect 149 0 109 0;
#X connect 150 0 88 0;
#X connect 153 0 87 0;
#X connect 154 0 85 0;
#X connect 157 0 84 0;
#X connect 160 0 241 0;
#X connect 164 0 210 0;
#X connect 165 0 211 0;
#X connect 166 0 160 0;
#X connect 167 0 175 0;
#X connect 168 0 89 1;
#X connect 169 0 91 1;
#X connect 170 0 99 1;
#X connect 171 0 100 1;
#X connect 172 0 173 0;
#X connect 173 0 117 0;
#X connect 174 0 172 1;
#X connect 175 0 235 0;
#X connect 176 0 177 0;
#X connect 176 0 179 0;
#X connect 177 0 178 0;
#X connect 179 0 180 0;
#X connect 179 0 181 0;
#X connect 180 0 196 0;
#X connect 180 0 209 0;
#X connect 181 0 182 0;
#X connect 182 0 192 0;
#X connect 182 0 193 0;
#X connect 182 0 186 0;
#X connect 183 0 182 1;
#X connect 184 0 185 0;
#X connect 185 0 186 0;
#X connect 186 0 187 0;
#X connect 187 0 188 0;
#X connect 188 0 190 0;
#X connect 189 0 188 1;
#X connect 190 0 191 0;
#X connect 192 0 194 0;
#X connect 193 0 195 0;
#X connect 194 0 200 0;
#X connect 195 0 200 1;
#X connect 196 0 181 0;
#X connect 196 0 207 1;
#X connect 197 0 194 1;
#X connect 197 0 195 1;
#X connect 201 0 204 0;
#X connect 202 0 201 0;
#X connect 203 0 181 0;
#X connect 204 0 176 0;
#X connect 205 0 204 0;
#X connect 206 0 207 0;
#X connect 207 0 196 0;
#X connect 208 0 207 0;
#X connect 209 0 206 0;
#X connect 210 0 237 0;
#X connect 211 0 239 0;
#X connect 213 0 109 0;
#X connect 215 0 109 0;
#X connect 217 0 109 0;
#X connect 220 0 228 2;
#X connect 221 0 224 0;
#X connect 222 0 224 1;
#X connect 223 0 224 2;
#X connect 224 0 220 0;
#X connect 225 0 228 0;
#X connect 226 0 228 1;
#X connect 228 0 234 0;
#X connect 229 0 232 0;
#X connect 230 0 231 1;
#X connect 231 0 229 0;
#X connect 233 0 231 0;
#X connect 236 0 91 0;
#X connect 238 0 99 0;
#X connect 240 0 100 0;
#X connect 242 0 89 0;
#X connect 243 0 172 0;
#X connect 244 0 114 0;
#X connect 245 0 247 1;
#X connect 246 0 247 0;
#X connect 247 0 244 0;
