#N canvas 288 22 1094 676 10;
#X obj 30 91 comport 6 9600;
#X msg 30 57 close;
#X obj 188 323 repack;
#X obj 69 210 f;
#X obj 99 210 + 1;
#X msg 84 188 0;
#X obj 69 235 pack;
#X obj 155 297 unpack;
#X text 199 298 after that index is not necessary;
#X obj 242 472 * 128;
#X obj 215 498 +;
#X msg 269 521 symbol num\$1;
#X obj 215 538 s;
#X obj 356 59 r num0;
#X floatatom 356 121 5 0 0 0 - - -;
#X obj 201 424 list;
#X obj 188 400 t b l;
#X obj 30 113 sel 192;
#X obj 69 280 route 0 1;
#X obj 94 346 f;
#X obj 94 301 * 128;
#X obj 94 323 t b f;
#X obj 94 370 +;
#X obj 69 167 t b f;
#X text 123 210 give indices to incoming values;
#X text 307 449 reassemble split bytes;
#X text 295 500 and difuse them appropriately;
#X obj 215 450 unpack f f f f;
#X obj 188 378 list split 4;
#X obj 296 472 * 128;
#X obj 269 498 +;
#X obj 188 347 spigot;
#X msg 234 322 1;
#X msg 265 324 0;
#X obj 30 136 t b b b b;
#X text 90 136 reset counter and clear [repack];
#X obj 356 81 t f b;
#X obj 383 102 bng 15 250 50 0 empty empty empty 17 7 0 10 -262144
-1 -1;
#X floatatom 406 121 5 0 0 0 - - -;
#X obj 406 81 t f b;
#X obj 433 102 bng 15 250 50 0 empty empty empty 17 7 0 10 -262144
-1 -1;
#X floatatom 457 120 5 0 0 0 - - -;
#X obj 456 81 t f b;
#X obj 483 102 bng 15 250 50 0 empty empty empty 17 7 0 10 -262144
-1 -1;
#X floatatom 506 121 5 0 0 0 - - -;
#X obj 506 81 t f b;
#X obj 533 103 bng 15 250 50 0 empty empty empty 17 7 0 10 -262144
-1 -1;
#X floatatom 556 121 5 0 0 0 - - -;
#X obj 556 81 t f b;
#X obj 583 102 bng 15 250 50 0 empty empty empty 17 7 0 10 -262144
-1 -1;
#X floatatom 356 211 5 0 0 0 - - -;
#X obj 356 171 t f b;
#X obj 383 192 bng 15 250 50 0 empty empty empty 17 7 0 10 -262144
-1 -1;
#X floatatom 406 211 5 0 0 0 - - -;
#X obj 406 171 t f b;
#X obj 433 192 bng 15 250 50 0 empty empty empty 17 7 0 10 -262144
-1 -1;
#X floatatom 456 211 5 0 0 0 - - -;
#X obj 456 171 t f b;
#X obj 483 192 bng 15 250 50 0 empty empty empty 17 7 0 10 -262144
-1 -1;
#X floatatom 506 211 5 0 0 0 - - -;
#X obj 506 171 t f b;
#X obj 533 192 bng 15 250 50 0 empty empty empty 17 7 0 10 -262144
-1 -1;
#X floatatom 556 211 5 0 0 0 - - -;
#X obj 556 171 t f b;
#X obj 583 192 bng 15 250 50 0 empty empty empty 17 7 0 10 -262144
-1 -1;
#X obj 406 59 r num1;
#X obj 456 59 r num2;
#X obj 506 59 r num3;
#X obj 556 59 r num4;
#X obj 356 149 r num5;
#X obj 406 149 r num6;
#X obj 456 149 r num7;
#X obj 506 149 r num8;
#X obj 556 149 r num9;
#X floatatom 74 37 5 0 0 0 - - -;
#X obj 30 15 loadbang;
#X msg 128 57 devices;
#X text 77 113 0xc0 initializes transfer data array;
#X text 354 27 bangs are these to easier visualize which values changed
and which don't;
#X msg 74 57 open \$1;
#X text 74 262 first value (split in two) is number of data;
#X floatatom 617 85 5 0 0 0 - - -;
#X text 268 349 then split list in pairs of four \, which are two bytes
\, each split in two (first byte is actual value and second byte is
the value's index);
#X obj 671 574 vradio 15 1 0 8 empty empty empty 0 -8 0 10 -262144
-1 -1 0;
#X floatatom 667 703 5 0 0 0 - - -;
#X obj 669 746 readsf~ 2;
#X obj 1120 88 vradio 15 1 0 8 empty empty empty 0 -8 0 10 -262144
-1 -1 0;
#X floatatom 1180 242 5 0 0 0 - - -;
#X obj 1127 297 readsf~ 2;
#X obj 1228 32 vradio 15 1 0 8 empty empty empty 0 -8 0 10 -262144
-1 -1 0;
#X floatatom 1258 202 5 0 0 0 - - -;
#X obj 1235 241 readsf~ 2;
#N canvas 633 22 450 300 bajos 0;
#X obj 143 42 sel 1;
#X obj 141 81 sel 2;
#X obj 119 125 sel 3;
#X obj 125 192 sel 4;
#X msg 176 90 open /Users/Carlos/Desktop/PureData/SimonGouldingLiveFunkyBassGuitar/110_C_Finger_SP02.wav
\, start;
#X msg 175 144 open /Users/Carlos/Desktop/PureData/SimonGouldingLiveFunkyBassGuitar/115_G_Slap_SP01.wav
\, start;
#X msg 174 190 open /Users/Carlos/Desktop/PureData/SimonGouldingLiveFunkyBassGuitar/120_C_Fretless_SP01.wav
\, start;
#X obj 34 -21 inlet;
#X obj 30 210 outlet;
#X msg 187 40 open /Users/Carlos/Desktop/PureData/Bajos/8seg/120/Dm/120BPM_Analog_Bass_02_Dmin.wav
\, start;
#X connect 0 0 9 0;
#X connect 1 0 4 0;
#X connect 2 0 5 0;
#X connect 3 0 6 0;
#X connect 4 0 8 0;
#X connect 5 0 8 0;
#X connect 6 0 8 0;
#X connect 7 0 0 0;
#X connect 7 0 1 0;
#X connect 7 0 2 0;
#X connect 7 0 3 0;
#X connect 9 0 8 0;
#X restore 713 614 pd bajos;
#N canvas 819 108 450 300 drums 0;
#X obj 151 359 sel 1;
#X obj 149 398 sel 2;
#X obj 132 455 sel 3;
#X obj 115 507 sel 4;
#X obj 112 562 sel 5;
#X text 361 677 DRUMS2;
#X obj 123 609 sel 6;
#X obj 120 664 sel 7;
#X msg 187 610 /Users/Carlos/Desktop/PureData/Drums/8seg/120/120BPM_Accent_Perc_04.wav
\, start;
#X msg 179 508 open /Users/Carlos/Desktop/PureData/Drums/8seg/120/120BPM_Accent_Perc_04.wav
\, start;
#X msg 175 552 open /Users/Carlos/Desktop/PureData/Drums/8seg/120/120BPM_Accent_Perc_04.wav
\, start;
#X msg 191 389 open /Users/Carlos/Desktop/PureData/Drums/8seg/120/120BPM_Cool_Conga_03.wav
\, start;
#X msg 182 440 open /Users/Carlos/Desktop/PureData/Drums/8seg/120/120BPM_Full_Beat_04.wav
\, start;
#X msg 187 343 open /Users/Carlos/Desktop/PureData/Drums/2seg/120/120_BongoFill_05_Close.wav
\, start;
#X obj 86 382 inlet;
#X obj 43 748 outlet;
#X msg 183 654 open /Users/Carlos/Desktop/PureData/Drums/8seg/120BPM_Top_Perc_02.wav
\, start;
#X connect 0 0 13 0;
#X connect 1 0 11 0;
#X connect 2 0 12 0;
#X connect 3 0 9 0;
#X connect 4 0 10 0;
#X connect 6 0 8 0;
#X connect 7 0 16 0;
#X connect 8 0 15 0;
#X connect 9 0 15 0;
#X connect 10 0 15 0;
#X connect 11 0 15 0;
#X connect 12 0 15 0;
#X connect 13 0 15 0;
#X connect 14 0 0 0;
#X connect 14 0 1 0;
#X connect 14 0 2 0;
#X connect 14 0 3 0;
#X connect 14 0 4 0;
#X connect 14 0 6 0;
#X connect 14 0 7 0;
#X connect 16 0 15 0;
#X restore 1147 178 pd drums;
#N canvas 798 244 450 300 guitar 0;
#X obj 584 -11 sel 1;
#X obj 582 28 sel 2;
#X obj 565 85 sel 3;
#X obj 548 137 sel 4;
#X obj 545 192 sel 5;
#X text 794 307 DRUMS2;
#X obj 556 239 sel 6;
#X obj 553 294 sel 7;
#X msg 615 70 open /Users/Carlos/Desktop/PureData/FunkandSoulGuitar/110_Crunch_A_SP_05.wav
\, start;
#X msg 612 138 open /Users/Carlos/Desktop/PureData/FunkandSoulGuitar/115_Rhythm_E_SP_03.wav
\, start;
#X msg 608 182 open /Users/Carlos/Desktop/PureData/FunkandSoulGuitar/120_Wah_D_SP_01.wav
\, start;
#X msg 620 240 open /Users/Carlos/Desktop/PureData/FunkandSoulGuitar/125_Rhythm_G_SP_01.wavv
\, start;
#X msg 616 284 open /Users/Carlos/Desktop/PureData/FunkandSoulGuitar/130_Rhythm_C_SP_01.wav
\, start;
#X obj 427 69 inlet;
#X obj 424 150 outlet;
#X msg 620 -27 open /Users/Carlos/Desktop/PureData/Guitar/8seg/120/D/120_Wah_D_SP_01.wav
\, start;
#X msg 624 19 open /Users/Carlos/Desktop/PureData/Guitar/16seg/120/Dm/120_Dm_StTropez_SP_03.wav
\, start;
#X connect 0 0 15 0;
#X connect 1 0 16 0;
#X connect 2 0 8 0;
#X connect 3 0 9 0;
#X connect 4 0 10 0;
#X connect 6 0 11 0;
#X connect 7 0 12 0;
#X connect 8 0 14 0;
#X connect 9 0 14 0;
#X connect 10 0 14 0;
#X connect 11 0 14 0;
#X connect 12 0 14 0;
#X connect 13 0 0 0;
#X connect 13 0 1 0;
#X connect 13 0 2 0;
#X connect 13 0 3 0;
#X connect 13 0 4 0;
#X connect 13 0 6 0;
#X connect 13 0 7 0;
#X connect 15 0 14 0;
#X connect 16 0 14 0;
#X restore 1264 135 pd guitar;
#X obj 646 786 *~;
#X obj 692 783 *~;
#N canvas 757 107 367 448 VolumenTotal 0;
#X floatatom -288 119 5 0 0 0 - - -;
#X obj -230 114 bng 15 250 50 0 empty empty empty 17 7 0 10 -262144
-1 -1;
#X obj -232 174 f;
#X obj -305 151 spigot;
#X floatatom -314 185 5 0 0 0 - - -;
#X obj -194 142 != 255;
#X obj -271 186 bng 15 250 50 0 empty empty empty 17 7 0 10 -262144
-1 -1;
#X obj -250 206 != -255;
#X obj -287 218 f;
#X obj -339 225 spigot;
#X floatatom -332 248 5 0 0 0 - - -;
#X obj -318 275 +;
#X obj -372 272 \$1;
#X floatatom -321 301 5 0 0 0 - - -;
#X floatatom -374 329 5 0 0 0 - - -;
#X obj -323 322 moses 0;
#X floatatom -332 346 5 0 0 0 - - -;
#X floatatom -322 391 5 0 0 0 - - -;
#X obj -327 369 moses 255;
#X obj -326 423 / 254;
#X obj -476 -64 inlet;
#X obj -370 457 outlet;
#X obj -373 -14 f;
#X floatatom -405 22 5 0 0 0 - - -;
#X obj -446 49 -;
#X obj -328 70 == 0;
#X obj -358 43 bng 15 250 50 0 empty empty empty 17 7 0 10 -262144
-1 -1;
#X obj -407 115 spigot;
#X obj -356 92 f;
#X obj -399 -56 inlet;
#X obj -330 -50 inlet;
#X connect 0 0 5 0;
#X connect 0 0 1 0;
#X connect 0 0 3 0;
#X connect 1 0 2 0;
#X connect 2 0 3 1;
#X connect 3 0 4 0;
#X connect 4 0 7 0;
#X connect 4 0 6 0;
#X connect 4 0 9 0;
#X connect 5 0 2 1;
#X connect 6 0 8 0;
#X connect 7 0 8 1;
#X connect 8 0 9 1;
#X connect 9 0 10 0;
#X connect 10 0 11 0;
#X connect 11 0 12 0;
#X connect 11 0 13 0;
#X connect 12 0 11 1;
#X connect 13 0 15 0;
#X connect 15 0 14 0;
#X connect 15 1 16 0;
#X connect 16 0 18 0;
#X connect 17 0 19 0;
#X connect 18 0 17 0;
#X connect 19 0 21 0;
#X connect 20 0 22 1;
#X connect 20 0 24 0;
#X connect 22 0 23 0;
#X connect 23 0 24 1;
#X connect 24 0 26 0;
#X connect 24 0 27 0;
#X connect 25 0 28 1;
#X connect 26 0 28 0;
#X connect 27 0 0 0;
#X connect 28 0 27 1;
#X connect 29 0 22 0;
#X connect 30 0 25 0;
#X restore 608 49 pd VolumenTotal;
#X floatatom 542 608 5 0 0 0 - - -;
#N canvas 321 669 367 448 VolumenBucle1 1;
#X floatatom -360 58 5 0 0 0 - - -;
#X obj -302 53 bng 15 250 50 0 empty empty empty 17 7 0 10 -262144
-1 -1;
#X obj -304 113 f;
#X obj -377 90 spigot;
#X floatatom -386 124 5 0 0 0 - - -;
#X obj -266 81 != 255;
#X obj -343 125 bng 15 250 50 0 empty empty empty 17 7 0 10 -262144
-1 -1;
#X obj -322 145 != -255;
#X obj -359 157 f;
#X obj -411 164 spigot;
#X floatatom -404 187 5 0 0 0 - - -;
#X obj -390 214 +;
#X obj -443 199 \$1;
#X floatatom -393 240 5 0 0 0 - - -;
#X obj -520 230 print ValorAnterior;
#X floatatom -446 268 5 0 0 0 - - -;
#X obj -395 261 moses 0;
#X floatatom -404 285 5 0 0 0 - - -;
#X floatatom -394 330 5 0 0 0 - - -;
#X obj -399 308 moses 255;
#X obj -398 362 / 254;
#X obj -496 -84 inlet;
#X obj -442 396 outlet;
#X obj -448 -51 f;
#X floatatom -380 -9 5 0 0 0 - - -;
#X obj -438 -4 -;
#X obj -447 30 bng 15 250 50 0 empty empty empty 17 7 0 10 -262144
-1 -1;
#X obj -524 102 spigot;
#X obj -473 79 f;
#X obj -445 57 == 1;
#X text -737 -30 Este bucle controla si estamos con el primer inte-
putor (rnum2) en 1 (activado).;
#X obj -444 -82 inlet;
#X obj -393 -84 inlet;
#X connect 0 0 5 0;
#X connect 0 0 1 0;
#X connect 0 0 3 0;
#X connect 1 0 2 0;
#X connect 2 0 3 1;
#X connect 3 0 4 0;
#X connect 4 0 7 0;
#X connect 4 0 6 0;
#X connect 4 0 9 0;
#X connect 5 0 2 1;
#X connect 6 0 8 0;
#X connect 7 0 8 1;
#X connect 8 0 9 1;
#X connect 9 0 10 0;
#X connect 10 0 11 0;
#X connect 11 0 12 0;
#X connect 11 0 13 0;
#X connect 12 0 11 1;
#X connect 12 0 14 0;
#X connect 13 0 16 0;
#X connect 16 0 15 0;
#X connect 16 1 17 0;
#X connect 17 0 19 0;
#X connect 18 0 20 0;
#X connect 19 0 18 0;
#X connect 20 0 22 0;
#X connect 21 0 23 1;
#X connect 21 0 25 0;
#X connect 23 0 24 0;
#X connect 24 0 25 1;
#X connect 25 0 26 0;
#X connect 25 0 27 0;
#X connect 26 0 28 0;
#X connect 27 0 0 0;
#X connect 28 0 27 1;
#X connect 29 0 28 1;
#X connect 31 0 23 0;
#X connect 32 0 29 0;
#X restore 542 571 pd VolumenBucle1;
#X obj 572 643 *;
#X floatatom 617 664 5 0 0 0 - - -;
#X obj 592 599 bng 15 250 50 0 empty empty empty 17 7 0 10 -262144
-1 -1;
#X floatatom 827 315 5 0 0 0 - - -;
#X obj 825 339 bng 15 250 50 0 empty empty empty 17 7 0 10 -262144
-1 -1;
#X floatatom 530 868 5 0 0 0 - - -;
#X obj 580 859 bng 15 250 50 0 empty empty empty 17 7 0 10 -262144
-1 -1;
#N canvas 919 181 367 448 VolumenBucle2 0;
#X floatatom -360 58 5 0 0 0 - - -;
#X obj -302 53 bng 15 250 50 0 empty empty empty 17 7 0 10 -262144
-1 -1;
#X obj -304 113 f;
#X obj -377 90 spigot;
#X floatatom -386 124 5 0 0 0 - - -;
#X obj -266 81 != 255;
#X obj -343 125 bng 15 250 50 0 empty empty empty 17 7 0 10 -262144
-1 -1;
#X obj -322 145 != -255;
#X obj -359 157 f;
#X obj -411 164 spigot;
#X floatatom -404 187 5 0 0 0 - - -;
#X obj -390 214 +;
#X obj -443 199 \$1;
#X floatatom -393 240 5 0 0 0 - - -;
#X obj -520 230 print ValorAnterior;
#X floatatom -446 268 5 0 0 0 - - -;
#X obj -395 261 moses 0;
#X floatatom -404 285 5 0 0 0 - - -;
#X floatatom -394 330 5 0 0 0 - - -;
#X obj -399 308 moses 255;
#X obj -398 362 / 254;
#X obj -496 -84 inlet;
#X obj -442 396 outlet;
#X obj -448 -51 f;
#X floatatom -380 -9 5 0 0 0 - - -;
#X obj -438 -4 -;
#X obj -447 30 bng 15 250 50 0 empty empty empty 17 7 0 10 -262144
-1 -1;
#X obj -524 102 spigot;
#X obj -473 79 f;
#X obj -445 57 == 1;
#X text -737 -30 Este bucle controla si estamos con el primer inte-
putor (rnum2) en 1 (activado).;
#X obj -444 -82 inlet;
#X obj -393 -84 inlet;
#X connect 0 0 5 0;
#X connect 0 0 1 0;
#X connect 0 0 3 0;
#X connect 1 0 2 0;
#X connect 2 0 3 1;
#X connect 3 0 4 0;
#X connect 4 0 7 0;
#X connect 4 0 6 0;
#X connect 4 0 9 0;
#X connect 5 0 2 1;
#X connect 6 0 8 0;
#X connect 7 0 8 1;
#X connect 8 0 9 1;
#X connect 9 0 10 0;
#X connect 10 0 11 0;
#X connect 11 0 12 0;
#X connect 11 0 13 0;
#X connect 12 0 11 1;
#X connect 12 0 14 0;
#X connect 13 0 16 0;
#X connect 16 0 15 0;
#X connect 16 1 17 0;
#X connect 17 0 19 0;
#X connect 18 0 20 0;
#X connect 19 0 18 0;
#X connect 20 0 22 0;
#X connect 21 0 23 1;
#X connect 21 0 25 0;
#X connect 23 0 24 0;
#X connect 24 0 25 1;
#X connect 25 0 26 0;
#X connect 25 0 27 0;
#X connect 26 0 28 0;
#X connect 27 0 0 0;
#X connect 28 0 27 1;
#X connect 29 0 28 1;
#X connect 31 0 23 0;
#X connect 32 0 29 0;
#X restore 827 278 pd VolumenBucle2;
#N canvas 906 22 367 448 VolumenBucle3 1;
#X floatatom -360 58 5 0 0 0 - - -;
#X obj -302 53 bng 15 250 50 0 empty empty empty 17 7 0 10 -262144
-1 -1;
#X obj -304 113 f;
#X obj -377 90 spigot;
#X floatatom -386 124 5 0 0 0 - - -;
#X obj -266 81 != 255;
#X obj -343 125 bng 15 250 50 0 empty empty empty 17 7 0 10 -262144
-1 -1;
#X obj -322 145 != -255;
#X obj -359 157 f;
#X obj -411 164 spigot;
#X floatatom -404 187 5 0 0 0 - - -;
#X obj -390 214 +;
#X obj -443 199 \$1;
#X floatatom -393 240 5 0 0 0 - - -;
#X obj -520 230 print ValorAnterior;
#X floatatom -446 268 5 0 0 0 - - -;
#X obj -395 261 moses 0;
#X floatatom -404 285 5 0 0 0 - - -;
#X floatatom -394 330 5 0 0 0 - - -;
#X obj -399 308 moses 255;
#X obj -398 362 / 254;
#X obj -496 -84 inlet;
#X obj -442 396 outlet;
#X obj -448 -51 f;
#X floatatom -380 -9 5 0 0 0 - - -;
#X obj -438 -4 -;
#X obj -447 30 bng 15 250 50 0 empty empty empty 17 7 0 10 -262144
-1 -1;
#X obj -524 102 spigot;
#X obj -473 79 f;
#X obj -445 57 == 1;
#X text -737 -30 Este bucle controla si estamos con el primer inte-
putor (rnum2) en 1 (activado).;
#X obj -444 -82 inlet;
#X obj -393 -84 inlet;
#X connect 0 0 5 0;
#X connect 0 0 1 0;
#X connect 0 0 3 0;
#X connect 1 0 2 0;
#X connect 2 0 3 1;
#X connect 3 0 4 0;
#X connect 4 0 7 0;
#X connect 4 0 6 0;
#X connect 4 0 9 0;
#X connect 5 0 2 1;
#X connect 6 0 8 0;
#X connect 7 0 8 1;
#X connect 8 0 9 1;
#X connect 9 0 10 0;
#X connect 10 0 11 0;
#X connect 11 0 12 0;
#X connect 11 0 13 0;
#X connect 12 0 11 1;
#X connect 12 0 14 0;
#X connect 13 0 16 0;
#X connect 16 0 15 0;
#X connect 16 1 17 0;
#X connect 17 0 19 0;
#X connect 18 0 20 0;
#X connect 19 0 18 0;
#X connect 20 0 22 0;
#X connect 21 0 23 1;
#X connect 21 0 25 0;
#X connect 23 0 24 0;
#X connect 24 0 25 1;
#X connect 25 0 26 0;
#X connect 25 0 27 0;
#X connect 26 0 28 0;
#X connect 27 0 0 0;
#X connect 28 0 27 1;
#X connect 29 0 28 1;
#X connect 31 0 23 0;
#X connect 32 0 29 0;
#X restore 530 831 pd VolumenBucle3;
#X obj 910 357 *;
#X floatatom 922 390 5 0 0 0 - - -;
#X obj 673 851 *;
#X floatatom 672 883 5 0 0 0 - - -;
#X floatatom 730 28 5 0 0 0 - - -;
#X obj 36 462 bng 15 250 50 0 empty empty empty 17 7 0 10 -262144 -1
-1;
#X obj 32 503 t b b;
#X msg 59 532 5;
#X msg 23 531 3;
#X obj 29 556 +;
#X floatatom 30 597 5 0 0 0 - - -;
#X obj 710 154 +;
#X obj 694 113 t b f;
#X obj 753 63 t b f;
#X obj 751 109 +;
#X floatatom 701 11 5 0 0 0 - - -;
#X connect 0 0 17 0;
#X connect 1 0 0 0;
#X connect 2 0 31 0;
#X connect 3 0 4 0;
#X connect 3 0 6 0;
#X connect 4 0 3 1;
#X connect 5 0 3 1;
#X connect 6 0 18 0;
#X connect 7 1 2 0;
#X connect 9 0 10 1;
#X connect 10 0 12 0;
#X connect 11 0 12 1;
#X connect 13 0 36 0;
#X connect 14 0 97 0;
#X connect 14 0 99 0;
#X connect 14 0 108 0;
#X connect 14 0 107 0;
#X connect 15 0 28 0;
#X connect 16 0 15 0;
#X connect 16 1 27 0;
#X connect 17 0 34 0;
#X connect 17 1 23 0;
#X connect 18 0 19 1;
#X connect 18 1 20 0;
#X connect 18 2 7 0;
#X connect 19 0 22 0;
#X connect 20 0 21 0;
#X connect 21 0 19 0;
#X connect 21 1 22 1;
#X connect 22 0 2 1;
#X connect 23 0 3 0;
#X connect 23 1 6 1;
#X connect 27 0 10 0;
#X connect 27 1 9 0;
#X connect 27 2 30 0;
#X connect 27 3 29 0;
#X connect 28 0 16 0;
#X connect 28 1 15 1;
#X connect 29 0 30 1;
#X connect 30 0 11 0;
#X connect 31 0 28 0;
#X connect 32 0 31 1;
#X connect 33 0 31 1;
#X connect 34 0 32 0;
#X connect 34 1 2 0;
#X connect 34 2 33 0;
#X connect 34 3 5 0;
#X connect 36 0 14 0;
#X connect 36 1 37 0;
#X connect 37 0 97 1;
#X connect 37 0 99 1;
#X connect 37 0 108 1;
#X connect 37 0 107 1;
#X connect 39 0 38 0;
#X connect 39 1 40 0;
#X connect 41 0 99 2;
#X connect 41 0 120 0;
#X connect 42 0 41 0;
#X connect 42 1 43 0;
#X connect 44 0 107 2;
#X connect 44 0 121 0;
#X connect 45 0 44 0;
#X connect 45 1 46 0;
#X connect 47 0 108 2;
#X connect 47 0 122 0;
#X connect 48 0 47 0;
#X connect 48 1 49 0;
#X connect 51 0 50 0;
#X connect 51 1 52 0;
#X connect 54 0 53 0;
#X connect 54 1 55 0;
#X connect 57 0 56 0;
#X connect 57 1 58 0;
#X connect 60 0 59 0;
#X connect 60 1 61 0;
#X connect 63 0 62 0;
#X connect 63 1 64 0;
#X connect 65 0 39 0;
#X connect 66 0 42 0;
#X connect 67 0 45 0;
#X connect 68 0 48 0;
#X connect 69 0 51 0;
#X connect 70 0 54 0;
#X connect 71 0 57 0;
#X connect 72 0 60 0;
#X connect 73 0 63 0;
#X connect 74 0 79 0;
#X connect 75 0 1 0;
#X connect 76 0 0 0;
#X connect 79 0 0 0;
#X connect 81 0 100 0;
#X connect 81 0 109 0;
#X connect 81 0 111 0;
#X connect 83 0 84 0;
#X connect 84 0 92 0;
#X connect 85 0 96 0;
#X connect 85 1 95 0;
#X connect 85 2 84 0;
#X connect 86 0 87 0;
#X connect 87 0 93 0;
#X connect 88 2 87 0;
#X connect 89 0 90 0;
#X connect 90 0 94 0;
#X connect 91 2 90 0;
#X connect 92 0 85 0;
#X connect 93 0 88 0;
#X connect 94 0 91 0;
#X connect 97 0 81 0;
#X connect 98 0 100 1;
#X connect 98 0 102 0;
#X connect 99 0 98 0;
#X connect 100 0 101 0;
#X connect 101 0 96 1;
#X connect 101 0 95 1;
#X connect 102 0 100 0;
#X connect 103 0 104 0;
#X connect 103 0 109 1;
#X connect 104 0 109 0;
#X connect 105 0 106 0;
#X connect 105 0 111 1;
#X connect 106 0 111 0;
#X connect 107 0 103 0;
#X connect 108 0 105 0;
#X connect 109 0 110 0;
#X connect 111 0 112 0;
#X connect 113 0 123 0;
#X connect 114 0 115 0;
#X connect 115 0 117 0;
#X connect 115 1 116 0;
#X connect 116 0 118 1;
#X connect 117 0 118 0;
#X connect 118 0 119 0;
#X connect 120 0 113 0;
#X connect 121 0 120 0;
#X connect 121 1 120 1;
#X connect 122 0 123 0;
#X connect 122 1 123 1;
#X connect 123 0 124 0;
#X connect 124 0 97 2;
