#N canvas 1 89 1351 654 10;
#X obj 30 91 comport 6 9600;
#X msg 30 57 close;
#X obj 188 323 repack;
#X obj 69 210 f;
#X obj 99 210 + 1;
#X msg 84 188 0;
#X obj 69 235 pack;
#X obj 155 297 unpack;
#X text 199 298 after that index is not necessary;
#X obj 242 472 * 128;
#X obj 215 498 +;
#X msg 269 521 symbol num\$1;
#X obj 215 538 s;
#X obj 356 59 r num0;
#X floatatom 356 121 5 0 0 0 - - -;
#X obj 201 424 list;
#X obj 188 400 t b l;
#X obj 30 113 sel 192;
#X obj 69 280 route 0 1;
#X obj 94 346 f;
#X obj 94 301 * 128;
#X obj 94 323 t b f;
#X obj 94 370 +;
#X obj 69 167 t b f;
#X text 123 210 give indices to incoming values;
#X text 307 449 reassemble split bytes;
#X text 295 500 and difuse them appropriately;
#X obj 215 450 unpack f f f f;
#X obj 188 378 list split 4;
#X obj 296 472 * 128;
#X obj 269 498 +;
#X obj 188 347 spigot;
#X msg 234 322 1;
#X msg 265 324 0;
#X obj 30 136 t b b b b;
#X text 90 136 reset counter and clear [repack];
#X obj 356 81 t f b;
#X obj 383 102 bng 15 250 50 0 empty empty empty 17 7 0 10 -262144
-1 -1;
#X floatatom 463 122 5 0 0 0 - - -;
#X obj 463 82 t f b;
#X obj 490 103 bng 15 250 50 0 empty empty empty 17 7 0 10 -262144
-1 -1;
#X floatatom 573 122 5 0 0 0 - - -;
#X obj 571 83 t f b;
#X obj 598 104 bng 15 250 50 0 empty empty empty 17 7 0 10 -262144
-1 -1;
#X floatatom 652 121 5 0 0 0 - - -;
#X obj 652 84 t f b;
#X obj 679 106 bng 15 250 50 0 empty empty empty 17 7 0 10 -262144
-1 -1;
#X floatatom 787 117 5 0 0 0 - - -;
#X obj 787 78 t f b;
#X obj 814 99 bng 15 250 50 0 empty empty empty 17 7 0 10 -262144 -1
-1;
#X floatatom 347 241 5 0 0 0 - - -;
#X obj 347 201 t f b;
#X obj 374 222 bng 15 250 50 0 empty empty empty 17 7 0 10 -262144
-1 -1;
#X floatatom 456 243 5 0 0 0 - - -;
#X obj 458 202 t f b;
#X obj 485 223 bng 15 250 50 0 empty empty empty 17 7 0 10 -262144
-1 -1;
#X floatatom 574 243 5 0 0 0 - - -;
#X obj 574 203 t f b;
#X obj 601 224 bng 15 250 50 0 empty empty empty 17 7 0 10 -262144
-1 -1;
#X floatatom 650 243 5 0 0 0 - - -;
#X obj 650 203 t f b;
#X obj 677 224 bng 15 250 50 0 empty empty empty 17 7 0 10 -262144
-1 -1;
#X floatatom 744 245 5 0 0 0 - - -;
#X obj 744 205 t f b;
#X obj 771 226 bng 15 250 50 0 empty empty empty 17 7 0 10 -262144
-1 -1;
#X obj 463 60 r num1;
#X obj 571 61 r num2;
#X obj 652 62 r num3;
#X obj 787 56 r num4;
#X obj 347 179 r num5;
#X obj 458 180 r num6;
#X obj 574 181 r num7;
#X obj 650 181 r num8;
#X obj 744 183 r num9;
#X floatatom 74 37 5 0 0 0 - - -;
#X obj 30 15 loadbang;
#X msg 128 57 devices;
#X text 77 113 0xc0 initializes transfer data array;
#X text 339 17 bangs are these to easier visualize which values changed
and which don't;
#X msg 74 57 open \$1;
#X text 74 262 first value (split in two) is number of data;
#X floatatom 949 211 5 0 0 0 - - -;
#X text 268 349 then split list in pairs of four \, which are two bytes
\, each split in two (first byte is actual value and second byte is
the value's index);
#X obj 1470 478 vradio 15 1 0 8 empty empty empty 0 -8 0 10 -262144
-1 -1 2;
#X floatatom 1466 607 5 0 0 0 - - -;
#X obj 1613 414 readsf~ 2;
#N canvas 631 89 450 300 bajos 0;
#X obj 143 42 sel 1;
#X obj 141 81 sel 2;
#X obj 119 125 sel 3;
#X obj 125 192 sel 4;
#X msg 176 90 open /Users/Carlos/Desktop/PureData/SimonGouldingLiveFunkyBassGuitar/110_C_Finger_SP02.wav
\, start;
#X msg 175 144 open /Users/Carlos/Desktop/PureData/SimonGouldingLiveFunkyBassGuitar/115_G_Slap_SP01.wav
\, start;
#X msg 174 190 open /Users/Carlos/Desktop/PureData/SimonGouldingLiveFunkyBassGuitar/120_C_Fretless_SP01.wav
\, start;
#X obj 34 -21 inlet;
#X obj 30 210 outlet;
#X msg 187 40 open /Users/Carlos/Desktop/PureData/Bajos/8seg/120/Dm/120BPM_Analog_Bass_02_Dmin.wav
\, start;
#X connect 0 0 9 0;
#X connect 1 0 4 0;
#X connect 2 0 5 0;
#X connect 3 0 6 0;
#X connect 4 0 8 0;
#X connect 5 0 8 0;
#X connect 6 0 8 0;
#X connect 7 0 0 0;
#X connect 7 0 1 0;
#X connect 7 0 2 0;
#X connect 7 0 3 0;
#X connect 9 0 8 0;
#X restore 1465 629 pd bajos;
#X obj 1639 598 *~;
#X obj 1685 595 *~;
#N canvas 202 98 473 569 VolumenTotal 0;
#X obj -191 285 +;
#X obj -245 282 \$1;
#X floatatom -194 311 5 0 0 0 - - -;
#X floatatom -247 339 5 0 0 0 - - -;
#X obj -196 332 moses 0;
#X floatatom -205 356 5 0 0 0 - - -;
#X floatatom -195 401 5 0 0 0 - - -;
#X obj -200 379 moses 255;
#X obj -199 433 / 254;
#X obj -243 467 outlet;
#X obj -242 75 inlet;
#X obj -142 82 inlet;
#X obj -216 164 spigot;
#X obj -142 104 == 0;
#X obj -179 120 f;
#X obj -192 95 bng 15 250 50 0 empty empty empty 17 7 0 10 -262144
-1 -1;
#X obj -153 152 print;
#X connect 0 0 1 0;
#X connect 0 0 2 0;
#X connect 1 0 0 1;
#X connect 2 0 4 0;
#X connect 4 0 3 0;
#X connect 4 1 5 0;
#X connect 5 0 7 0;
#X connect 6 0 8 0;
#X connect 7 0 6 0;
#X connect 8 0 9 0;
#X connect 10 0 15 0;
#X connect 10 0 12 0;
#X connect 11 0 13 0;
#X connect 12 0 0 0;
#X connect 13 0 14 1;
#X connect 14 0 12 1;
#X connect 14 0 16 0;
#X connect 15 0 14 0;
#X restore 949 188 pd VolumenTotal;
#X floatatom 1141 384 5 0 0 0 - - -;
#N canvas 186 161 475 515 VolumenBucle1 1;
#X obj -390 214 +;
#X obj -443 199 \$1;
#X floatatom -393 240 5 0 0 0 - - -;
#X obj -520 230 print ValorAnterior;
#X floatatom -446 268 5 0 0 0 - - -;
#X obj -395 261 moses 0;
#X floatatom -404 285 5 0 0 0 - - -;
#X floatatom -394 330 5 0 0 0 - - -;
#X obj -399 308 moses 255;
#X obj -398 362 / 254;
#X obj -442 396 outlet;
#X obj -675 63 inlet;
#X obj -575 70 inlet;
#X obj -649 152 spigot;
#X obj -575 92 == 0;
#X obj -612 108 f;
#X obj -625 83 bng 15 250 50 0 empty empty empty 17 7 0 10 -262144
-1 -1;
#X obj -586 140 print;
#X connect 0 0 1 0;
#X connect 0 0 2 0;
#X connect 1 0 0 1;
#X connect 1 0 3 0;
#X connect 2 0 5 0;
#X connect 5 0 4 0;
#X connect 5 1 6 0;
#X connect 6 0 8 0;
#X connect 7 0 9 0;
#X connect 8 0 7 0;
#X connect 9 0 10 0;
#X connect 11 0 16 0;
#X connect 11 0 13 0;
#X connect 12 0 14 0;
#X connect 13 0 0 0;
#X connect 14 0 15 1;
#X connect 15 0 13 1;
#X connect 15 0 17 0;
#X connect 16 0 15 0;
#X restore 1141 347 pd VolumenBucle1;
#X obj 1152 440 *;
#X floatatom 1216 440 5 0 0 0 - - -;
#X obj 1191 375 bng 15 250 50 0 empty empty empty 17 7 0 10 -262144
-1 -1;
#X floatatom 482 663 5 0 0 0 - - -;
#X obj 480 687 bng 15 250 50 0 empty empty empty 17 7 0 10 -262144
-1 -1;
#X floatatom 507 861 5 0 0 0 - - -;
#X obj 557 852 bng 15 250 50 0 empty empty empty 17 7 0 10 -262144
-1 -1;
#N canvas 663 161 466 504 VolumenBucle2 1;
#X obj -400 159 +;
#X obj -334 229 \$1;
#X obj -293 148 print ValorAnterior;
#X floatatom -394 330 5 0 0 0 - - -;
#X obj -399 308 moses 255;
#X obj -398 362 / 254;
#X obj -442 396 outlet;
#X obj -665 73 inlet;
#X obj -565 63 inlet;
#X obj -639 162 spigot;
#X obj -602 118 f;
#X obj -615 93 bng 15 250 50 0 empty empty empty 17 7 0 10 -262144
-1 -1;
#X obj -565 102 == 0;
#X floatatom -402 207 5 -1 0 0 - - -;
#X floatatom -521 244 5 0 0 0 - - -;
#X obj -470 237 moses 0;
#X floatatom -479 261 5 0 0 0 - - -;
#X connect 0 0 1 0;
#X connect 0 0 13 0;
#X connect 1 0 0 1;
#X connect 1 0 2 0;
#X connect 3 0 5 0;
#X connect 4 0 3 0;
#X connect 5 0 6 0;
#X connect 7 0 11 0;
#X connect 7 0 9 0;
#X connect 8 0 12 0;
#X connect 9 0 0 0;
#X connect 10 0 9 1;
#X connect 11 0 10 0;
#X connect 12 0 10 1;
#X connect 13 0 15 0;
#X connect 15 0 14 0;
#X connect 15 1 16 0;
#X connect 16 0 4 0;
#X restore 481 640 pd VolumenBucle2;
#N canvas 902 154 367 448 VolumenBucle3 1;
#X obj -390 214 +;
#X obj -443 199 \$1;
#X floatatom -393 240 5 0 0 0 - - -;
#X obj -520 230 print ValorAnterior;
#X floatatom -446 268 5 0 0 0 - - -;
#X obj -395 261 moses 0;
#X floatatom -404 285 5 0 0 0 - - -;
#X floatatom -394 330 5 0 0 0 - - -;
#X obj -399 308 moses 255;
#X obj -398 362 / 254;
#X obj -442 396 outlet;
#X text -737 -30 Este bucle controla si estamos con el primer inte-
putor (rnum2) en 1 (activado).;
#X obj -655 83 inlet;
#X obj -555 73 inlet;
#X obj -629 172 spigot;
#X obj -592 128 f;
#X obj -605 103 bng 15 250 50 0 empty empty empty 17 7 0 10 -262144
-1 -1;
#X obj -555 112 == 0;
#X connect 0 0 1 0;
#X connect 0 0 2 0;
#X connect 1 0 0 1;
#X connect 1 0 3 0;
#X connect 2 0 5 0;
#X connect 5 0 4 0;
#X connect 5 1 6 0;
#X connect 6 0 8 0;
#X connect 7 0 9 0;
#X connect 8 0 7 0;
#X connect 9 0 10 0;
#X connect 12 0 16 0;
#X connect 12 0 14 0;
#X connect 13 0 17 0;
#X connect 14 0 0 0;
#X connect 15 0 14 1;
#X connect 16 0 15 0;
#X connect 17 0 15 1;
#X restore 506 831 pd VolumenBucle3;
#X obj 565 705 *;
#X floatatom 577 738 5 0 0 0 - - -;
#X obj 494 912 *;
#X floatatom 493 944 5 0 0 0 - - -;
#X floatatom 1094 134 5 0 0 0 - - -;
#X obj 1469 412 / 254;
#X floatatom 1469 457 5 0 0 0 - - -;
#X obj 1469 436 * 7;
#X obj 1013 777 freeverb~;
#X msg 1093 602 roomsize \$1;
#X msg 1092 663 damping \$1;
#X msg 1088 733 wet \$1;
#X msg 1087 754 dry \$1;
#X obj 1656 649 dac~;
#X obj 1220 696 hsl 128 15 0 1 0 0 empty empty empty -2 -8 0 10 -4032
-1 -1 0 1;
#X floatatom 1217 715 5 0 0 0 - - -;
#X obj 1148 737 expr 1-$f1;
#X obj 1218 581 hsl 128 15 0 1 0 0 empty empty empty -2 -8 0 10 -4034
-1 -1 0 1;
#X obj 1220 638 hsl 128 15 0 1 0 0 empty empty empty -2 -8 0 10 -260097
-1 -1 0 1;
#X floatatom 1217 658 5 0 0 0 - - -;
#X floatatom 1215 606 5 0 0 0 - - -;
#X text 1267 723 Wet signal to dry signal ratio;
#X text 1267 739 (0 : all dry \, 1 : all wet);
#X text 1268 658 Damping level;
#X text 1267 604 Roomize;
#X text 1112 825 Pierre Massat \, GuitarExtended \, 2012;
#X obj 390 122 s bangE1;
#X obj 498 123 s bangE2;
#X obj 545 144 s Interruptor1;
#X obj 1176 230 r bangE1;
#X obj 1230 231 r Interruptor1;
#X obj 510 766 r bangE1;
#X obj 549 534 r bangE1;
#X obj 1027 110 r bangE1;
#X obj 1005 80 r Interruptor1;
#X obj 347 263 s Pot1;
#X obj 1469 392 r Pot1;
#X obj 638 145 s Interruptor2;
#X obj 613 535 r Interruptor2;
#X obj 1088 57 r Interruptor2;
#X obj 747 145 s Interruptor3;
#X obj 569 766 r Interruptor3;
#X obj 1171 80 r Interruptor3;
#X obj 949 231 s VolTot;
#X obj 551 679 r VolTot;
#X obj 449 888 r VolTot;
#X obj 1085 415 r VolTot;
#N canvas 840 396 450 300 SumaLogica 0;
#X obj -5089 94 +;
#X obj -5059 34 t b f;
#X obj -4995 10 t b f;
#X obj -4997 56 +;
#X obj -5118 -37 inlet;
#X obj -5072 -33 inlet;
#X obj -5007 -26 inlet;
#X obj -4982 158 outlet;
#X connect 0 0 3 0;
#X connect 1 0 0 0;
#X connect 1 1 0 1;
#X connect 2 0 3 0;
#X connect 2 1 3 1;
#X connect 3 0 7 0;
#X connect 4 0 0 0;
#X connect 5 0 1 0;
#X connect 6 0 2 0;
#X coords 0 300 1 299 85 60 0;
#X restore 1090 103 pd SumaLogica;
#X text 955 11 Loop qui va côntroller le volume total de notre instrument
;
#X obj 1563 537 r Vol1a;
#X obj 1013 804 s~ Effect;
#X obj 1698 618 r~ Effect;
#X obj 1568 435 s~ readsf;
#X obj 964 749 r~ readsf;
#X obj 1677 567 r~ readsf;
#X obj 1185 476 s Vol1;
#X obj 1627 434 s~ readsf2;
#X obj 1619 531 r~ readsf2;
#X obj 1613 390 r bajos;
#X obj 1467 653 s bajos;
#X obj 1678 412 s readsf3;
#X obj 1396 581 r readsf3;
#X text 1123 208 Côntrolle de volume du loop 1;
#X text 1125 552 Côntrolle de l'effet du loop 1;
#X floatatom 873 545 5 0 0 0 - - -;
#X obj 872 508 r Encoder1Eff;
#N canvas 341 107 536 409 Increm.Vol.Effect 0;
#X floatatom -243 181 5 0 0 0 - - -;
#X obj -185 176 bng 15 250 50 0 empty empty empty 17 7 0 10 -262144
-1 -1;
#X obj -187 236 f;
#X obj -260 213 spigot;
#X floatatom -269 247 5 0 0 0 - - -;
#X obj -149 204 != 255;
#X obj -226 248 bng 15 250 50 0 empty empty empty 17 7 0 10 -262144
-1 -1;
#X obj -205 268 != -255;
#X obj -242 280 f;
#X obj -294 287 spigot;
#X floatatom -287 310 5 0 0 0 - - -;
#X obj -431 -2 inlet;
#X obj -328 48 f;
#X floatatom -360 84 5 0 0 0 - - -;
#X obj -401 111 -;
#X obj -283 132 == 0;
#X obj -313 105 bng 15 250 50 0 empty empty empty 17 7 0 10 -262144
-1 -1;
#X obj -362 177 spigot;
#X obj -311 154 f;
#X obj -354 6 inlet;
#X obj -285 12 inlet;
#X obj -287 332 outlet;
#X connect 0 0 5 0;
#X connect 0 0 1 0;
#X connect 0 0 3 0;
#X connect 1 0 2 0;
#X connect 2 0 3 1;
#X connect 3 0 4 0;
#X connect 4 0 7 0;
#X connect 4 0 6 0;
#X connect 4 0 9 0;
#X connect 5 0 2 1;
#X connect 6 0 8 0;
#X connect 7 0 8 1;
#X connect 8 0 9 1;
#X connect 9 0 10 0;
#X connect 10 0 21 0;
#X connect 11 0 12 1;
#X connect 11 0 14 0;
#X connect 12 0 13 0;
#X connect 13 0 14 1;
#X connect 14 0 16 0;
#X connect 14 0 17 0;
#X connect 15 0 18 1;
#X connect 16 0 18 0;
#X connect 17 0 0 0;
#X connect 18 0 17 1;
#X connect 19 0 12 0;
#X connect 20 0 15 0;
#X restore 949 136 pd Increm.Vol.Effect;
#X obj 455 265 s Interruptor4;
#X obj 320 141 s Encoder1;
#X obj 436 143 s Encoder2;
#X obj 479 533 r Encoder1;
#X obj 430 766 r Encoder1;
#X obj 919 110 r Encoder1;
#X obj 1092 230 r Encoder1;
#X text 1254 -2 comment;
#N canvas 353 291 536 409 Increm.Vol.Effect 1;
#X floatatom -243 181 5 0 0 0 - - -;
#X obj -185 176 bng 15 250 50 0 empty empty empty 17 7 0 10 -262144
-1 -1;
#X obj -187 236 f;
#X obj -260 213 spigot;
#X floatatom -269 247 5 0 0 0 - - -;
#X obj -149 204 != 255;
#X obj -226 248 bng 15 250 50 0 empty empty empty 17 7 0 10 -262144
-1 -1;
#X obj -205 268 != -255;
#X obj -242 280 f;
#X obj -294 287 spigot;
#X floatatom -287 310 5 0 0 0 - - -;
#X obj -431 -2 inlet;
#X obj -328 48 f;
#X floatatom -360 84 5 0 0 0 - - -;
#X obj -398 108 -;
#X obj -313 105 bng 15 250 50 0 empty empty empty 17 7 0 10 -262144
-1 -1;
#X obj -362 177 spigot;
#X obj -311 154 f;
#X obj -354 6 inlet;
#X obj -285 12 inlet;
#X obj -287 332 outlet;
#X obj -283 132 == 1;
#X connect 0 0 5 0;
#X connect 0 0 1 0;
#X connect 0 0 3 0;
#X connect 1 0 2 0;
#X connect 2 0 3 1;
#X connect 3 0 4 0;
#X connect 4 0 7 0;
#X connect 4 0 6 0;
#X connect 4 0 9 0;
#X connect 5 0 2 1;
#X connect 6 0 8 0;
#X connect 7 0 8 1;
#X connect 8 0 9 1;
#X connect 9 0 10 0;
#X connect 10 0 20 0;
#X connect 11 0 12 1;
#X connect 11 0 14 0;
#X connect 12 0 13 0;
#X connect 13 0 14 1;
#X connect 14 0 15 0;
#X connect 14 0 16 0;
#X connect 15 0 17 0;
#X connect 16 0 0 0;
#X connect 17 0 16 1;
#X connect 18 0 12 0;
#X connect 19 0 21 0;
#X connect 21 0 17 1;
#X restore 1109 266 pd Increm.Vol.Effect;
#X obj 1036 164 r Interruptor4;
#X obj 1234 301 r Interruptor4;
#N canvas 347 318 536 409 Increm.Vol.Effect 0;
#X floatatom -243 181 5 0 0 0 - - -;
#X obj -185 176 bng 15 250 50 0 empty empty empty 17 7 0 10 -262144
-1 -1;
#X obj -187 236 f;
#X obj -260 213 spigot;
#X floatatom -269 247 5 0 0 0 - - -;
#X obj -149 204 != 255;
#X obj -226 248 bng 15 250 50 0 empty empty empty 17 7 0 10 -262144
-1 -1;
#X obj -205 268 != -255;
#X obj -242 280 f;
#X obj -294 287 spigot;
#X floatatom -287 310 5 0 0 0 - - -;
#X obj -431 -2 inlet;
#X obj -328 48 f;
#X floatatom -360 84 5 0 0 0 - - -;
#X obj -398 108 -;
#X obj -313 105 bng 15 250 50 0 empty empty empty 17 7 0 10 -262144
-1 -1;
#X obj -362 177 spigot;
#X obj -311 154 f;
#X obj -354 6 inlet;
#X obj -285 12 inlet;
#X obj -287 332 outlet;
#X obj -283 132 == 1;
#X connect 0 0 5 0;
#X connect 0 0 1 0;
#X connect 0 0 3 0;
#X connect 1 0 2 0;
#X connect 2 0 3 1;
#X connect 3 0 4 0;
#X connect 4 0 7 0;
#X connect 4 0 6 0;
#X connect 4 0 9 0;
#X connect 5 0 2 1;
#X connect 6 0 8 0;
#X connect 7 0 8 1;
#X connect 8 0 9 1;
#X connect 9 0 10 0;
#X connect 10 0 20 0;
#X connect 11 0 12 1;
#X connect 11 0 14 0;
#X connect 12 0 13 0;
#X connect 13 0 14 1;
#X connect 14 0 15 0;
#X connect 14 0 16 0;
#X connect 15 0 17 0;
#X connect 16 0 0 0;
#X connect 17 0 16 1;
#X connect 18 0 12 0;
#X connect 19 0 21 0;
#X connect 21 0 17 1;
#X restore 479 580 pd Increm.Vol.Effect;
#X obj 578 606 r Interruptor4;
#N canvas 345 327 536 409 Increm.Vol.Effect 0;
#X floatatom -243 181 5 0 0 0 - - -;
#X obj -185 176 bng 15 250 50 0 empty empty empty 17 7 0 10 -262144
-1 -1;
#X obj -187 236 f;
#X obj -260 213 spigot;
#X floatatom -269 247 5 0 0 0 - - -;
#X obj -149 204 != 255;
#X obj -226 248 bng 15 250 50 0 empty empty empty 17 7 0 10 -262144
-1 -1;
#X obj -205 268 != -255;
#X obj -242 280 f;
#X obj -294 287 spigot;
#X floatatom -287 310 5 0 0 0 - - -;
#X obj -431 -2 inlet;
#X obj -328 48 f;
#X floatatom -360 84 5 0 0 0 - - -;
#X obj -398 108 -;
#X obj -313 105 bng 15 250 50 0 empty empty empty 17 7 0 10 -262144
-1 -1;
#X obj -362 177 spigot;
#X obj -311 154 f;
#X obj -354 6 inlet;
#X obj -285 12 inlet;
#X obj -287 332 outlet;
#X obj -283 132 == 1;
#X connect 0 0 5 0;
#X connect 0 0 1 0;
#X connect 0 0 3 0;
#X connect 1 0 2 0;
#X connect 2 0 3 1;
#X connect 3 0 4 0;
#X connect 4 0 7 0;
#X connect 4 0 6 0;
#X connect 4 0 9 0;
#X connect 5 0 2 1;
#X connect 6 0 8 0;
#X connect 7 0 8 1;
#X connect 8 0 9 1;
#X connect 9 0 10 0;
#X connect 10 0 20 0;
#X connect 11 0 12 1;
#X connect 11 0 14 0;
#X connect 12 0 13 0;
#X connect 13 0 14 1;
#X connect 14 0 15 0;
#X connect 14 0 16 0;
#X connect 15 0 17 0;
#X connect 16 0 0 0;
#X connect 17 0 16 1;
#X connect 18 0 12 0;
#X connect 19 0 21 0;
#X connect 21 0 17 1;
#X restore 451 796 pd Increm.Vol.Effect;
#X obj 595 792 r Interruptor4;
#X connect 0 0 17 0;
#X connect 1 0 0 0;
#X connect 2 0 31 0;
#X connect 3 0 4 0;
#X connect 3 0 6 0;
#X connect 4 0 3 1;
#X connect 5 0 3 1;
#X connect 6 0 18 0;
#X connect 7 1 2 0;
#X connect 9 0 10 1;
#X connect 10 0 12 0;
#X connect 11 0 12 1;
#X connect 13 0 36 0;
#X connect 14 0 169 0;
#X connect 15 0 28 0;
#X connect 16 0 15 0;
#X connect 16 1 27 0;
#X connect 17 0 34 0;
#X connect 17 1 23 0;
#X connect 18 0 19 1;
#X connect 18 1 20 0;
#X connect 18 2 7 0;
#X connect 19 0 22 0;
#X connect 20 0 21 0;
#X connect 21 0 19 0;
#X connect 21 1 22 1;
#X connect 22 0 2 1;
#X connect 23 0 3 0;
#X connect 23 1 6 1;
#X connect 27 0 10 0;
#X connect 27 1 9 0;
#X connect 27 2 30 0;
#X connect 27 3 29 0;
#X connect 28 0 16 0;
#X connect 28 1 15 1;
#X connect 29 0 30 1;
#X connect 30 0 11 0;
#X connect 31 0 28 0;
#X connect 32 0 31 1;
#X connect 33 0 31 1;
#X connect 34 0 32 0;
#X connect 34 1 2 0;
#X connect 34 2 33 0;
#X connect 34 3 5 0;
#X connect 36 0 14 0;
#X connect 36 1 37 0;
#X connect 37 0 127 0;
#X connect 38 0 170 0;
#X connect 39 0 38 0;
#X connect 39 1 40 0;
#X connect 40 0 128 0;
#X connect 41 0 129 0;
#X connect 42 0 41 0;
#X connect 42 1 43 0;
#X connect 44 0 138 0;
#X connect 45 0 44 0;
#X connect 45 1 46 0;
#X connect 47 0 141 0;
#X connect 48 0 47 0;
#X connect 48 1 49 0;
#X connect 50 0 136 0;
#X connect 51 0 50 0;
#X connect 51 1 52 0;
#X connect 53 0 168 0;
#X connect 54 0 53 0;
#X connect 54 1 55 0;
#X connect 57 0 56 0;
#X connect 57 1 58 0;
#X connect 60 0 59 0;
#X connect 60 1 61 0;
#X connect 63 0 62 0;
#X connect 63 1 64 0;
#X connect 65 0 39 0;
#X connect 66 0 42 0;
#X connect 67 0 45 0;
#X connect 68 0 48 0;
#X connect 69 0 51 0;
#X connect 70 0 54 0;
#X connect 71 0 57 0;
#X connect 72 0 60 0;
#X connect 73 0 63 0;
#X connect 74 0 79 0;
#X connect 75 0 1 0;
#X connect 76 0 0 0;
#X connect 79 0 0 0;
#X connect 81 0 144 0;
#X connect 83 0 84 0;
#X connect 84 0 86 0;
#X connect 85 0 153 0;
#X connect 85 1 157 0;
#X connect 85 2 161 0;
#X connect 86 0 160 0;
#X connect 87 0 114 0;
#X connect 88 0 114 1;
#X connect 89 0 81 0;
#X connect 90 0 92 1;
#X connect 90 0 94 0;
#X connect 91 0 90 0;
#X connect 92 0 93 0;
#X connect 93 0 156 0;
#X connect 94 0 92 0;
#X connect 95 0 96 0;
#X connect 95 0 101 1;
#X connect 96 0 101 0;
#X connect 97 0 98 0;
#X connect 97 0 103 1;
#X connect 98 0 103 0;
#X connect 99 0 95 0;
#X connect 100 0 97 0;
#X connect 101 0 102 0;
#X connect 103 0 104 0;
#X connect 105 0 167 2;
#X connect 106 0 108 0;
#X connect 107 0 83 0;
#X connect 108 0 107 0;
#X connect 109 0 151 0;
#X connect 110 0 109 0;
#X connect 111 0 109 0;
#X connect 112 0 109 0;
#X connect 113 0 109 0;
#X connect 115 0 116 0;
#X connect 115 0 112 0;
#X connect 115 0 117 0;
#X connect 117 0 113 0;
#X connect 118 0 110 0;
#X connect 118 0 121 0;
#X connect 119 0 111 0;
#X connect 119 0 120 0;
#X connect 130 0 176 1;
#X connect 131 0 176 2;
#X connect 132 0 181 1;
#X connect 133 0 179 1;
#X connect 134 0 167 1;
#X connect 135 0 148 0;
#X connect 137 0 106 0;
#X connect 139 0 179 2;
#X connect 140 0 148 1;
#X connect 142 0 181 2;
#X connect 143 0 148 2;
#X connect 145 0 101 0;
#X connect 146 0 103 0;
#X connect 147 0 92 0;
#X connect 148 0 105 0;
#X connect 150 0 87 1;
#X connect 150 0 88 1;
#X connect 152 0 114 0;
#X connect 152 0 114 1;
#X connect 154 0 109 0;
#X connect 155 0 88 0;
#X connect 158 0 87 0;
#X connect 159 0 85 0;
#X connect 162 0 84 0;
#X connect 166 0 165 0;
#X connect 167 0 89 0;
#X connect 171 0 179 0;
#X connect 172 0 181 0;
#X connect 173 0 167 0;
#X connect 174 0 176 0;
#X connect 176 0 91 0;
#X connect 177 0 89 1;
#X connect 178 0 91 1;
#X connect 179 0 99 0;
#X connect 180 0 99 1;
#X connect 181 0 100 0;
#X connect 182 0 100 1;
