#N canvas 38 38 1280 700 10;
#X obj 30 91 comport 6 9600;
#X msg 30 57 close;
#X obj 188 323 repack;
#X obj 69 210 f;
#X obj 99 210 + 1;
#X msg 84 188 0;
#X obj 69 235 pack;
#X obj 155 297 unpack;
#X text 199 298 after that index is not necessary;
#X obj 242 472 * 128;
#X obj 215 498 +;
#X msg 269 521 symbol num\$1;
#X obj 215 538 s;
#X obj 356 59 r num0;
#X floatatom 356 121 5 0 0 0 - - -;
#X obj 201 424 list;
#X obj 188 400 t b l;
#X obj 30 113 sel 192;
#X obj 69 280 route 0 1;
#X obj 94 346 f;
#X obj 94 301 * 128;
#X obj 94 323 t b f;
#X obj 94 370 +;
#X obj 69 167 t b f;
#X text 123 210 give indices to incoming values;
#X text 307 449 reassemble split bytes;
#X text 295 500 and difuse them appropriately;
#X obj 215 450 unpack f f f f;
#X obj 188 378 list split 4;
#X obj 296 472 * 128;
#X obj 269 498 +;
#X obj 188 347 spigot;
#X msg 234 322 1;
#X msg 265 324 0;
#X obj 30 136 t b b b b;
#X text 90 136 reset counter and clear [repack];
#X obj 356 81 t f b;
#X obj 383 102 bng 15 250 50 0 empty empty empty 17 7 0 10 -262144
-1 -1;
#X floatatom 463 122 5 0 0 0 - - -;
#X obj 463 82 t f b;
#X obj 490 103 bng 15 250 50 0 empty empty empty 17 7 0 10 -262144
-1 -1;
#X floatatom 572 120 5 0 0 0 - - -;
#X obj 571 83 t f b;
#X obj 598 104 bng 15 250 50 0 empty empty empty 17 7 0 10 -262144
-1 -1;
#X floatatom 652 121 5 0 0 0 - - -;
#X obj 652 84 t f b;
#X obj 679 106 bng 15 250 50 0 empty empty empty 17 7 0 10 -262144
-1 -1;
#X floatatom 787 117 5 0 0 0 - - -;
#X obj 787 78 t f b;
#X obj 814 99 bng 15 250 50 0 empty empty empty 17 7 0 10 -262144 -1
-1;
#X floatatom 347 241 5 0 0 0 - - -;
#X obj 347 201 t f b;
#X floatatom 456 243 5 0 0 0 - - -;
#X obj 458 202 t f b;
#X obj 485 223 bng 15 250 50 0 empty empty empty 17 7 0 10 -262144
-1 -1;
#X floatatom 574 243 5 0 0 0 - - -;
#X obj 574 203 t f b;
#X obj 601 224 bng 15 250 50 0 empty empty empty 17 7 0 10 -262144
-1 -1;
#X floatatom 650 243 5 0 0 0 - - -;
#X obj 650 203 t f b;
#X obj 677 224 bng 15 250 50 0 empty empty empty 17 7 0 10 -262144
-1 -1;
#X floatatom 744 245 5 0 0 0 - - -;
#X obj 744 205 t f b;
#X obj 771 226 bng 15 250 50 0 empty empty empty 17 7 0 10 -262144
-1 -1;
#X obj 463 60 r num1;
#X obj 571 61 r num2;
#X obj 652 62 r num3;
#X obj 787 56 r num4;
#X obj 347 179 r num5;
#X obj 458 180 r num6;
#X obj 574 181 r num7;
#X obj 650 181 r num8;
#X obj 744 183 r num9;
#X floatatom 74 37 5 0 0 0 - - -;
#X obj 30 15 loadbang;
#X msg 128 57 devices;
#X text 77 113 0xc0 initializes transfer data array;
#X text 339 17 bangs are these to easier visualize which values changed
and which don't;
#X msg 74 57 open \$1;
#X text 74 262 first value (split in two) is number of data;
#X floatatom 949 235 5 0 0 0 - - -;
#X text 268 350 then split list in pairs of four \, which are two bytes
\, each split in two (first byte is actual value and second byte is
the value's index);
#X obj 2222 574 vradio 15 1 0 8 empty empty empty 0 -8 0 10 -258113
-1 -1 2;
#X floatatom 2218 703 5 0 0 0 - - -;
#N canvas 237 307 450 300 bajos 0;
#X obj 143 42 sel 1;
#X obj 141 81 sel 2;
#X obj 119 125 sel 3;
#X obj 125 192 sel 4;
#X obj 34 -21 inlet;
#X obj 30 210 outlet;
#X msg 187 40 read /Users/Carlos/Documents/Arduino/PureDataAntiguo/Bajos/Bajo1.wav
bajoL bajoR;
#X msg 176 90 read /Users/Carlos/Documents/Arduino/PureDataAntiguo/Bajos/Bajo2.wav
bajoL bajoR;
#X msg 174 144 read /Users/Carlos/Documents/Arduino/PureDataAntiguo/Bajos/Bajo3.wav
bajoL bajoR;
#X msg 174 190 read /Users/Carlos/Documents/Arduino/PureDataAntiguo/Bajos/16seg/ElectronicBass.wav
bajoL bajoR;
#X obj 138 9 sel 0;
#X obj 193 8 0;
#X connect 0 0 6 0;
#X connect 1 0 7 0;
#X connect 2 0 8 0;
#X connect 3 0 9 0;
#X connect 4 0 0 0;
#X connect 4 0 1 0;
#X connect 4 0 2 0;
#X connect 4 0 3 0;
#X connect 4 0 10 0;
#X connect 6 0 5 0;
#X connect 7 0 5 0;
#X connect 8 0 5 0;
#X connect 9 0 5 0;
#X connect 10 0 11 0;
#X connect 11 0 5 0;
#X restore 2217 725 pd bajos;
#N canvas 358 99 473 569 VolumenTotal 0;
#X obj -191 285 +;
#X obj -245 282 \$1;
#X floatatom -194 311 5 0 0 0 - - -;
#X floatatom -247 339 5 0 0 0 - - -;
#X obj -196 332 moses 0;
#X floatatom -205 356 5 0 0 0 - - -;
#X floatatom -195 401 5 0 0 0 - - -;
#X obj -200 379 moses 255;
#X obj -199 433 / 254;
#X obj -243 467 outlet;
#X obj -242 75 inlet;
#X obj -142 82 inlet;
#X obj -216 164 spigot;
#X obj -142 104 == 0;
#X obj -179 120 f;
#X obj -192 95 bng 15 250 50 0 empty empty empty 17 7 0 10 -262144
-1 -1;
#X obj -153 152 print;
#X connect 0 0 1 0;
#X connect 0 0 2 0;
#X connect 1 0 0 1;
#X connect 2 0 4 0;
#X connect 4 0 3 0;
#X connect 4 1 5 0;
#X connect 5 0 7 0;
#X connect 6 0 8 0;
#X connect 7 0 6 0;
#X connect 8 0 9 0;
#X connect 10 0 15 0;
#X connect 10 0 12 0;
#X connect 11 0 13 0;
#X connect 12 0 0 0;
#X connect 13 0 14 1;
#X connect 14 0 12 1;
#X connect 14 0 16 0;
#X connect 15 0 14 0;
#X restore 949 212 pd VolumenTotal;
#X floatatom 2362 396 5 0 0 0 - - -;
#N canvas 687 22 475 515 VolumenBucle1 1;
#X obj -390 214 +;
#X obj -443 199 \$1;
#X floatatom -393 240 5 0 0 0 - - -;
#X obj -520 230 print ValorAnterior;
#X floatatom -446 268 5 0 0 0 - - -;
#X obj -395 261 moses 0;
#X floatatom -404 285 5 0 0 0 - - -;
#X floatatom -394 330 5 0 0 0 - - -;
#X obj -399 308 moses 255;
#X obj -398 362 / 254;
#X obj -442 396 outlet;
#X obj -675 63 inlet;
#X obj -575 70 inlet;
#X obj -649 152 spigot;
#X obj -575 92 == 0;
#X obj -612 108 f;
#X obj -625 83 bng 15 250 50 0 empty empty empty 17 7 0 10 -262144
-1 -1;
#X obj -586 140 print;
#X connect 0 0 1 0;
#X connect 0 0 2 0;
#X connect 1 0 0 1;
#X connect 1 0 3 0;
#X connect 2 0 5 0;
#X connect 5 0 4 0;
#X connect 5 1 6 0;
#X connect 6 0 8 0;
#X connect 7 0 9 0;
#X connect 8 0 7 0;
#X connect 9 0 10 0;
#X connect 11 0 16 0;
#X connect 11 0 13 0;
#X connect 12 0 14 0;
#X connect 13 0 0 0;
#X connect 14 0 15 1;
#X connect 15 0 13 1;
#X connect 15 0 17 0;
#X connect 16 0 15 0;
#X restore 2362 375 pd VolumenBucle1;
#X obj 2364 424 *;
#X floatatom 2364 445 5 0 0 0 - - -;
#X obj 2400 396 bng 15 250 50 0 empty empty empty 17 7 0 10 -262144
-1 -1;
#X floatatom 480 703 5 0 0 0 - - -;
#X obj 478 727 bng 15 250 50 0 empty empty empty 17 7 0 10 -262144
-1 -1;
#X floatatom 443 1038 5 0 0 0 - - -;
#X obj 493 1029 bng 15 250 50 0 empty empty empty 17 7 0 10 -262144
-1 -1;
#N canvas 663 161 466 504 VolumenBucle2 0;
#X obj -400 159 +;
#X obj -334 229 \$1;
#X obj -293 148 print ValorAnterior;
#X floatatom -394 330 5 0 0 0 - - -;
#X obj -399 308 moses 255;
#X obj -398 362 / 254;
#X obj -442 396 outlet;
#X obj -665 73 inlet;
#X obj -565 63 inlet;
#X obj -639 162 spigot;
#X obj -602 118 f;
#X obj -615 93 bng 15 250 50 0 empty empty empty 17 7 0 10 -262144
-1 -1;
#X obj -565 102 == 0;
#X floatatom -402 207 5 -1 0 0 - - -;
#X floatatom -521 244 5 0 0 0 - - -;
#X obj -470 237 moses 0;
#X floatatom -479 261 5 0 0 0 - - -;
#X connect 0 0 1 0;
#X connect 0 0 13 0;
#X connect 1 0 0 1;
#X connect 1 0 2 0;
#X connect 3 0 5 0;
#X connect 4 0 3 0;
#X connect 5 0 6 0;
#X connect 7 0 11 0;
#X connect 7 0 9 0;
#X connect 8 0 12 0;
#X connect 9 0 0 0;
#X connect 10 0 9 1;
#X connect 11 0 10 0;
#X connect 12 0 10 1;
#X connect 13 0 15 0;
#X connect 15 0 14 0;
#X connect 15 1 16 0;
#X connect 16 0 4 0;
#X restore 479 680 pd VolumenBucle2;
#N canvas 902 154 367 448 VolumenBucle3 0;
#X obj -390 214 +;
#X obj -443 199 \$1;
#X floatatom -393 240 5 0 0 0 - - -;
#X obj -520 230 print ValorAnterior;
#X floatatom -446 268 5 0 0 0 - - -;
#X obj -395 261 moses 0;
#X floatatom -404 285 5 0 0 0 - - -;
#X floatatom -394 330 5 0 0 0 - - -;
#X obj -399 308 moses 255;
#X obj -398 362 / 254;
#X obj -442 396 outlet;
#X text -737 -30 Este bucle controla si estamos con el primer inte-
putor (rnum2) en 1 (activado).;
#X obj -655 83 inlet;
#X obj -555 73 inlet;
#X obj -629 172 spigot;
#X obj -592 128 f;
#X obj -605 103 bng 15 250 50 0 empty empty empty 17 7 0 10 -262144
-1 -1;
#X obj -555 112 == 0;
#X connect 0 0 1 0;
#X connect 0 0 2 0;
#X connect 1 0 0 1;
#X connect 1 0 3 0;
#X connect 2 0 5 0;
#X connect 5 0 4 0;
#X connect 5 1 6 0;
#X connect 6 0 8 0;
#X connect 7 0 9 0;
#X connect 8 0 7 0;
#X connect 9 0 10 0;
#X connect 12 0 16 0;
#X connect 12 0 14 0;
#X connect 13 0 17 0;
#X connect 14 0 0 0;
#X connect 15 0 14 1;
#X connect 16 0 15 0;
#X connect 17 0 15 1;
#X restore 442 1008 pd VolumenBucle3;
#X obj 563 745 *;
#X floatatom 575 778 5 0 0 0 - - -;
#X obj 430 1089 *;
#X floatatom 429 1121 5 0 0 0 - - -;
#X floatatom 1094 134 5 0 0 0 - - -;
#X obj 2196 939 freeverb~;
#X msg 862 445 roomsize \$1;
#X msg 1256 436 wet \$1;
#X msg 1316 461 dry \$1;
#X obj 1937 421 dac~;
#X obj 1388 399 hsl 128 15 0 1 0 0 empty empty empty -2 -8 0 10 -4032
-1 -1 12300 1;
#X floatatom 1385 418 5 0 0 0 - - -;
#X obj 1316 440 expr 1-$f1;
#X obj 987 424 hsl 128 15 0 1 0 0 empty empty empty -2 -8 0 10 -4034
-1 -1 12700 1;
#X floatatom 984 449 5 0 0 0 - - -;
#X text 1409 426 Wet signal to dry signal ratio;
#X text 1389 442 (0 : all dry \, 1 : all wet);
#X text 1036 447 Roomize;
#X text 1046 530 Pierre Massat \, GuitarExtended \, 2012;
#X obj 390 122 s bangE1;
#X obj 498 123 s bangE2;
#X obj 545 144 s Interruptor1;
#X obj 2391 271 r bangE1;
#X obj 2453 271 r Interruptor1;
#X obj 501 866 r bangE1;
#X obj 549 534 r bangE1;
#X obj 1027 110 r bangE1;
#X obj 1005 80 r Interruptor1;
#X obj 2221 533 r Pot1;
#X obj 638 145 s Interruptor2;
#X obj 613 535 r Interruptor2;
#X obj 1088 57 r Interruptor2;
#X obj 747 145 s Interruptor3;
#X obj 560 866 r Interruptor3;
#X obj 1171 80 r Interruptor3;
#X obj 949 255 s VolTot;
#X obj 549 719 r VolTot;
#X obj 385 1065 r VolTot;
#X obj 2304 402 r VolTot;
#N canvas 840 396 450 300 SumaLogica 0;
#X obj -5089 94 +;
#X obj -5059 34 t b f;
#X obj -4995 10 t b f;
#X obj -4997 56 +;
#X obj -5118 -37 inlet;
#X obj -5072 -33 inlet;
#X obj -5007 -26 inlet;
#X obj -4982 158 outlet;
#X connect 0 0 3 0;
#X connect 1 0 0 0;
#X connect 1 1 0 1;
#X connect 2 0 3 0;
#X connect 2 1 3 1;
#X connect 3 0 7 0;
#X connect 4 0 0 0;
#X connect 5 0 1 0;
#X connect 6 0 2 0;
#X coords 0 300 1 299 85 60 0;
#X restore 1090 103 pd SumaLogica;
#X obj 2218 753 s bajos;
#X text 2339 252 Côntrolle de volume du loop 1;
#X text 920 326 Côntrolle de l'effet du loop 1;
#X obj 455 265 s Interruptor4;
#X obj 320 141 s Encoder1;
#X obj 436 143 s Encoder2;
#X obj 479 533 r Encoder1;
#X obj 421 866 r Encoder1;
#X obj 919 110 r Encoder1;
#X obj 2318 273 r Encoder1;
#X obj 1036 188 r Interruptor4;
#X obj 2455 352 r Interruptor4;
#X obj 572 659 r Interruptor4;
#X obj 535 983 r Interruptor4;
#N canvas 235 165 549 576 Effet1 0;
#X obj -380 224 +;
#X obj -433 209 \$1;
#X floatatom -383 250 5 0 0 0 - - -;
#X floatatom -436 278 5 0 0 0 - - -;
#X obj -385 271 moses 0;
#X floatatom -394 295 5 0 0 0 - - -;
#X floatatom -384 340 5 0 0 0 - - -;
#X obj -389 318 moses 255;
#X obj -388 372 / 254;
#X obj -432 406 outlet;
#X obj -565 80 inlet;
#X obj -639 162 spigot;
#X obj -602 118 f;
#X obj -615 93 bng 15 250 50 0 empty empty empty 17 7 0 10 -262144
-1 -1;
#X obj -576 150 print;
#X obj -565 102 == 1;
#X obj -665 73 inlet;
#X connect 0 0 1 0;
#X connect 0 0 2 0;
#X connect 1 0 0 1;
#X connect 2 0 4 0;
#X connect 4 0 3 0;
#X connect 4 1 5 0;
#X connect 5 0 7 0;
#X connect 6 0 8 0;
#X connect 7 0 6 0;
#X connect 8 0 9 0;
#X connect 10 0 15 0;
#X connect 11 0 0 0;
#X connect 12 0 11 1;
#X connect 12 0 14 0;
#X connect 13 0 12 0;
#X connect 15 0 12 1;
#X connect 16 0 13 0;
#X connect 16 0 11 0;
#X restore 983 370 pd Effet1;
#X floatatom 983 391 5 0 0 0 - - -;
#X obj 1038 348 r Interruptor4;
#N canvas 347 318 536 409 Increm.Vol.Effect2 0;
#X floatatom -243 181 5 0 0 0 - - -;
#X obj -185 176 bng 15 250 50 0 empty empty empty 17 7 0 10 -262144
-1 -1;
#X obj -187 236 f;
#X obj -260 213 spigot;
#X floatatom -269 247 5 0 0 0 - - -;
#X obj -149 204 != 255;
#X obj -226 248 bng 15 250 50 0 empty empty empty 17 7 0 10 -262144
-1 -1;
#X obj -205 268 != -255;
#X obj -242 280 f;
#X obj -294 287 spigot;
#X floatatom -287 310 5 0 0 0 - - -;
#X obj -431 -2 inlet;
#X obj -328 48 f;
#X floatatom -360 84 5 0 0 0 - - -;
#X obj -398 108 -;
#X obj -313 105 bng 15 250 50 0 empty empty empty 17 7 0 10 -262144
-1 -1;
#X obj -362 177 spigot;
#X obj -311 154 f;
#X obj -354 6 inlet;
#X obj -285 12 inlet;
#X obj -287 332 outlet;
#X obj -283 132 == 1;
#X connect 0 0 5 0;
#X connect 0 0 1 0;
#X connect 0 0 3 0;
#X connect 1 0 2 0;
#X connect 2 0 3 1;
#X connect 3 0 4 0;
#X connect 4 0 7 0;
#X connect 4 0 6 0;
#X connect 4 0 9 0;
#X connect 5 0 2 1;
#X connect 6 0 8 0;
#X connect 7 0 8 1;
#X connect 8 0 9 1;
#X connect 9 0 10 0;
#X connect 10 0 20 0;
#X connect 11 0 12 1;
#X connect 11 0 14 0;
#X connect 12 0 13 0;
#X connect 13 0 14 1;
#X connect 14 0 15 0;
#X connect 14 0 16 0;
#X connect 15 0 17 0;
#X connect 16 0 0 0;
#X connect 17 0 16 1;
#X connect 18 0 12 0;
#X connect 19 0 21 0;
#X connect 21 0 17 1;
#X restore 479 580 pd Increm.Vol.Effect2;
#N canvas 345 327 536 409 Increm.Vol.Effect3 0;
#X floatatom -243 181 5 0 0 0 - - -;
#X obj -185 176 bng 15 250 50 0 empty empty empty 17 7 0 10 -262144
-1 -1;
#X obj -187 236 f;
#X obj -260 213 spigot;
#X floatatom -269 247 5 0 0 0 - - -;
#X obj -149 204 != 255;
#X obj -226 248 bng 15 250 50 0 empty empty empty 17 7 0 10 -262144
-1 -1;
#X obj -205 268 != -255;
#X obj -242 280 f;
#X obj -294 287 spigot;
#X floatatom -287 310 5 0 0 0 - - -;
#X obj -431 -2 inlet;
#X obj -328 48 f;
#X floatatom -360 84 5 0 0 0 - - -;
#X obj -398 108 -;
#X obj -313 105 bng 15 250 50 0 empty empty empty 17 7 0 10 -262144
-1 -1;
#X obj -362 177 spigot;
#X obj -311 154 f;
#X obj -354 6 inlet;
#X obj -285 12 inlet;
#X obj -287 332 outlet;
#X obj -283 132 == 1;
#X connect 0 0 5 0;
#X connect 0 0 1 0;
#X connect 0 0 3 0;
#X connect 1 0 2 0;
#X connect 2 0 3 1;
#X connect 3 0 4 0;
#X connect 4 0 7 0;
#X connect 4 0 6 0;
#X connect 4 0 9 0;
#X connect 5 0 2 1;
#X connect 6 0 8 0;
#X connect 7 0 8 1;
#X connect 8 0 9 1;
#X connect 9 0 10 0;
#X connect 10 0 20 0;
#X connect 11 0 12 1;
#X connect 11 0 14 0;
#X connect 12 0 13 0;
#X connect 13 0 14 1;
#X connect 14 0 15 0;
#X connect 14 0 16 0;
#X connect 15 0 17 0;
#X connect 16 0 0 0;
#X connect 17 0 16 1;
#X connect 18 0 12 0;
#X connect 19 0 21 0;
#X connect 21 0 17 1;
#X restore 442 896 pd Increm.Vol.Effect3;
#X text 924 37 Increment totale Encoder1;
#X floatatom 1551 130 5 0 0 0 - - -;
#X obj 1462 76 r Interruptor1;
#X obj 1545 53 r Interruptor2;
#X obj 1628 76 r Interruptor3;
#N canvas 840 396 450 300 SumaLogica 0;
#X obj -5089 94 +;
#X obj -5059 34 t b f;
#X obj -4995 10 t b f;
#X obj -4997 56 +;
#X obj -5118 -37 inlet;
#X obj -5072 -33 inlet;
#X obj -5007 -26 inlet;
#X obj -4982 158 outlet;
#X connect 0 0 3 0;
#X connect 1 0 0 0;
#X connect 1 1 0 1;
#X connect 2 0 3 0;
#X connect 2 1 3 1;
#X connect 3 0 7 0;
#X connect 4 0 0 0;
#X connect 5 0 1 0;
#X connect 6 0 2 0;
#X coords 0 300 1 299 85 60 0;
#X restore 1547 99 pd SumaLogica;
#X obj 1376 106 r Encoder2;
#X obj 1484 106 r bangE2;
#X text 1430 20 Increment totale Encoder2;
#X floatatom 1405 236 5 0 0 0 - - -;
#X obj 1492 189 r Interruptor4;
#N canvas 194 338 473 569 TempoTotal 0;
#X obj -155 293 +;
#X floatatom -194 311 5 0 0 0 - - -;
#X floatatom -247 339 5 0 0 0 - - -;
#X obj -196 332 moses 0;
#X floatatom -205 356 5 0 0 0 - - -;
#X floatatom -195 401 5 0 0 0 - - -;
#X obj -199 433 / 254;
#X obj -243 467 outlet;
#X obj -242 75 inlet;
#X obj -142 82 inlet;
#X obj -216 164 spigot;
#X obj -141 104 == 0;
#X obj -179 120 f;
#X obj -192 95 bng 15 250 50 0 empty empty empty 17 7 0 10 -262144
-1 -1;
#X obj -153 152 print;
#X obj -120 227 f;
#X floatatom -56 273 5 0 0 0 - - -;
#X floatatom -204 50 5 0 0 0 - - -;
#X obj -200 379 moses 510;
#X obj -21 143 r bangInic;
#X msg -24 175 254;
#X obj -148 202 bng 15 250 50 0 empty empty empty 17 7 0 10 -262144
-1 -1;
#X connect 0 0 1 0;
#X connect 0 0 15 1;
#X connect 1 0 3 0;
#X connect 3 0 2 0;
#X connect 3 1 4 0;
#X connect 4 0 18 0;
#X connect 5 0 6 0;
#X connect 6 0 7 0;
#X connect 8 0 13 0;
#X connect 8 0 10 0;
#X connect 8 0 17 0;
#X connect 9 0 11 0;
#X connect 10 0 0 1;
#X connect 10 0 21 0;
#X connect 11 0 12 1;
#X connect 12 0 10 1;
#X connect 12 0 14 0;
#X connect 13 0 12 0;
#X connect 15 0 16 0;
#X connect 15 0 0 0;
#X connect 18 0 5 0;
#X connect 19 0 20 0;
#X connect 20 0 15 1;
#X connect 21 0 15 0;
#X restore 1405 213 pd TempoTotal;
#X obj 1405 256 s TemTot;
#X obj 1405 193 r Increm2;
#X obj 1406 156 s Increm2;
#X obj 2330 319 s Increm1a;
#X obj 2362 354 r Increm1a;
#X obj 479 603 s Increm1b;
#X obj 479 657 r Increm1b;
#X obj 442 919 s Increm1c;
#X obj 442 985 r Increm1c;
#X obj 949 160 s Increm1;
#X obj 949 193 r Increm1;
#X obj 974 348 r Increm1;
#X floatatom 1385 373 5 0 0 0 - - -;
#X obj 1447 330 r Interruptor4;
#X obj 1385 330 r Increm2;
#N canvas 202 98 473 569 Effet2 0;
#X obj -191 285 +;
#X obj -245 282 \$1;
#X floatatom -194 311 5 0 0 0 - - -;
#X floatatom -247 339 5 0 0 0 - - -;
#X obj -196 332 moses 0;
#X floatatom -205 356 5 0 0 0 - - -;
#X floatatom -195 401 5 0 0 0 - - -;
#X obj -200 379 moses 255;
#X obj -199 433 / 254;
#X obj -243 467 outlet;
#X obj -242 75 inlet;
#X obj -142 48 inlet;
#X obj -216 164 spigot;
#X obj -179 120 f;
#X obj -192 95 bng 15 250 50 0 empty empty empty 17 7 0 10 -262144
-1 -1;
#X obj -153 152 print;
#X obj -141 104 == 1;
#X connect 0 0 1 0;
#X connect 0 0 2 0;
#X connect 1 0 0 1;
#X connect 2 0 4 0;
#X connect 4 0 3 0;
#X connect 4 1 5 0;
#X connect 5 0 7 0;
#X connect 6 0 8 0;
#X connect 7 0 6 0;
#X connect 8 0 9 0;
#X connect 10 0 14 0;
#X connect 10 0 12 0;
#X connect 11 0 16 0;
#X connect 12 0 0 0;
#X connect 13 0 12 1;
#X connect 13 0 15 0;
#X connect 14 0 13 0;
#X connect 16 0 13 1;
#X restore 1386 353 pd Effet2;
#X obj 2364 466 s Vol1a;
#X obj 1861 352 r bajos;
#X floatatom 2015 346 5 0 0 0 - - -;
#N canvas 13 22 726 673 TempoVol1 1;
#X obj 43 29 inlet;
#X obj 113 34 inlet;
#X obj 26 447 *~;
#X obj 72 444 *~;
#X obj 33 404 r Vol1a;
#X obj 28 72 soundfiler;
#X floatatom 63 103 12 0 0 0 - - -;
#X obj 63 129 s sampleSize;
#X obj 28 152 expr 44100 / $f1;
#X floatatom 57 184 12 0 0 0 - - -;
#X obj 28 223 phasor~;
#X obj 27 279 *~;
#X obj 178 285 tgl 15 0 empty empty empty 17 7 0 10 -262144 -1 -1 1
1;
#X obj 178 321 metro 50;
#X obj 178 349 snapshot~;
#X floatatom 178 381 12 0 0 0 - - -;
#X obj 178 413 /;
#X obj 265 395 r sampleSize;
#X floatatom 178 446 5 0 0 0 - - -;
#X obj 455 357 hsl 200 15 0 1 0 0 empty empty empty -2 -8 0 10 -262144
-1 -1 7322 1;
#X obj 9 341 tabread4~ bajoL;
#X obj 47 372 tabread4~ bajoR;
#N canvas 0 22 450 300 (subpatch) 0;
#X array bajoL 352801 float 2;
#X coords 0 1 352801 -1 200 140 1;
#X restore 455 47 graph;
#N canvas 0 22 450 300 (subpatch) 0;
#X array bajoR 352801 float 2;
#X coords 0 1 352801 -1 200 140 1;
#X restore 453 208 graph;
#N canvas 105 123 422 560 ControlTempo 0;
#X obj 137 40 inlet;
#X obj 138 72 t f b;
#X obj 89 360 f;
#X obj 69 416 +;
#X obj 48 80 / 1000;
#X floatatom 49 40 5 0 0 0 - - -;
#X obj 21 163 inlet;
#X obj 77 532 outlet;
#X floatatom 204 437 5 0 0 0 - - -;
#X floatatom 24 102 5 0 0 0 - - -;
#X floatatom 22 200 5 0 0 0 - - -;
#X obj 223 81 inlet;
#X obj 216 125 == 0;
#X obj 162 149 f;
#X obj 94 158 spigot;
#X obj 282 207 inlet;
#X obj 251 241 == 1;
#X obj 193 261 f;
#X obj 136 270 spigot;
#X obj 130 194 bng 15 250 50 0 empty empty empty 17 7 0 10 -262144
-1 -1;
#X obj 252 303 print ppp;
#X connect 0 0 1 0;
#X connect 0 0 5 0;
#X connect 1 0 4 0;
#X connect 1 1 13 0;
#X connect 1 1 14 0;
#X connect 2 0 3 0;
#X connect 2 0 8 0;
#X connect 3 0 2 1;
#X connect 3 0 7 0;
#X connect 4 0 3 1;
#X connect 4 0 9 0;
#X connect 6 0 2 1;
#X connect 6 0 10 0;
#X connect 11 0 12 0;
#X connect 12 0 13 1;
#X connect 13 0 14 1;
#X connect 14 0 19 0;
#X connect 14 0 18 0;
#X connect 15 0 16 0;
#X connect 16 0 17 1;
#X connect 16 0 20 0;
#X connect 17 0 18 1;
#X connect 18 0 2 0;
#X connect 19 0 17 0;
#X restore 199 107 pd ControlTempo;
#X floatatom 186 172 5 0 0 0 - - -;
#X obj 289 65 inlet;
#X obj 205 212 *;
#X obj 246 164 bng 15 250 50 0 empty empty empty 17 7 0 10 -262144
-1 -1;
#X obj 142 193 r TemTot;
#X obj 340 112 inlet;
#X floatatom 225 247 5 0 0 0 - - -;
#X obj 178 586 outlet~;
#X obj 237 590 outlet~;
#X floatatom 109 418 5 0 0 0 - - -;
#X obj 55 254 r sampleSize;
#X msg -30 122 0;
#X msg -40 249 0.125;
#X msg -43 276 0.25;
#X obj -33 101 bng 15 250 50 0 empty empty empty 17 7 0 10 -262144
-1 -1;
#X obj -64 196 == 0;
#X msg -31 207 0;
#X obj 188 515 r~ Effecta;
#X obj -63 388 s~ tabreadLa;
#X obj -68 416 s~ tabreadRa;
#X connect 0 0 5 0;
#X connect 0 0 39 0;
#X connect 0 0 40 0;
#X connect 1 0 24 1;
#X connect 2 0 32 0;
#X connect 3 0 33 0;
#X connect 4 0 2 1;
#X connect 4 0 3 1;
#X connect 4 0 34 0;
#X connect 5 0 6 0;
#X connect 5 0 8 0;
#X connect 6 0 7 0;
#X connect 8 0 9 0;
#X connect 8 0 10 0;
#X connect 9 0 24 0;
#X connect 10 0 11 0;
#X connect 11 0 20 0;
#X connect 11 0 21 0;
#X connect 11 0 14 0;
#X connect 12 0 13 0;
#X connect 13 0 14 0;
#X connect 14 0 15 0;
#X connect 15 0 16 0;
#X connect 16 0 18 0;
#X connect 17 0 16 1;
#X connect 18 0 19 0;
#X connect 20 0 2 0;
#X connect 20 0 43 0;
#X connect 21 0 3 0;
#X connect 21 0 44 0;
#X connect 24 0 25 0;
#X connect 25 0 27 1;
#X connect 25 0 28 0;
#X connect 26 0 24 2;
#X connect 27 0 10 0;
#X connect 27 0 31 0;
#X connect 28 0 27 0;
#X connect 29 0 27 0;
#X connect 30 0 24 3;
#X connect 35 0 11 1;
#X connect 36 0 10 1;
#X connect 37 0 10 0;
#X connect 38 0 10 0;
#X connect 39 0 36 0;
#X connect 40 0 41 0;
#X connect 41 0 10 0;
#X connect 42 0 32 0;
#X connect 42 0 33 0;
#X restore 1951 390 pd TempoVol1;
#X obj 2047 432 r Interruptor4;
#X obj 120 16 t b;
#X obj 121 37 s bangInic;
#X obj 2064 384 r Interruptor1;
#X obj 2027 269 r Interruptor1;
#X obj 1892 271 r Encoder2;
#X obj 1965 269 r bangE2;
#X obj 1904 317 s Increm2a;
#X obj 2081 363 r Increm2a;
#X text 1914 237 Côntrolle de tempo du loop 1;
#X text 1996 993 Effet va al pd de TempoVol1;
#X msg 1770 605 roomsize \$1;
#X obj 1865 602 hsl 128 15 0 1 0 0 empty empty empty -2 -8 0 10 -4034
-1 -1 0 1;
#X floatatom 1862 627 5 0 0 0 - - -;
#X text 1914 625 Roomize;
#X floatatom 1861 569 5 0 0 0 - - -;
#X obj 1917 491 r Interruptor4;
#X obj 1950 535 r Interruptor1;
#X obj 1852 526 r Increm1a;
#X obj 984 473 s ValorEffet1Global;
#X obj 1862 650 s ValorEffet1a;
#X obj 1803 707 r ValorEffet1Global;
#X obj 1928 709 r ValorEffet1a;
#X obj 1883 772 *;
#X obj 1805 737 bng 15 250 50 0 empty empty empty 17 7 0 10 -262144
-1 -1;
#X obj 1819 807 hsl 254 15 0 1 0 0 empty empty empty -2 -8 0 10 -4034
-1 -1 0 1;
#X floatatom 1818 831 5 0 0 0 - - -;
#X msg 1720 832 roomsize \$1;
#X obj 1386 474 s ValorEffet2Global;
#X obj 2440 590 hsl 128 15 0 1 0 0 empty empty empty -2 -8 0 10 -4032
-1 -1 0 1;
#X floatatom 2437 609 5 0 0 0 - - -;
#X text 2487 617 Wet signal to dry signal ratio;
#X text 2487 633 (0 : all dry \, 1 : all wet);
#X floatatom 2437 564 5 0 0 0 - - -;
#X obj 2504 517 r Interruptor4;
#X obj 2437 521 r Increm2a;
#X obj 2511 546 r Interruptor1;
#X obj 2438 665 s ValorEffet2a;
#X obj 2377 705 r ValorEffet2Global;
#X obj 2502 707 r ValorEffet2a;
#X obj 2413 744 bng 15 250 50 0 empty empty empty 17 7 0 10 -262144
-1 -1;
#X obj 2472 774 *;
#X obj 2392 815 hsl 254 15 0 1 0 0 empty empty empty -2 -8 0 10 -4032
-1 -1 0 1;
#X floatatom 2388 838 5 0 0 0 - - -;
#X msg 2308 627 wet \$1;
#X msg 2368 652 dry \$1;
#X obj 2368 631 expr 1-$f1;
#X msg 2250 839 wet \$1;
#X msg 2310 864 dry \$1;
#X obj 2310 843 expr 1-$f1;
#X obj 2278 968 r Vol1a;
#X obj 2197 967 *~;
#N canvas 4 65 536 409 Increm.Vol.Effect1 0;
#X floatatom -243 181 5 0 0 0 - - -;
#X obj -185 176 bng 15 250 50 0 empty empty empty 17 7 0 10 -262144
-1 -1;
#X obj -187 236 f;
#X obj -260 213 spigot;
#X floatatom -269 247 5 0 0 0 - - -;
#X obj -149 204 != 255;
#X obj -226 248 bng 15 250 50 0 empty empty empty 17 7 0 10 -262144
-1 -1;
#X obj -205 268 != -255;
#X obj -242 280 f;
#X obj -294 287 spigot;
#X floatatom -287 310 5 0 0 0 - - -;
#X obj -431 -2 inlet;
#X obj -328 48 f;
#X floatatom -360 84 5 0 0 0 - - -;
#X obj -401 111 -;
#X obj -283 132 == 0;
#X obj -313 105 bng 15 250 50 0 empty empty empty 17 7 0 10 -262144
-1 -1;
#X obj -362 177 spigot;
#X obj -311 154 f;
#X obj -354 6 inlet;
#X obj -285 12 inlet;
#X obj -287 332 outlet;
#X obj -303 202 print p;
#X connect 0 0 5 0;
#X connect 0 0 1 0;
#X connect 0 0 3 0;
#X connect 1 0 2 0;
#X connect 2 0 3 1;
#X connect 3 0 4 0;
#X connect 4 0 7 0;
#X connect 4 0 6 0;
#X connect 4 0 9 0;
#X connect 5 0 2 1;
#X connect 6 0 8 0;
#X connect 7 0 8 1;
#X connect 8 0 9 1;
#X connect 9 0 10 0;
#X connect 10 0 21 0;
#X connect 11 0 12 1;
#X connect 11 0 14 0;
#X connect 12 0 13 0;
#X connect 13 0 14 1;
#X connect 14 0 16 0;
#X connect 14 0 17 0;
#X connect 15 0 18 1;
#X connect 16 0 18 0;
#X connect 17 0 0 0;
#X connect 18 0 17 1;
#X connect 18 0 22 0;
#X connect 19 0 12 0;
#X connect 20 0 15 0;
#X restore 949 136 pd Increm.Vol.Effect1;
#N canvas 4 65 536 409 Increm.Vol.Effect2 0;
#X floatatom -243 181 5 0 0 0 - - -;
#X obj -185 176 bng 15 250 50 0 empty empty empty 17 7 0 10 -262144
-1 -1;
#X obj -187 236 f;
#X obj -260 213 spigot;
#X floatatom -269 247 5 0 0 0 - - -;
#X obj -149 204 != 255;
#X obj -226 248 bng 15 250 50 0 empty empty empty 17 7 0 10 -262144
-1 -1;
#X obj -205 268 != -255;
#X obj -242 280 f;
#X obj -294 287 spigot;
#X floatatom -287 310 5 0 0 0 - - -;
#X obj -431 -2 inlet;
#X obj -328 48 f;
#X floatatom -360 84 5 0 0 0 - - -;
#X obj -401 111 -;
#X obj -283 132 == 0;
#X obj -313 105 bng 15 250 50 0 empty empty empty 17 7 0 10 -262144
-1 -1;
#X obj -362 177 spigot;
#X obj -311 154 f;
#X obj -354 6 inlet;
#X obj -285 12 inlet;
#X obj -287 332 outlet;
#X obj -303 202 print p;
#X connect 0 0 5 0;
#X connect 0 0 1 0;
#X connect 0 0 3 0;
#X connect 1 0 2 0;
#X connect 2 0 3 1;
#X connect 3 0 4 0;
#X connect 4 0 7 0;
#X connect 4 0 6 0;
#X connect 4 0 9 0;
#X connect 5 0 2 1;
#X connect 6 0 8 0;
#X connect 7 0 8 1;
#X connect 8 0 9 1;
#X connect 9 0 10 0;
#X connect 10 0 21 0;
#X connect 11 0 12 1;
#X connect 11 0 14 0;
#X connect 12 0 13 0;
#X connect 13 0 14 1;
#X connect 14 0 16 0;
#X connect 14 0 17 0;
#X connect 15 0 18 1;
#X connect 16 0 18 0;
#X connect 17 0 0 0;
#X connect 18 0 17 1;
#X connect 18 0 22 0;
#X connect 19 0 12 0;
#X connect 20 0 15 0;
#X restore 1406 132 pd Increm.Vol.Effect2;
#N canvas 70 95 536 409 Increm.Vol.Effect1a 1;
#X floatatom -243 181 5 0 0 0 - - -;
#X obj -185 176 bng 15 250 50 0 empty empty empty 17 7 0 10 -262144
-1 -1;
#X obj -187 236 f;
#X obj -260 213 spigot;
#X floatatom -269 247 5 0 0 0 - - -;
#X obj -149 204 != 255;
#X obj -226 248 bng 15 250 50 0 empty empty empty 17 7 0 10 -262144
-1 -1;
#X obj -205 268 != -255;
#X obj -242 280 f;
#X obj -294 287 spigot;
#X floatatom -287 310 5 0 0 0 - - -;
#X obj -431 -2 inlet;
#X obj -328 48 f;
#X floatatom -360 84 5 0 0 0 - - -;
#X obj -398 108 -;
#X obj -313 105 bng 15 250 50 0 empty empty empty 17 7 0 10 -262144
-1 -1;
#X obj -362 177 spigot;
#X obj -311 154 f;
#X obj -354 6 inlet;
#X obj -285 12 inlet;
#X obj -287 332 outlet;
#X obj -283 132 == 1;
#X connect 0 0 5 0;
#X connect 0 0 1 0;
#X connect 0 0 3 0;
#X connect 1 0 2 0;
#X connect 2 0 3 1;
#X connect 3 0 4 0;
#X connect 4 0 7 0;
#X connect 4 0 6 0;
#X connect 4 0 9 0;
#X connect 5 0 2 1;
#X connect 6 0 8 0;
#X connect 7 0 8 1;
#X connect 8 0 9 1;
#X connect 9 0 10 0;
#X connect 10 0 20 0;
#X connect 11 0 12 1;
#X connect 11 0 14 0;
#X connect 12 0 13 0;
#X connect 13 0 14 1;
#X connect 14 0 15 0;
#X connect 14 0 16 0;
#X connect 15 0 17 0;
#X connect 16 0 0 0;
#X connect 17 0 16 1;
#X connect 18 0 12 0;
#X connect 19 0 21 0;
#X connect 21 0 17 1;
#X restore 2330 294 pd Increm.Vol.Effect1a;
#N canvas 70 95 536 409 Increm.Vol.Effect2a 0;
#X floatatom -243 181 5 0 0 0 - - -;
#X obj -185 176 bng 15 250 50 0 empty empty empty 17 7 0 10 -262144
-1 -1;
#X obj -187 236 f;
#X obj -260 213 spigot;
#X floatatom -269 247 5 0 0 0 - - -;
#X obj -149 204 != 255;
#X obj -226 248 bng 15 250 50 0 empty empty empty 17 7 0 10 -262144
-1 -1;
#X obj -205 268 != -255;
#X obj -242 280 f;
#X obj -294 287 spigot;
#X floatatom -287 310 5 0 0 0 - - -;
#X obj -431 -2 inlet;
#X obj -328 48 f;
#X floatatom -360 84 5 0 0 0 - - -;
#X obj -398 108 -;
#X obj -313 105 bng 15 250 50 0 empty empty empty 17 7 0 10 -262144
-1 -1;
#X obj -362 177 spigot;
#X obj -311 154 f;
#X obj -354 6 inlet;
#X obj -285 12 inlet;
#X obj -287 332 outlet;
#X obj -283 132 == 1;
#X connect 0 0 5 0;
#X connect 0 0 1 0;
#X connect 0 0 3 0;
#X connect 1 0 2 0;
#X connect 2 0 3 1;
#X connect 3 0 4 0;
#X connect 4 0 7 0;
#X connect 4 0 6 0;
#X connect 4 0 9 0;
#X connect 5 0 2 1;
#X connect 6 0 8 0;
#X connect 7 0 8 1;
#X connect 8 0 9 1;
#X connect 9 0 10 0;
#X connect 10 0 20 0;
#X connect 11 0 12 1;
#X connect 11 0 14 0;
#X connect 12 0 13 0;
#X connect 13 0 14 1;
#X connect 14 0 15 0;
#X connect 14 0 16 0;
#X connect 15 0 17 0;
#X connect 16 0 0 0;
#X connect 17 0 16 1;
#X connect 18 0 12 0;
#X connect 19 0 21 0;
#X connect 21 0 17 1;
#X restore 1904 292 pd Increm.Vol.Effect2a;
#N canvas 162 63 549 576 Effet1a 0;
#X obj -387 384 +;
#X obj -440 369 \$1;
#X floatatom -390 410 5 0 0 0 - - -;
#X floatatom -443 438 5 0 0 0 - - -;
#X obj -392 431 moses 0;
#X floatatom -401 455 5 0 0 0 - - -;
#X floatatom -391 500 5 0 0 0 - - -;
#X obj -396 478 moses 255;
#X obj -395 532 / 254;
#X obj -439 566 outlet;
#X obj -565 80 inlet;
#X obj -639 162 spigot;
#X obj -602 118 f;
#X obj -615 93 bng 15 250 50 0 empty empty empty 17 7 0 10 -262144
-1 -1;
#X obj -565 102 == 1;
#X obj -665 73 inlet;
#X obj -454 128 inlet;
#X obj -451 184 == 1;
#X obj -473 215 f;
#X obj -557 181 bng 15 250 50 0 empty empty empty 17 7 0 10 -262144
-1 -1;
#X obj -492 258 spigot;
#X connect 0 0 1 0;
#X connect 0 0 2 0;
#X connect 1 0 0 1;
#X connect 2 0 4 0;
#X connect 4 0 3 0;
#X connect 4 1 5 0;
#X connect 5 0 7 0;
#X connect 6 0 8 0;
#X connect 7 0 6 0;
#X connect 8 0 9 0;
#X connect 10 0 14 0;
#X connect 11 0 19 0;
#X connect 11 0 20 0;
#X connect 12 0 11 1;
#X connect 13 0 12 0;
#X connect 14 0 12 1;
#X connect 15 0 13 0;
#X connect 15 0 11 0;
#X connect 16 0 17 0;
#X connect 17 0 18 1;
#X connect 18 0 20 1;
#X connect 19 0 18 0;
#X connect 20 0 0 0;
#X restore 1861 548 pd Effet1a;
#N canvas 802 72 473 569 Effet2a 0;
#X obj -191 285 +;
#X obj -245 282 \$1;
#X floatatom -194 311 5 0 0 0 - - -;
#X floatatom -247 339 5 0 0 0 - - -;
#X obj -196 332 moses 0;
#X floatatom -205 356 5 0 0 0 - - -;
#X floatatom -195 401 5 0 0 0 - - -;
#X obj -200 379 moses 255;
#X obj -199 433 / 254;
#X obj -243 467 outlet;
#X obj -242 75 inlet;
#X obj -142 48 inlet;
#X obj -216 164 spigot;
#X obj -179 120 f;
#X obj -192 95 bng 15 250 50 0 empty empty empty 17 7 0 10 -262144
-1 -1;
#X obj -153 152 print;
#X obj -141 104 == 1;
#X obj -64 152 inlet;
#X obj -90 184 == 1;
#X obj -114 209 f;
#X obj -177 245 spigot;
#X obj -166 196 bng 15 250 50 0 empty empty empty 17 7 0 10 -262144
-1 -1;
#X connect 0 0 1 0;
#X connect 0 0 2 0;
#X connect 1 0 0 1;
#X connect 2 0 4 0;
#X connect 4 0 3 0;
#X connect 4 1 5 0;
#X connect 5 0 7 0;
#X connect 6 0 8 0;
#X connect 7 0 6 0;
#X connect 8 0 9 0;
#X connect 10 0 14 0;
#X connect 10 0 12 0;
#X connect 11 0 16 0;
#X connect 12 0 21 0;
#X connect 12 0 20 0;
#X connect 13 0 12 1;
#X connect 13 0 15 0;
#X connect 14 0 13 0;
#X connect 16 0 13 1;
#X connect 17 0 18 0;
#X connect 18 0 19 1;
#X connect 19 0 20 1;
#X connect 20 0 0 0;
#X connect 21 0 19 0;
#X restore 2438 544 pd Effet2a;
#X obj 1720 857 s roomsizea;
#X obj 2250 861 s weta;
#X obj 2310 887 s drya;
#X obj 2067 915 r weta;
#X obj 2110 914 r drya;
#X obj 1932 914 r roomsizea;
#X obj 2029 963 s~ Effecta;
#X obj 1849 915 r~ tabreadLa;
#X obj 1932 943 r~ tabreadRa;
#X obj 2117 1372 vradio 15 1 0 8 empty empty empty 0 -8 0 10 -159808
-1 -1 0;
#X floatatom 2113 1501 5 0 0 0 - - -;
#X floatatom 2257 1194 5 0 0 0 - - -;
#X obj 2259 1222 *;
#X floatatom 2259 1243 5 0 0 0 - - -;
#X obj 2295 1194 bng 15 250 50 0 empty empty empty 17 7 0 10 -262144
-1 -1;
#X obj 2116 1306 / 254;
#X obj 2116 1330 * 7;
#X obj 2091 1737 freeverb~;
#X obj 1832 1219 dac~;
#X obj 2286 1069 r bangE1;
#X obj 2199 1200 r VolTot;
#X obj 2213 1071 r Encoder1;
#X obj 2350 1150 r Interruptor4;
#X floatatom 1910 1144 5 0 0 0 - - -;
#X obj 1942 1230 r Interruptor4;
#X obj 1787 1069 r Encoder2;
#X obj 1860 1067 r bangE2;
#X msg 1665 1403 roomsize \$1;
#X obj 1760 1400 hsl 128 15 0 1 0 0 empty empty empty -2 -8 0 10 -4034
-1 -1 0 1;
#X floatatom 1757 1425 5 0 0 0 - - -;
#X text 1809 1423 Roomize;
#X floatatom 1756 1367 5 0 0 0 - - -;
#X obj 1812 1289 r Interruptor4;
#X obj 1698 1505 r ValorEffet1Global;
#X obj 1778 1570 *;
#X obj 1700 1535 bng 15 250 50 0 empty empty empty 17 7 0 10 -262144
-1 -1;
#X obj 1714 1605 hsl 254 15 0 1 0 0 empty empty empty -2 -8 0 10 -4034
-1 -1 0 1;
#X floatatom 1713 1629 5 0 0 0 - - -;
#X msg 1615 1630 roomsize \$1;
#X obj 2335 1388 hsl 128 15 0 1 0 0 empty empty empty -2 -8 0 10 -4032
-1 -1 0 1;
#X floatatom 2332 1407 5 0 0 0 - - -;
#X text 2382 1415 Wet signal to dry signal ratio;
#X text 2382 1431 (0 : all dry \, 1 : all wet);
#X floatatom 2332 1362 5 0 0 0 - - -;
#X obj 2399 1315 r Interruptor4;
#X obj 2272 1503 r ValorEffet2Global;
#X obj 2308 1542 bng 15 250 50 0 empty empty empty 17 7 0 10 -262144
-1 -1;
#X obj 2367 1572 *;
#X obj 2287 1613 hsl 254 15 0 1 0 0 empty empty empty -2 -8 0 10 -4032
-1 -1 0 1;
#X floatatom 2283 1636 5 0 0 0 - - -;
#X msg 2203 1425 wet \$1;
#X msg 2263 1450 dry \$1;
#X obj 2263 1429 expr 1-$f1;
#X msg 2145 1637 wet \$1;
#X msg 2205 1662 dry \$1;
#X obj 2205 1641 expr 1-$f1;
#X obj 2092 1765 *~;
#X text 1809 1035 Côntrolle de tempo du loop 2;
#X text 2234 1050 Côntrolle de volume du loop 2;
#X obj 1922 1067 r Interruptor2;
#X obj 2348 1069 r Interruptor2;
#N canvas 70 95 536 409 Increm.Vol.Effect1b 0;
#X floatatom -243 181 5 0 0 0 - - -;
#X obj -185 176 bng 15 250 50 0 empty empty empty 17 7 0 10 -262144
-1 -1;
#X obj -187 236 f;
#X obj -260 213 spigot;
#X floatatom -269 247 5 0 0 0 - - -;
#X obj -149 204 != 255;
#X obj -226 248 bng 15 250 50 0 empty empty empty 17 7 0 10 -262144
-1 -1;
#X obj -205 268 != -255;
#X obj -242 280 f;
#X obj -294 287 spigot;
#X floatatom -287 310 5 0 0 0 - - -;
#X obj -431 -2 inlet;
#X obj -328 48 f;
#X floatatom -360 84 5 0 0 0 - - -;
#X obj -398 108 -;
#X obj -313 105 bng 15 250 50 0 empty empty empty 17 7 0 10 -262144
-1 -1;
#X obj -362 177 spigot;
#X obj -311 154 f;
#X obj -354 6 inlet;
#X obj -285 12 inlet;
#X obj -287 332 outlet;
#X obj -283 132 == 1;
#X connect 0 0 5 0;
#X connect 0 0 1 0;
#X connect 0 0 3 0;
#X connect 1 0 2 0;
#X connect 2 0 3 1;
#X connect 3 0 4 0;
#X connect 4 0 7 0;
#X connect 4 0 6 0;
#X connect 4 0 9 0;
#X connect 5 0 2 1;
#X connect 6 0 8 0;
#X connect 7 0 8 1;
#X connect 8 0 9 1;
#X connect 9 0 10 0;
#X connect 10 0 20 0;
#X connect 11 0 12 1;
#X connect 11 0 14 0;
#X connect 12 0 13 0;
#X connect 13 0 14 1;
#X connect 14 0 15 0;
#X connect 14 0 16 0;
#X connect 15 0 17 0;
#X connect 16 0 0 0;
#X connect 17 0 16 1;
#X connect 18 0 12 0;
#X connect 19 0 21 0;
#X connect 21 0 17 1;
#X restore 2225 1092 pd Increm.Vol.Effect1b;
#N canvas 70 95 536 409 Increm.Vol.Effect2b 0;
#X floatatom -243 181 5 0 0 0 - - -;
#X obj -185 176 bng 15 250 50 0 empty empty empty 17 7 0 10 -262144
-1 -1;
#X obj -187 236 f;
#X obj -260 213 spigot;
#X floatatom -269 247 5 0 0 0 - - -;
#X obj -149 204 != 255;
#X obj -226 248 bng 15 250 50 0 empty empty empty 17 7 0 10 -262144
-1 -1;
#X obj -205 268 != -255;
#X obj -242 280 f;
#X obj -294 287 spigot;
#X floatatom -287 310 5 0 0 0 - - -;
#X obj -431 -2 inlet;
#X obj -328 48 f;
#X floatatom -360 84 5 0 0 0 - - -;
#X obj -398 108 -;
#X obj -313 105 bng 15 250 50 0 empty empty empty 17 7 0 10 -262144
-1 -1;
#X obj -362 177 spigot;
#X obj -311 154 f;
#X obj -354 6 inlet;
#X obj -285 12 inlet;
#X obj -287 332 outlet;
#X obj -283 132 == 1;
#X connect 0 0 5 0;
#X connect 0 0 1 0;
#X connect 0 0 3 0;
#X connect 1 0 2 0;
#X connect 2 0 3 1;
#X connect 3 0 4 0;
#X connect 4 0 7 0;
#X connect 4 0 6 0;
#X connect 4 0 9 0;
#X connect 5 0 2 1;
#X connect 6 0 8 0;
#X connect 7 0 8 1;
#X connect 8 0 9 1;
#X connect 9 0 10 0;
#X connect 10 0 20 0;
#X connect 11 0 12 1;
#X connect 11 0 14 0;
#X connect 12 0 13 0;
#X connect 13 0 14 1;
#X connect 14 0 15 0;
#X connect 14 0 16 0;
#X connect 15 0 17 0;
#X connect 16 0 0 0;
#X connect 17 0 16 1;
#X connect 18 0 12 0;
#X connect 19 0 21 0;
#X connect 21 0 17 1;
#X restore 1799 1090 pd Increm.Vol.Effect2b;
#X obj 1799 1115 s Increm2b;
#X obj 2225 1117 s Increm1b;
#X obj 2257 1152 r Increm1b;
#X obj 1976 1161 r Increm2b;
#N canvas 362 22 1280 700 TempoVol2 1;
#X obj 43 29 inlet;
#X obj 113 34 inlet;
#X obj 26 447 *~;
#X obj 72 444 *~;
#X obj 28 72 soundfiler;
#X floatatom 63 103 12 0 0 0 - - -;
#X obj 63 129 s sampleSize;
#X obj 28 152 expr 44100 / $f1;
#X floatatom 57 184 12 0 0 0 - - -;
#X obj 28 223 phasor~;
#X obj 27 279 *~;
#X obj 178 285 tgl 15 0 empty empty empty 17 7 0 10 -262144 -1 -1 1
1;
#X obj 178 321 metro 50;
#X obj 178 349 snapshot~;
#X floatatom 178 381 12 0 0 0 - - -;
#X obj 178 413 /;
#X obj 265 395 r sampleSize;
#X floatatom 178 446 5 0 0 0 - - -;
#X obj 455 357 hsl 200 15 0 1 0 0 empty empty empty -2 -8 0 10 -262144
-1 -1 0 1;
#N canvas 0 22 450 300 (subpatch) 0;
#X array PercuL 352801 float 2;
#X coords 0 1 352801 -1 200 140 1;
#X restore 455 47 graph;
#N canvas 0 22 450 300 (subpatch) 0;
#X array PercuR 352801 float 2;
#X coords 0 1 352801 -1 200 140 1;
#X restore 453 208 graph;
#N canvas 105 123 422 560 ControlTempo 0;
#X obj 137 40 inlet;
#X obj 138 72 t f b;
#X obj 89 360 f;
#X obj 69 416 +;
#X obj 48 80 / 1000;
#X floatatom 49 40 5 0 0 0 - - -;
#X obj 21 163 inlet;
#X obj 77 532 outlet;
#X floatatom 204 437 5 0 0 0 - - -;
#X floatatom 24 102 5 0 0 0 - - -;
#X floatatom 22 200 5 0 0 0 - - -;
#X obj 223 81 inlet;
#X obj 216 125 == 0;
#X obj 162 149 f;
#X obj 94 158 spigot;
#X obj 282 207 inlet;
#X obj 251 241 == 1;
#X obj 193 261 f;
#X obj 136 270 spigot;
#X obj 130 194 bng 15 250 50 0 empty empty empty 17 7 0 10 -262144
-1 -1;
#X obj 252 303 print ppp;
#X connect 0 0 1 0;
#X connect 0 0 5 0;
#X connect 1 0 4 0;
#X connect 1 1 13 0;
#X connect 1 1 14 0;
#X connect 2 0 3 0;
#X connect 2 0 8 0;
#X connect 3 0 2 1;
#X connect 3 0 7 0;
#X connect 4 0 3 1;
#X connect 4 0 9 0;
#X connect 6 0 2 1;
#X connect 6 0 10 0;
#X connect 11 0 12 0;
#X connect 12 0 13 1;
#X connect 13 0 14 1;
#X connect 14 0 19 0;
#X connect 14 0 18 0;
#X connect 15 0 16 0;
#X connect 16 0 17 1;
#X connect 16 0 20 0;
#X connect 17 0 18 1;
#X connect 18 0 2 0;
#X connect 19 0 17 0;
#X restore 199 107 pd ControlTempo;
#X floatatom 186 172 5 0 0 0 - - -;
#X obj 289 65 inlet;
#X obj 205 212 *;
#X obj 246 164 bng 15 250 50 0 empty empty empty 17 7 0 10 -262144
-1 -1;
#X obj 142 193 r TemTot;
#X obj 340 112 inlet;
#X floatatom 225 247 5 0 0 0 - - -;
#X obj 178 586 outlet~;
#X obj 237 590 outlet~;
#X floatatom 109 418 5 0 0 0 - - -;
#X obj 55 254 r sampleSize;
#X msg -30 122 0;
#X msg -40 249 0.125;
#X msg -43 276 0.25;
#X obj -33 101 bng 15 250 50 0 empty empty empty 17 7 0 10 -262144
-1 -1;
#X obj -64 196 == 0;
#X msg -31 207 0;
#X obj -63 388 s~ tabreadLb;
#X obj -68 416 s~ tabreadRb;
#X obj 9 341 tabread4~ PercuL;
#X obj 47 372 tabread4~ PercuR;
#X obj 188 515 r~ Effectb;
#X obj 33 404 r Vol1b;
#X connect 0 0 4 0;
#X connect 0 0 36 0;
#X connect 0 0 37 0;
#X connect 1 0 21 1;
#X connect 2 0 29 0;
#X connect 3 0 30 0;
#X connect 4 0 5 0;
#X connect 4 0 7 0;
#X connect 5 0 6 0;
#X connect 7 0 8 0;
#X connect 7 0 9 0;
#X connect 8 0 21 0;
#X connect 9 0 10 0;
#X connect 10 0 13 0;
#X connect 10 0 41 0;
#X connect 10 0 42 0;
#X connect 11 0 12 0;
#X connect 12 0 13 0;
#X connect 13 0 14 0;
#X connect 14 0 15 0;
#X connect 15 0 17 0;
#X connect 16 0 15 1;
#X connect 17 0 18 0;
#X connect 21 0 22 0;
#X connect 22 0 24 1;
#X connect 22 0 25 0;
#X connect 23 0 21 2;
#X connect 24 0 9 0;
#X connect 24 0 28 0;
#X connect 25 0 24 0;
#X connect 26 0 24 0;
#X connect 27 0 21 3;
#X connect 32 0 10 1;
#X connect 33 0 9 1;
#X connect 34 0 9 0;
#X connect 35 0 9 0;
#X connect 36 0 33 0;
#X connect 37 0 38 0;
#X connect 38 0 9 0;
#X connect 41 0 2 0;
#X connect 41 0 39 0;
#X connect 42 0 3 0;
#X connect 42 0 40 0;
#X connect 43 0 29 0;
#X connect 43 0 30 0;
#X connect 44 0 2 1;
#X connect 44 0 3 1;
#X connect 44 0 31 0;
#X restore 1846 1188 pd TempoVol2;
#X obj 1959 1182 r Interruptor2;
#X obj 2259 1264 s Vol1b;
#N canvas 687 22 475 515 VolumenBucle2 0;
#X obj -390 214 +;
#X obj -443 199 \$1;
#X floatatom -393 240 5 0 0 0 - - -;
#X obj -520 230 print ValorAnterior;
#X floatatom -446 268 5 0 0 0 - - -;
#X obj -395 261 moses 0;
#X floatatom -404 285 5 0 0 0 - - -;
#X floatatom -394 330 5 0 0 0 - - -;
#X obj -399 308 moses 255;
#X obj -398 362 / 254;
#X obj -442 396 outlet;
#X obj -675 63 inlet;
#X obj -575 70 inlet;
#X obj -649 152 spigot;
#X obj -575 92 == 0;
#X obj -612 108 f;
#X obj -625 83 bng 15 250 50 0 empty empty empty 17 7 0 10 -262144
-1 -1;
#X obj -586 140 print;
#X connect 0 0 1 0;
#X connect 0 0 2 0;
#X connect 1 0 0 1;
#X connect 1 0 3 0;
#X connect 2 0 5 0;
#X connect 5 0 4 0;
#X connect 5 1 6 0;
#X connect 6 0 8 0;
#X connect 7 0 9 0;
#X connect 8 0 7 0;
#X connect 9 0 10 0;
#X connect 11 0 16 0;
#X connect 11 0 13 0;
#X connect 12 0 14 0;
#X connect 13 0 0 0;
#X connect 14 0 15 1;
#X connect 15 0 13 1;
#X connect 15 0 17 0;
#X connect 16 0 15 0;
#X restore 2257 1173 pd VolumenBucle2;
#X obj 2116 1286 r Pot2;
#X obj 1845 1333 r Interruptor2;
#X obj 1747 1324 r Increm1b;
#N canvas 162 63 549 576 Effet1b 0;
#X obj -387 384 +;
#X obj -440 369 \$1;
#X floatatom -390 410 5 0 0 0 - - -;
#X floatatom -443 438 5 0 0 0 - - -;
#X obj -392 431 moses 0;
#X floatatom -401 455 5 0 0 0 - - -;
#X floatatom -391 500 5 0 0 0 - - -;
#X obj -396 478 moses 255;
#X obj -395 532 / 254;
#X obj -439 566 outlet;
#X obj -565 80 inlet;
#X obj -639 162 spigot;
#X obj -602 118 f;
#X obj -615 93 bng 15 250 50 0 empty empty empty 17 7 0 10 -262144
-1 -1;
#X obj -565 102 == 1;
#X obj -665 73 inlet;
#X obj -454 128 inlet;
#X obj -451 184 == 1;
#X obj -473 215 f;
#X obj -557 181 bng 15 250 50 0 empty empty empty 17 7 0 10 -262144
-1 -1;
#X obj -492 258 spigot;
#X connect 0 0 1 0;
#X connect 0 0 2 0;
#X connect 1 0 0 1;
#X connect 2 0 4 0;
#X connect 4 0 3 0;
#X connect 4 1 5 0;
#X connect 5 0 7 0;
#X connect 6 0 8 0;
#X connect 7 0 6 0;
#X connect 8 0 9 0;
#X connect 10 0 14 0;
#X connect 11 0 19 0;
#X connect 11 0 20 0;
#X connect 12 0 11 1;
#X connect 13 0 12 0;
#X connect 14 0 12 1;
#X connect 15 0 13 0;
#X connect 15 0 11 0;
#X connect 16 0 17 0;
#X connect 17 0 18 1;
#X connect 18 0 20 1;
#X connect 19 0 18 0;
#X connect 20 0 0 0;
#X restore 1756 1346 pd Effet1b;
#X obj 1757 1448 s ValorEffet1b;
#X obj 1823 1507 r ValorEffet1b;
#X obj 1615 1655 s roomsizeb;
#X obj 1744 1713 r~ tabreadLb;
#X obj 1827 1712 r roomsizeb;
#X obj 1827 1741 r~ tabreadRb;
#X obj 1962 1713 r wetb;
#X obj 2005 1712 r dryb;
#X obj 1924 1761 s~ Effectb;
#X obj 2173 1766 r Vol1b;
#X obj 2332 1319 r Increm2b;
#X obj 2406 1344 r Interruptor2;
#N canvas 802 72 473 569 Effet2b 0;
#X obj -191 285 +;
#X obj -245 282 \$1;
#X floatatom -194 311 5 0 0 0 - - -;
#X floatatom -247 339 5 0 0 0 - - -;
#X obj -196 332 moses 0;
#X floatatom -205 356 5 0 0 0 - - -;
#X floatatom -195 401 5 0 0 0 - - -;
#X obj -200 379 moses 255;
#X obj -199 433 / 254;
#X obj -243 467 outlet;
#X obj -242 75 inlet;
#X obj -142 48 inlet;
#X obj -216 164 spigot;
#X obj -179 120 f;
#X obj -192 95 bng 15 250 50 0 empty empty empty 17 7 0 10 -262144
-1 -1;
#X obj -153 152 print;
#X obj -141 104 == 1;
#X obj -64 152 inlet;
#X obj -90 184 == 1;
#X obj -114 209 f;
#X obj -177 245 spigot;
#X obj -166 196 bng 15 250 50 0 empty empty empty 17 7 0 10 -262144
-1 -1;
#X connect 0 0 1 0;
#X connect 0 0 2 0;
#X connect 1 0 0 1;
#X connect 2 0 4 0;
#X connect 4 0 3 0;
#X connect 4 1 5 0;
#X connect 5 0 7 0;
#X connect 6 0 8 0;
#X connect 7 0 6 0;
#X connect 8 0 9 0;
#X connect 10 0 14 0;
#X connect 10 0 12 0;
#X connect 11 0 16 0;
#X connect 12 0 21 0;
#X connect 12 0 20 0;
#X connect 13 0 12 1;
#X connect 13 0 15 0;
#X connect 14 0 13 0;
#X connect 16 0 13 1;
#X connect 17 0 18 0;
#X connect 18 0 19 1;
#X connect 19 0 20 1;
#X connect 20 0 0 0;
#X connect 21 0 19 0;
#X restore 2333 1342 pd Effet2b;
#X obj 2333 1463 s ValorEffet2b;
#X obj 2397 1505 r ValorEffet2b;
#X obj 2205 1685 s dryb;
#X obj 2145 1659 s wetb;
#X obj 2088 2189 vradio 15 1 0 8 empty empty empty 0 -8 0 10 -13330
-1 -1 0;
#X floatatom 2084 2318 5 0 0 0 - - -;
#X floatatom 2228 2011 5 0 0 0 - - -;
#X obj 2230 2039 *;
#X floatatom 2230 2060 5 0 0 0 - - -;
#X obj 2266 2011 bng 15 250 50 0 empty empty empty 17 7 0 10 -262144
-1 -1;
#X obj 2087 2123 / 254;
#X obj 2087 2147 * 7;
#X obj 2062 2554 freeverb~;
#X obj 1803 2036 dac~;
#X obj 2257 1886 r bangE1;
#X obj 2170 2017 r VolTot;
#X obj 2184 1888 r Encoder1;
#X obj 2321 1967 r Interruptor4;
#X floatatom 1881 1961 5 0 0 0 - - -;
#X obj 1913 2047 r Interruptor4;
#X obj 1758 1886 r Encoder2;
#X obj 1831 1884 r bangE2;
#X text 1862 2608 Effet va al pd de TempoVol1;
#X msg 1636 2220 roomsize \$1;
#X obj 1731 2217 hsl 128 15 0 1 0 0 empty empty empty -2 -8 0 10 -4034
-1 -1 0 1;
#X floatatom 1728 2242 5 0 0 0 - - -;
#X text 1780 2240 Roomize;
#X floatatom 1727 2184 5 0 0 0 - - -;
#X obj 1783 2106 r Interruptor4;
#X obj 1669 2322 r ValorEffet1Global;
#X obj 1749 2387 *;
#X obj 1671 2352 bng 15 250 50 0 empty empty empty 17 7 0 10 -262144
-1 -1;
#X obj 1685 2422 hsl 254 15 0 1 0 0 empty empty empty -2 -8 0 10 -4034
-1 -1 0 1;
#X floatatom 1684 2446 5 0 0 0 - - -;
#X msg 1586 2447 roomsize \$1;
#X obj 2306 2205 hsl 128 15 0 1 0 0 empty empty empty -2 -8 0 10 -4032
-1 -1 0 1;
#X floatatom 2303 2224 5 0 0 0 - - -;
#X text 2353 2232 Wet signal to dry signal ratio;
#X text 2353 2248 (0 : all dry \, 1 : all wet);
#X floatatom 2303 2179 5 0 0 0 - - -;
#X obj 2370 2132 r Interruptor4;
#X obj 2243 2320 r ValorEffet2Global;
#X obj 2279 2359 bng 15 250 50 0 empty empty empty 17 7 0 10 -262144
-1 -1;
#X obj 2338 2389 *;
#X obj 2258 2430 hsl 254 15 0 1 0 0 empty empty empty -2 -8 0 10 -4032
-1 -1 0 1;
#X floatatom 2254 2453 5 0 0 0 - - -;
#X msg 2174 2242 wet \$1;
#X msg 2234 2267 dry \$1;
#X obj 2234 2246 expr 1-$f1;
#X msg 2116 2454 wet \$1;
#X msg 2176 2479 dry \$1;
#X obj 2176 2458 expr 1-$f1;
#X obj 2063 2582 *~;
#X obj 1770 1932 s Increm2b;
#X obj 1933 2530 r wetb;
#X obj 1976 2529 r dryb;
#X text 1780 1852 Côntrolle de tempo du loop 3;
#X text 2205 1867 Côntrolle de volume du loop 3;
#X obj 1893 1884 r Interruptor3;
#N canvas 70 95 536 409 Increm.Vol.Effect2c 0;
#X floatatom -243 181 5 0 0 0 - - -;
#X obj -185 176 bng 15 250 50 0 empty empty empty 17 7 0 10 -262144
-1 -1;
#X obj -187 236 f;
#X obj -260 213 spigot;
#X floatatom -269 247 5 0 0 0 - - -;
#X obj -149 204 != 255;
#X obj -226 248 bng 15 250 50 0 empty empty empty 17 7 0 10 -262144
-1 -1;
#X obj -205 268 != -255;
#X obj -242 280 f;
#X obj -294 287 spigot;
#X floatatom -287 310 5 0 0 0 - - -;
#X obj -431 -2 inlet;
#X obj -328 48 f;
#X floatatom -360 84 5 0 0 0 - - -;
#X obj -398 108 -;
#X obj -313 105 bng 15 250 50 0 empty empty empty 17 7 0 10 -262144
-1 -1;
#X obj -362 177 spigot;
#X obj -311 154 f;
#X obj -354 6 inlet;
#X obj -285 12 inlet;
#X obj -287 332 outlet;
#X obj -283 132 == 1;
#X connect 0 0 5 0;
#X connect 0 0 1 0;
#X connect 0 0 3 0;
#X connect 1 0 2 0;
#X connect 2 0 3 1;
#X connect 3 0 4 0;
#X connect 4 0 7 0;
#X connect 4 0 6 0;
#X connect 4 0 9 0;
#X connect 5 0 2 1;
#X connect 6 0 8 0;
#X connect 7 0 8 1;
#X connect 8 0 9 1;
#X connect 9 0 10 0;
#X connect 10 0 20 0;
#X connect 11 0 12 1;
#X connect 11 0 14 0;
#X connect 12 0 13 0;
#X connect 13 0 14 1;
#X connect 14 0 15 0;
#X connect 14 0 16 0;
#X connect 15 0 17 0;
#X connect 16 0 0 0;
#X connect 17 0 16 1;
#X connect 18 0 12 0;
#X connect 19 0 21 0;
#X connect 21 0 17 1;
#X restore 1770 1907 pd Increm.Vol.Effect2c;
#X obj 2319 1886 r Interruptor3;
#N canvas 70 95 536 409 Increm.Vol.Effect1c 0;
#X floatatom -243 181 5 0 0 0 - - -;
#X obj -185 176 bng 15 250 50 0 empty empty empty 17 7 0 10 -262144
-1 -1;
#X obj -187 236 f;
#X obj -260 213 spigot;
#X floatatom -269 247 5 0 0 0 - - -;
#X obj -149 204 != 255;
#X obj -226 248 bng 15 250 50 0 empty empty empty 17 7 0 10 -262144
-1 -1;
#X obj -205 268 != -255;
#X obj -242 280 f;
#X obj -294 287 spigot;
#X floatatom -287 310 5 0 0 0 - - -;
#X obj -431 -2 inlet;
#X obj -328 48 f;
#X floatatom -360 84 5 0 0 0 - - -;
#X obj -398 108 -;
#X obj -313 105 bng 15 250 50 0 empty empty empty 17 7 0 10 -262144
-1 -1;
#X obj -362 177 spigot;
#X obj -311 154 f;
#X obj -354 6 inlet;
#X obj -285 12 inlet;
#X obj -287 332 outlet;
#X obj -283 132 == 1;
#X connect 0 0 5 0;
#X connect 0 0 1 0;
#X connect 0 0 3 0;
#X connect 1 0 2 0;
#X connect 2 0 3 1;
#X connect 3 0 4 0;
#X connect 4 0 7 0;
#X connect 4 0 6 0;
#X connect 4 0 9 0;
#X connect 5 0 2 1;
#X connect 6 0 8 0;
#X connect 7 0 8 1;
#X connect 8 0 9 1;
#X connect 9 0 10 0;
#X connect 10 0 20 0;
#X connect 11 0 12 1;
#X connect 11 0 14 0;
#X connect 12 0 13 0;
#X connect 13 0 14 1;
#X connect 14 0 15 0;
#X connect 14 0 16 0;
#X connect 15 0 17 0;
#X connect 16 0 0 0;
#X connect 17 0 16 1;
#X connect 18 0 12 0;
#X connect 19 0 21 0;
#X connect 21 0 17 1;
#X restore 2196 1909 pd Increm.Vol.Effect1c;
#X obj 2196 1934 s Increm1c;
#X obj 2228 1969 r Increm1c;
#N canvas 687 22 475 515 VolumenBucle3 0;
#X obj -390 214 +;
#X obj -443 199 \$1;
#X floatatom -393 240 5 0 0 0 - - -;
#X floatatom -446 268 5 0 0 0 - - -;
#X obj -395 261 moses 0;
#X floatatom -404 285 5 0 0 0 - - -;
#X floatatom -394 330 5 0 0 0 - - -;
#X obj -399 308 moses 255;
#X obj -398 362 / 254;
#X obj -442 396 outlet;
#X obj -675 63 inlet;
#X obj -575 70 inlet;
#X obj -649 152 spigot;
#X obj -575 92 == 0;
#X obj -612 108 f;
#X obj -625 83 bng 15 250 50 0 empty empty empty 17 7 0 10 -262144
-1 -1;
#X obj -586 140 print;
#X connect 0 0 1 0;
#X connect 0 0 2 0;
#X connect 1 0 0 1;
#X connect 2 0 4 0;
#X connect 4 0 3 0;
#X connect 4 1 5 0;
#X connect 5 0 7 0;
#X connect 6 0 8 0;
#X connect 7 0 6 0;
#X connect 8 0 9 0;
#X connect 10 0 15 0;
#X connect 10 0 12 0;
#X connect 11 0 13 0;
#X connect 12 0 0 0;
#X connect 13 0 14 1;
#X connect 14 0 12 1;
#X connect 14 0 16 0;
#X connect 15 0 14 0;
#X restore 2228 1990 pd VolumenBucle3;
#N canvas 570 22 1280 700 TempoVol3 0;
#X obj 43 29 inlet;
#X obj 113 34 inlet;
#X obj 26 447 *~;
#X obj 72 444 *~;
#X obj 28 72 soundfiler;
#X floatatom 63 103 12 0 0 0 - - -;
#X obj 63 129 s sampleSize;
#X obj 28 152 expr 44100 / $f1;
#X floatatom 57 184 12 0 0 0 - - -;
#X obj 28 223 phasor~;
#X obj 27 279 *~;
#X obj 178 285 tgl 15 0 empty empty empty 17 7 0 10 -262144 -1 -1 1
1;
#X obj 178 321 metro 50;
#X obj 178 349 snapshot~;
#X floatatom 178 381 12 0 0 0 - - -;
#X obj 178 413 /;
#X obj 265 395 r sampleSize;
#X floatatom 178 446 5 0 0 0 - - -;
#X obj 455 357 hsl 200 15 0 1 0 0 empty empty empty -2 -8 0 10 -262144
-1 -1 0 1;
#N canvas 0 22 450 300 (subpatch) 0;
#X array EffectL 352801 float 2;
#X coords 0 1 352801 -1 200 140 1;
#X restore 455 47 graph;
#N canvas 0 22 450 300 (subpatch) 0;
#X array EffectR 352801 float 2;
#X coords 0 1 352801 -1 200 140 1 0 0;
#X restore 453 208 graph;
#N canvas 105 123 422 560 ControlTempo 0;
#X obj 137 40 inlet;
#X obj 138 72 t f b;
#X obj 89 360 f;
#X obj 69 416 +;
#X obj 48 80 / 1000;
#X floatatom 49 40 5 0 0 0 - - -;
#X obj 21 163 inlet;
#X obj 77 532 outlet;
#X floatatom 204 437 5 0 0 0 - - -;
#X floatatom 24 102 5 0 0 0 - - -;
#X floatatom 22 200 5 0 0 0 - - -;
#X obj 223 81 inlet;
#X obj 216 125 == 0;
#X obj 162 149 f;
#X obj 94 158 spigot;
#X obj 282 207 inlet;
#X obj 251 241 == 1;
#X obj 193 261 f;
#X obj 136 270 spigot;
#X obj 130 194 bng 15 250 50 0 empty empty empty 17 7 0 10 -262144
-1 -1;
#X obj 252 303 print ppp;
#X connect 0 0 1 0;
#X connect 0 0 5 0;
#X connect 1 0 4 0;
#X connect 1 1 13 0;
#X connect 1 1 14 0;
#X connect 2 0 3 0;
#X connect 2 0 8 0;
#X connect 3 0 2 1;
#X connect 3 0 7 0;
#X connect 4 0 3 1;
#X connect 4 0 9 0;
#X connect 6 0 2 1;
#X connect 6 0 10 0;
#X connect 11 0 12 0;
#X connect 12 0 13 1;
#X connect 13 0 14 1;
#X connect 14 0 19 0;
#X connect 14 0 18 0;
#X connect 15 0 16 0;
#X connect 16 0 17 1;
#X connect 16 0 20 0;
#X connect 17 0 18 1;
#X connect 18 0 2 0;
#X connect 19 0 17 0;
#X restore 199 107 pd ControlTempo;
#X floatatom 186 172 5 0 0 0 - - -;
#X obj 289 65 inlet;
#X obj 205 212 *;
#X obj 246 164 bng 15 250 50 0 empty empty empty 17 7 0 10 -262144
-1 -1;
#X obj 142 193 r TemTot;
#X obj 340 112 inlet;
#X floatatom 225 247 5 0 0 0 - - -;
#X obj 178 586 outlet~;
#X obj 237 590 outlet~;
#X floatatom 109 418 5 0 0 0 - - -;
#X obj 55 254 r sampleSize;
#X msg -30 122 0;
#X msg -40 249 0.125;
#X msg -43 276 0.25;
#X obj -33 101 bng 15 250 50 0 empty empty empty 17 7 0 10 -262144
-1 -1;
#X obj -64 196 == 0;
#X msg -31 207 0;
#X obj 9 341 tabread4~ EffectL;
#X obj 47 372 tabread4~ EffectR;
#X obj -63 388 s~ tabreadLc;
#X obj -68 416 s~ tabreadRc;
#X obj 188 515 r~ Effectc;
#X obj 33 404 r Vol1c;
#X connect 0 0 4 0;
#X connect 0 0 36 0;
#X connect 0 0 37 0;
#X connect 1 0 21 1;
#X connect 2 0 29 0;
#X connect 3 0 30 0;
#X connect 4 0 5 0;
#X connect 4 0 7 0;
#X connect 5 0 6 0;
#X connect 7 0 8 0;
#X connect 7 0 9 0;
#X connect 8 0 21 0;
#X connect 9 0 10 0;
#X connect 10 0 13 0;
#X connect 10 0 39 0;
#X connect 10 0 40 0;
#X connect 11 0 12 0;
#X connect 12 0 13 0;
#X connect 13 0 14 0;
#X connect 14 0 15 0;
#X connect 15 0 17 0;
#X connect 16 0 15 1;
#X connect 17 0 18 0;
#X connect 21 0 22 0;
#X connect 22 0 24 1;
#X connect 22 0 25 0;
#X connect 23 0 21 2;
#X connect 24 0 9 0;
#X connect 24 0 28 0;
#X connect 25 0 24 0;
#X connect 26 0 24 0;
#X connect 27 0 21 3;
#X connect 32 0 10 1;
#X connect 33 0 9 1;
#X connect 34 0 9 0;
#X connect 35 0 9 0;
#X connect 36 0 33 0;
#X connect 37 0 38 0;
#X connect 38 0 9 0;
#X connect 39 0 2 0;
#X connect 39 0 41 0;
#X connect 40 0 3 0;
#X connect 40 0 42 0;
#X connect 43 0 29 0;
#X connect 43 0 30 0;
#X connect 44 0 2 1;
#X connect 44 0 3 1;
#X connect 44 0 31 0;
#X restore 1817 2005 pd TempoVol3;
#X obj 1947 1978 r Increm2c;
#X obj 1930 1999 r Interruptor3;
#X obj 2230 2081 s Vol1c;
#X obj 1718 2141 r Increm1c;
#X obj 1816 2150 r Interruptor3;
#N canvas 162 63 549 576 Effet1c 0;
#X obj -387 384 +;
#X obj -440 369 \$1;
#X floatatom -390 410 5 0 0 0 - - -;
#X floatatom -443 438 5 0 0 0 - - -;
#X obj -392 431 moses 0;
#X floatatom -401 455 5 0 0 0 - - -;
#X floatatom -391 500 5 0 0 0 - - -;
#X obj -396 478 moses 255;
#X obj -395 532 / 254;
#X obj -439 566 outlet;
#X obj -565 80 inlet;
#X obj -639 162 spigot;
#X obj -602 118 f;
#X obj -615 93 bng 15 250 50 0 empty empty empty 17 7 0 10 -262144
-1 -1;
#X obj -565 102 == 1;
#X obj -665 73 inlet;
#X obj -454 128 inlet;
#X obj -451 184 == 1;
#X obj -473 215 f;
#X obj -557 181 bng 15 250 50 0 empty empty empty 17 7 0 10 -262144
-1 -1;
#X obj -492 258 spigot;
#X connect 0 0 1 0;
#X connect 0 0 2 0;
#X connect 1 0 0 1;
#X connect 2 0 4 0;
#X connect 4 0 3 0;
#X connect 4 1 5 0;
#X connect 5 0 7 0;
#X connect 6 0 8 0;
#X connect 7 0 6 0;
#X connect 8 0 9 0;
#X connect 10 0 14 0;
#X connect 11 0 19 0;
#X connect 11 0 20 0;
#X connect 12 0 11 1;
#X connect 13 0 12 0;
#X connect 14 0 12 1;
#X connect 15 0 13 0;
#X connect 15 0 11 0;
#X connect 16 0 17 0;
#X connect 17 0 18 1;
#X connect 18 0 20 1;
#X connect 19 0 18 0;
#X connect 20 0 0 0;
#X restore 1727 2163 pd Effet1c;
#X obj 2377 2161 r Interruptor3;
#N canvas 802 72 473 569 Effet2c 0;
#X obj -191 285 +;
#X obj -245 282 \$1;
#X floatatom -194 311 5 0 0 0 - - -;
#X floatatom -247 339 5 0 0 0 - - -;
#X obj -196 332 moses 0;
#X floatatom -205 356 5 0 0 0 - - -;
#X floatatom -195 401 5 0 0 0 - - -;
#X obj -200 379 moses 255;
#X obj -199 433 / 254;
#X obj -243 467 outlet;
#X obj -242 75 inlet;
#X obj -142 48 inlet;
#X obj -216 164 spigot;
#X obj -179 120 f;
#X obj -192 95 bng 15 250 50 0 empty empty empty 17 7 0 10 -262144
-1 -1;
#X obj -153 152 print;
#X obj -141 104 == 1;
#X obj -64 152 inlet;
#X obj -90 184 == 1;
#X obj -114 209 f;
#X obj -177 245 spigot;
#X obj -166 196 bng 15 250 50 0 empty empty empty 17 7 0 10 -262144
-1 -1;
#X connect 0 0 1 0;
#X connect 0 0 2 0;
#X connect 1 0 0 1;
#X connect 2 0 4 0;
#X connect 4 0 3 0;
#X connect 4 1 5 0;
#X connect 5 0 7 0;
#X connect 6 0 8 0;
#X connect 7 0 6 0;
#X connect 8 0 9 0;
#X connect 10 0 14 0;
#X connect 10 0 12 0;
#X connect 11 0 16 0;
#X connect 12 0 21 0;
#X connect 12 0 20 0;
#X connect 13 0 12 1;
#X connect 13 0 15 0;
#X connect 14 0 13 0;
#X connect 16 0 13 1;
#X connect 17 0 18 0;
#X connect 18 0 19 1;
#X connect 19 0 20 1;
#X connect 20 0 0 0;
#X connect 21 0 19 0;
#X restore 2304 2159 pd Effet2c;
#X obj 2303 2136 r Increm2c;
#X obj 2304 2280 s ValorEffet2c;
#X obj 2368 2322 r ValorEffet2c;
#X obj 2116 2476 s wetc;
#X obj 2176 2502 s dryc;
#X obj 2144 2583 r Vol1c;
#X obj 1895 2578 s~ Effectc;
#X obj 1798 2558 r~ tabreadRc;
#X obj 1798 2529 r roomsizec;
#X obj 1715 2530 r~ tabreadLc;
#X obj 1586 2472 s roomsizec;
#X obj 1794 2324 r ValorEffet1c;
#X obj 2087 2103 r Pot3;
#X obj 1728 2265 s ValorEffet1c;
#X text 1957 -40 Encoder1 va al Pin 2 y 6 (extremos) Ground el del
medio;
#X text 1957 -18 Encoder2 va al Pin 3 y 7 (extremos) Ground el del
medio.;
#X text 1918 -63 Comunicacion con ARDUINO:;
#X text 1955 111 Interruptor4 (Un extremo a 5 volteos \, el otro va
a pin 13 y al ground con una resistencia;
#X floatatom 2117 1352 5 0 0 0 - - -;
#X floatatom 2087 2169 5 0 0 0 - - -;
#X floatatom 2221 554 5 0 0 0 - - -;
#X text 1956 7 Interruptor1 (Un extremo a 5 volteor \, el otro al pin
4 y a ground con una resistencia;
#X text 1956 43 Interruptor2 (Un extremo a 5 volteor \, el otro al
pin 8 y a ground con una resistencia;
#X text 1955 76 Interruptor3 (Un extremo a 5 volteor \, el otro al
pin 12 y a ground con una resistencia;
#X text 1956 145 Pot1 el del medio a A0 extremos 5V y ground;
#X text 1956 167 Pot2 el del medio a A1 extremos 5V y ground;
#X text 1956 189 Pot3 el del medio a A2 extremos 5V y ground;
#X obj 574 265 s Pot2;
#X obj 650 264 s Pot3;
#X obj 2113 1551 s Percu;
#X obj 1756 1150 r Percu;
#N canvas 701 318 450 300 Percu 1;
#X obj 143 42 sel 1;
#X obj 141 81 sel 2;
#X obj 119 125 sel 3;
#X obj 125 192 sel 4;
#X obj 34 -21 inlet;
#X obj 30 210 outlet;
#X obj 138 9 sel 0;
#X obj 193 8 0;
#X msg 187 40 read /Users/Carlos/Documents/Arduino/PureDataAntiguo/Drums/8seg/120/Bongo1.wav
PercuL PercuR;
#X msg 176 90 read /Users/Carlos/Documents/Arduino/PureDataAntiguo/Drums/8seg/120/Conga3.wav
PercuL PercuR;
#X msg 174 144 read /Users/Carlos/Documents/Arduino/PureDataAntiguo/Drums/8seg/120/Congos.wav
PercuL PercuR;
#X msg 174 190 read /Users/Carlos/Documents/Arduino/PureDataAntiguo/Drums/8seg/120/Congoselect.wav
PercuL PercuR;
#X connect 0 0 8 0;
#X connect 1 0 9 0;
#X connect 2 0 10 0;
#X connect 3 0 11 0;
#X connect 4 0 0 0;
#X connect 4 0 1 0;
#X connect 4 0 2 0;
#X connect 4 0 3 0;
#X connect 4 0 6 0;
#X connect 6 0 7 0;
#X connect 7 0 5 0;
#X connect 8 0 5 0;
#X connect 9 0 5 0;
#X connect 10 0 5 0;
#X connect 11 0 5 0;
#X restore 2113 1523 pd Percu;
#X obj 2084 2368 s effet;
#N canvas 641 195 450 300 effet 0;
#X obj 143 42 sel 1;
#X obj 141 81 sel 2;
#X obj 119 125 sel 3;
#X obj 125 192 sel 4;
#X obj 34 -21 inlet;
#X obj 30 210 outlet;
#X obj 138 9 sel 0;
#X obj 193 8 0;
#X msg 176 91 read /Users/Carlos/Documents/Arduino/PureDataAntiguo/Effects/Synth/120BPM_Booty_Organ_02_Cmin.wav
EffectL EffectR;
#X msg 174 144 read /Users/Carlos/Documents/Arduino/PureDataAntiguo/Effects/Synth/120BPM_Backing_Pluck_Amin.wav
EffectL EffectR;
#X msg 174 190 read /Users/Carlos/Documents/Arduino/PureDataAntiguo/Effects/Synth/120BPM_Soft_Vibes_Gmin.wav
EffectL EffectR;
#X msg 187 40 read /Users/Carlos/Documents/Arduino/PureDataAntiguo/Effects/Synth/120BPM_Rhodes_Bed_03_Dmin.wav
EffectL EffectR;
#X connect 0 0 11 0;
#X connect 1 0 8 0;
#X connect 2 0 9 0;
#X connect 3 0 10 0;
#X connect 4 0 0 0;
#X connect 4 0 1 0;
#X connect 4 0 2 0;
#X connect 4 0 3 0;
#X connect 4 0 6 0;
#X connect 6 0 7 0;
#X connect 7 0 5 0;
#X connect 8 0 5 0;
#X connect 9 0 5 0;
#X connect 10 0 5 0;
#X connect 11 0 5 0;
#X restore 2083 2340 pd effet;
#X obj 1727 1967 r effet;
#X text 1891 1791 Effet va al pd de TempoVol2;
#X obj 2121 487 r Pot1;
#X obj 2135 520 / 254;
#X obj 2127 562 * 7;
#X obj 2127 591 int;
#X floatatom 2131 645 5 0 0 0 - - -;
#X floatatom 347 283 5 0 0 0 - - -;
#X obj 374 222 bng 15 250 50 0 empty empty empty 17 7 0 10 -262144
-1 -1;
#N canvas 511 344 450 300 sel 1;
#X obj 56 6 inlet;
#X obj 17 50 sel 32;
#X obj 60 50 sel 64;
#X obj 105 50 sel 96;
#X obj 333 183 outlet;
#X obj 149 48 sel 128;
#X obj 200 50 sel 160;
#X obj 255 50 sel 192;
#X obj 313 49 sel 224;
#X msg 24 112 0;
#X msg 67 114 1;
#X msg 108 116 2;
#X msg 153 118 3;
#X msg 200 120 4;
#X msg 268 120 5;
#X msg 318 122 6;
#X connect 0 0 1 0;
#X connect 0 0 2 0;
#X connect 0 0 3 0;
#X connect 0 0 5 0;
#X connect 0 0 6 0;
#X connect 0 0 7 0;
#X connect 0 0 8 0;
#X connect 1 0 9 0;
#X connect 2 0 10 0;
#X connect 3 0 11 0;
#X connect 5 0 12 0;
#X connect 6 0 13 0;
#X connect 7 0 14 0;
#X connect 8 0 15 0;
#X connect 9 0 4 0;
#X connect 10 0 4 0;
#X connect 11 0 4 0;
#X connect 12 0 4 0;
#X connect 13 0 4 0;
#X connect 14 0 4 0;
#X connect 15 0 4 0;
#X restore 347 262 pd sel;
#X obj 391 284 s Pot1;
#X connect 0 0 17 0;
#X connect 1 0 0 0;
#X connect 2 0 31 0;
#X connect 3 0 4 0;
#X connect 3 0 6 0;
#X connect 4 0 3 1;
#X connect 5 0 3 1;
#X connect 6 0 18 0;
#X connect 7 1 2 0;
#X connect 9 0 10 1;
#X connect 10 0 12 0;
#X connect 11 0 12 1;
#X connect 13 0 36 0;
#X connect 14 0 141 0;
#X connect 15 0 28 0;
#X connect 16 0 15 0;
#X connect 16 1 27 0;
#X connect 17 0 34 0;
#X connect 17 1 23 0;
#X connect 18 0 19 1;
#X connect 18 1 20 0;
#X connect 18 2 7 0;
#X connect 19 0 22 0;
#X connect 20 0 21 0;
#X connect 21 0 19 0;
#X connect 21 1 22 1;
#X connect 22 0 2 1;
#X connect 23 0 3 0;
#X connect 23 1 6 1;
#X connect 27 0 10 0;
#X connect 27 1 9 0;
#X connect 27 2 30 0;
#X connect 27 3 29 0;
#X connect 28 0 16 0;
#X connect 28 1 15 1;
#X connect 29 0 30 1;
#X connect 30 0 11 0;
#X connect 31 0 28 0;
#X connect 32 0 31 1;
#X connect 33 0 31 1;
#X connect 34 0 32 0;
#X connect 34 1 2 0;
#X connect 34 2 33 0;
#X connect 34 3 5 0;
#X connect 36 0 14 0;
#X connect 36 1 37 0;
#X connect 37 0 116 0;
#X connect 38 0 142 0;
#X connect 39 0 38 0;
#X connect 39 1 40 0;
#X connect 40 0 117 0;
#X connect 41 0 118 0;
#X connect 42 0 41 0;
#X connect 42 1 43 0;
#X connect 44 0 126 0;
#X connect 45 0 44 0;
#X connect 45 1 46 0;
#X connect 47 0 129 0;
#X connect 48 0 47 0;
#X connect 48 1 49 0;
#X connect 50 0 451 0;
#X connect 51 0 50 0;
#X connect 51 1 450 0;
#X connect 52 0 140 0;
#X connect 53 0 52 0;
#X connect 53 1 54 0;
#X connect 55 0 435 0;
#X connect 56 0 55 0;
#X connect 56 1 57 0;
#X connect 58 0 436 0;
#X connect 59 0 58 0;
#X connect 59 1 60 0;
#X connect 62 0 61 0;
#X connect 62 1 63 0;
#X connect 64 0 39 0;
#X connect 65 0 42 0;
#X connect 66 0 45 0;
#X connect 67 0 48 0;
#X connect 68 0 51 0;
#X connect 69 0 53 0;
#X connect 70 0 56 0;
#X connect 71 0 59 0;
#X connect 72 0 62 0;
#X connect 73 0 78 0;
#X connect 73 0 189 0;
#X connect 74 0 1 0;
#X connect 75 0 0 0;
#X connect 78 0 0 0;
#X connect 80 0 132 0;
#X connect 82 0 83 0;
#X connect 83 0 84 0;
#X connect 84 0 137 0;
#X connect 85 0 80 0;
#X connect 86 0 88 1;
#X connect 86 0 90 0;
#X connect 87 0 86 0;
#X connect 88 0 89 0;
#X connect 89 0 184 0;
#X connect 90 0 88 0;
#X connect 91 0 92 0;
#X connect 91 0 97 1;
#X connect 92 0 97 0;
#X connect 93 0 94 0;
#X connect 93 0 99 1;
#X connect 94 0 99 0;
#X connect 95 0 91 0;
#X connect 96 0 93 0;
#X connect 97 0 98 0;
#X connect 99 0 100 0;
#X connect 101 0 240 2;
#X connect 102 0 239 0;
#X connect 107 0 108 0;
#X connect 107 0 104 0;
#X connect 107 0 109 0;
#X connect 108 0 216 0;
#X connect 109 0 105 0;
#X connect 110 0 103 0;
#X connect 110 0 111 0;
#X connect 111 0 207 0;
#X connect 119 0 242 1;
#X connect 120 0 242 2;
#X connect 121 0 155 1;
#X connect 122 0 154 1;
#X connect 123 0 240 1;
#X connect 124 0 136 0;
#X connect 125 0 428 0;
#X connect 127 0 154 2;
#X connect 128 0 136 1;
#X connect 130 0 155 2;
#X connect 131 0 136 2;
#X connect 133 0 97 0;
#X connect 134 0 99 0;
#X connect 135 0 88 0;
#X connect 136 0 101 0;
#X connect 143 0 154 0;
#X connect 144 0 155 0;
#X connect 145 0 240 0;
#X connect 146 0 242 0;
#X connect 147 0 85 1;
#X connect 148 0 87 1;
#X connect 149 0 95 1;
#X connect 150 0 96 1;
#X connect 151 0 152 0;
#X connect 152 0 110 0;
#X connect 153 0 151 1;
#X connect 154 0 173 0;
#X connect 155 0 175 0;
#X connect 157 0 241 2;
#X connect 158 0 161 0;
#X connect 159 0 161 1;
#X connect 160 0 161 2;
#X connect 161 0 157 0;
#X connect 162 0 241 0;
#X connect 163 0 241 1;
#X connect 165 0 168 0;
#X connect 166 0 167 1;
#X connect 167 0 165 0;
#X connect 169 0 167 0;
#X connect 172 0 87 0;
#X connect 174 0 95 0;
#X connect 176 0 96 0;
#X connect 178 0 85 0;
#X connect 179 0 151 0;
#X connect 180 0 107 0;
#X connect 181 0 183 1;
#X connect 182 0 183 0;
#X connect 183 0 180 0;
#X connect 185 0 187 0;
#X connect 187 0 106 0;
#X connect 187 1 106 1;
#X connect 188 0 187 2;
#X connect 189 0 190 0;
#X connect 191 0 187 3;
#X connect 192 0 243 2;
#X connect 193 0 243 0;
#X connect 194 0 243 1;
#X connect 196 0 186 0;
#X connect 196 0 187 1;
#X connect 200 0 199 0;
#X connect 200 0 201 0;
#X connect 201 0 208 0;
#X connect 203 0 200 0;
#X connect 204 0 244 1;
#X connect 205 0 244 2;
#X connect 206 0 244 0;
#X connect 209 0 211 1;
#X connect 209 0 212 0;
#X connect 210 0 211 0;
#X connect 211 0 213 0;
#X connect 212 0 211 0;
#X connect 213 0 214 0;
#X connect 213 0 215 0;
#X connect 215 0 246 0;
#X connect 217 0 218 0;
#X connect 217 0 232 0;
#X connect 217 0 234 0;
#X connect 218 0 225 0;
#X connect 221 0 217 0;
#X connect 222 0 245 1;
#X connect 223 0 245 0;
#X connect 224 0 245 2;
#X connect 226 0 229 1;
#X connect 226 0 228 0;
#X connect 227 0 229 0;
#X connect 228 0 229 0;
#X connect 229 0 230 0;
#X connect 230 0 231 0;
#X connect 230 0 237 0;
#X connect 230 0 235 0;
#X connect 234 0 233 0;
#X connect 235 0 247 0;
#X connect 236 0 248 0;
#X connect 237 0 236 0;
#X connect 238 0 239 1;
#X connect 239 0 252 0;
#X connect 240 0 177 0;
#X connect 241 0 170 0;
#X connect 242 0 171 0;
#X connect 243 0 195 0;
#X connect 244 0 203 0;
#X connect 245 0 221 0;
#X connect 249 0 102 0;
#X connect 250 0 102 0;
#X connect 251 0 102 0;
#X connect 253 0 102 0;
#X connect 254 0 102 0;
#X connect 255 0 256 0;
#X connect 256 0 439 0;
#X connect 257 0 258 1;
#X connect 257 0 260 0;
#X connect 258 0 259 0;
#X connect 259 0 315 0;
#X connect 260 0 258 0;
#X connect 261 0 262 0;
#X connect 262 0 426 0;
#X connect 263 0 302 0;
#X connect 265 0 307 1;
#X connect 266 0 258 0;
#X connect 267 0 307 0;
#X connect 268 0 316 1;
#X connect 270 0 313 2;
#X connect 271 0 308 0;
#X connect 272 0 308 1;
#X connect 274 0 273 0;
#X connect 274 0 275 0;
#X connect 275 0 321 0;
#X connect 277 0 274 0;
#X connect 278 0 320 1;
#X connect 279 0 280 1;
#X connect 279 0 281 0;
#X connect 280 0 282 0;
#X connect 281 0 280 0;
#X connect 282 0 283 0;
#X connect 282 0 284 0;
#X connect 284 0 323 0;
#X connect 285 0 286 0;
#X connect 285 0 296 0;
#X connect 285 0 298 0;
#X connect 286 0 334 0;
#X connect 289 0 285 0;
#X connect 290 0 333 1;
#X connect 291 0 293 1;
#X connect 291 0 292 0;
#X connect 292 0 293 0;
#X connect 293 0 294 0;
#X connect 294 0 295 0;
#X connect 294 0 301 0;
#X connect 294 0 299 0;
#X connect 298 0 297 0;
#X connect 299 0 337 0;
#X connect 300 0 336 0;
#X connect 301 0 300 0;
#X connect 302 0 329 0;
#X connect 305 0 308 2;
#X connect 306 0 307 2;
#X connect 307 0 310 0;
#X connect 308 0 309 0;
#X connect 311 0 316 0;
#X connect 312 0 269 0;
#X connect 312 0 313 1;
#X connect 313 0 264 0;
#X connect 313 1 264 1;
#X connect 314 0 313 3;
#X connect 316 0 257 0;
#X connect 317 0 261 0;
#X connect 318 0 320 2;
#X connect 319 0 320 0;
#X connect 320 0 277 0;
#X connect 322 0 280 0;
#X connect 324 0 263 0;
#X connect 325 0 263 0;
#X connect 326 0 263 0;
#X connect 327 0 263 0;
#X connect 328 0 263 0;
#X connect 330 0 302 1;
#X connect 331 0 333 0;
#X connect 332 0 333 2;
#X connect 333 0 289 0;
#X connect 335 0 293 0;
#X connect 338 0 339 0;
#X connect 339 0 441 0;
#X connect 340 0 341 1;
#X connect 340 0 343 0;
#X connect 341 0 342 0;
#X connect 342 0 402 0;
#X connect 343 0 341 0;
#X connect 344 0 345 0;
#X connect 345 0 427 0;
#X connect 346 0 386 0;
#X connect 348 0 395 1;
#X connect 349 0 341 0;
#X connect 350 0 395 0;
#X connect 351 0 398 1;
#X connect 353 0 399 2;
#X connect 354 0 393 0;
#X connect 355 0 393 1;
#X connect 358 0 357 0;
#X connect 358 0 359 0;
#X connect 359 0 421 0;
#X connect 361 0 358 0;
#X connect 362 0 405 1;
#X connect 363 0 364 1;
#X connect 363 0 365 0;
#X connect 364 0 366 0;
#X connect 365 0 364 0;
#X connect 366 0 367 0;
#X connect 366 0 368 0;
#X connect 368 0 418 0;
#X connect 369 0 370 0;
#X connect 369 0 380 0;
#X connect 369 0 382 0;
#X connect 370 0 409 0;
#X connect 373 0 369 0;
#X connect 374 0 407 1;
#X connect 375 0 377 1;
#X connect 375 0 376 0;
#X connect 376 0 377 0;
#X connect 377 0 378 0;
#X connect 378 0 379 0;
#X connect 378 0 385 0;
#X connect 378 0 383 0;
#X connect 382 0 381 0;
#X connect 383 0 411 0;
#X connect 384 0 412 0;
#X connect 385 0 384 0;
#X connect 386 0 414 0;
#X connect 388 0 346 0;
#X connect 389 0 346 0;
#X connect 392 0 393 2;
#X connect 393 0 387 0;
#X connect 394 0 395 2;
#X connect 395 0 396 0;
#X connect 397 0 398 0;
#X connect 398 0 340 0;
#X connect 399 0 347 0;
#X connect 399 1 347 1;
#X connect 400 0 352 0;
#X connect 400 0 399 1;
#X connect 401 0 399 3;
#X connect 403 0 405 0;
#X connect 404 0 405 2;
#X connect 405 0 361 0;
#X connect 406 0 407 2;
#X connect 407 0 373 0;
#X connect 408 0 407 0;
#X connect 410 0 377 0;
#X connect 413 0 386 1;
#X connect 415 0 346 0;
#X connect 416 0 346 0;
#X connect 417 0 346 0;
#X connect 419 0 364 0;
#X connect 420 0 344 0;
#X connect 426 0 255 0;
#X connect 427 0 338 0;
#X connect 428 0 82 0;
#X connect 438 0 313 0;
#X connect 439 0 437 0;
#X connect 441 0 440 0;
#X connect 442 0 399 0;
#X connect 444 0 445 0;
#X connect 445 0 446 0;
#X connect 446 0 447 0;
#X connect 447 0 448 0;
#X connect 449 0 452 0;
#X connect 451 0 449 0;
